<svg width="20" height="20" viewBox="0 0 20 20" fill="none" xmlns="http://www.w3.org/2000/svg">
<path d="M13.0846 14.4166C13.418 14.75 13.418 15.25 13.0846 15.5833C12.918 15.75 12.7513 15.8333 12.5013 15.8333C12.2513 15.8333 12.0846 15.75 11.918 15.5833L6.91797 10.5833C6.58464 10.25 6.58464 9.74996 6.91797 9.41663L11.918 4.41663C12.2513 4.08329 12.7513 4.08329 13.0846 4.41663C13.418 4.74996 13.418 5.24996 13.0846 5.58329L8.66797 9.99996L13.0846 14.4166Z" fill="#F89B53"/>
<mask id="mask0_1052_12230" style="mask-type:luminance" maskUnits="userSpaceOnUse" x="6" y="4" width="8" height="12">
<path d="M13.0846 14.4166C13.418 14.75 13.418 15.25 13.0846 15.5833C12.918 15.75 12.7513 15.8333 12.5013 15.8333C12.2513 15.8333 12.0846 15.75 11.918 15.5833L6.91797 10.5833C6.58464 10.25 6.58464 9.74996 6.91797 9.41663L11.918 4.41663C12.2513 4.08329 12.7513 4.08329 13.0846 4.41663C13.418 4.74996 13.418 5.24996 13.0846 5.58329L8.66797 9.99996L13.0846 14.4166Z" fill="white"/>
</mask>
<g mask="url(#mask0_1052_12230)">
<rect width="20" height="20" fill="#F89B53"/>
</g>
</svg>
