<svg width="89" height="89" viewBox="0 0 89 89" fill="none" xmlns="http://www.w3.org/2000/svg">
<path d="M56.8206 87.2604C50.7622 89.006 44.4021 89.4443 38.1615 88.5463C31.9209 87.6482 25.9424 85.4343 20.6221 82.0512C15.3018 78.6682 10.7611 74.1932 7.3008 68.9227C3.84054 63.6523 1.53973 57.7067 0.550809 51.4799L9.48752 50.0606C10.2754 55.0212 12.1083 59.7578 14.865 63.9566C17.6216 68.1553 21.239 71.7204 25.4775 74.4155C29.716 77.1107 34.4788 78.8744 39.4504 79.5898C44.422 80.3053 49.4888 79.9561 54.3153 78.5654L56.8206 87.2604Z" fill="url(#paint0_linear_2033_14254)"/>
<path d="M51.3843 55.3625C50.5592 55.4156 50.0111 54.9016 49.4743 54.3421C49.2296 54.086 49.038 53.7389 48.5354 53.9779C48.0688 54.196 48.1162 54.5469 48.1105 54.9263C48.0707 57.0279 47.4808 57.6026 45.3678 57.6045C44.6717 57.6045 43.9756 57.6253 43.2814 57.5931C42.0656 57.54 41.3069 56.7585 41.2557 55.5408C41.2405 55.1937 41.286 54.8409 41.2367 54.4995C41.2216 54.3782 41.173 54.2635 41.0963 54.1684C41.0196 54.0733 40.9178 54.0014 40.8025 53.961C40.6871 53.9206 40.5628 53.9132 40.4435 53.9396C40.3241 53.9661 40.2146 54.0253 40.1271 54.1107C39.9109 54.3003 39.7269 54.5166 39.5201 54.71C38.5718 55.6034 37.4337 55.6318 36.4721 54.748C35.8234 54.1486 35.1955 53.5208 34.5962 52.8721C33.7047 51.9085 33.7332 50.8084 34.6398 49.8373C34.8105 49.6476 34.9907 49.4731 35.1709 49.2967C35.3852 49.0824 35.5009 48.868 35.3606 48.538C35.2126 48.1738 34.9622 48.098 34.6151 48.115C34.2994 48.1368 33.9825 48.1368 33.6668 48.115C33.1565 48.0907 32.6751 47.8712 32.322 47.5019C31.969 47.1327 31.7714 46.6419 31.77 46.131C31.7397 45.2149 31.7473 44.2988 31.77 43.3826C31.7947 42.089 32.5287 41.3341 33.8033 41.2488C34.0874 41.2298 34.3724 41.226 34.6569 41.2374C34.8129 41.2584 34.9712 41.2234 35.1039 41.1386C35.2365 41.0539 35.3349 40.9249 35.3814 40.7746C35.5142 40.4446 35.3985 40.2416 35.1652 40.0387C34.9983 39.8926 34.8447 39.7333 34.6929 39.574C33.7066 38.5421 33.6914 37.4079 34.6664 36.3969C35.2354 35.807 35.8177 35.2247 36.4114 34.6576C37.4242 33.694 38.4864 33.6921 39.5126 34.6348C39.7231 34.8245 39.9279 35.0142 40.1214 35.2323C40.2003 35.3311 40.3119 35.3985 40.4361 35.4221C40.5603 35.4458 40.6889 35.4242 40.7986 35.3613C40.9341 35.3173 41.052 35.2312 41.1353 35.1156C41.2185 34.9999 41.2627 34.8607 41.2614 34.7183C41.5762 31.858 41.7469 31.7138 44.6205 31.7119H45.5689C47.3917 31.7214 48.0821 32.4118 48.1181 34.2137C48.1181 34.6158 47.9284 35.0862 48.5297 35.3366C49.131 35.587 49.3245 35.0919 49.6128 34.8226C50.9405 33.584 51.904 33.5859 53.1976 34.8738C53.668 35.3423 54.146 35.8089 54.6031 36.285C55.6843 37.3984 55.688 38.4852 54.624 39.5929C54.514 39.7067 54.4077 39.8243 54.292 39.9305C54.0284 40.1676 53.797 40.3801 53.9961 40.8087C54.1953 41.2374 54.5064 41.2089 54.8573 41.2127C55.1739 41.2073 55.4905 41.2199 55.8057 41.2507C56.8337 41.3721 57.545 42.0985 57.5848 43.1304C57.6227 44.1091 57.617 45.0897 57.5848 46.0684C57.5582 47.2368 56.7768 48.0183 55.6387 48.1017C55.3865 48.1207 55.1323 48.1112 54.88 48.1112C54.5386 48.1112 54.2067 48.0562 54.0113 48.4906C53.816 48.9249 54.0455 49.1355 54.2958 49.3858C54.5257 49.602 54.7429 49.8313 54.9464 50.0725C55.5572 50.8407 55.6198 51.863 54.9806 52.6027C54.2598 53.4373 53.4461 54.1922 52.6476 54.9547C52.4766 55.1063 52.2761 55.2209 52.0587 55.2911C51.8413 55.3613 51.6116 55.3856 51.3843 55.3625ZM46.1493 54.0158C45.9027 53.0997 46.4167 52.7507 47.3708 52.2158C49.0172 51.2921 50.0262 51.6468 51.0012 53.0219C51.2288 53.3444 51.4564 53.3178 51.7751 53.0504C53.6035 51.514 53.6111 51.533 51.9363 49.8847C51.8714 49.8172 51.8023 49.7539 51.7295 49.695C51.3824 49.439 51.3635 49.1639 51.6195 48.8168C51.8026 48.5965 51.9325 48.3368 51.9989 48.0581C52.2625 46.3093 53.3076 45.782 54.9407 46.0893C55.4889 46.1917 55.6767 45.8996 55.633 45.378C55.6122 45.1276 55.633 44.8735 55.633 44.6193C55.6179 42.9559 55.7734 43.1531 54.2257 43.2328C53.1426 43.2878 52.418 43.1228 52.2644 41.8937C52.1992 41.5179 52.0422 41.1641 51.8073 40.8637C51.3672 40.2738 51.4393 39.8793 51.997 39.3634C53.4688 37.9902 53.4157 37.9826 52.0539 36.5486C51.5531 36.0194 51.1946 35.9189 50.7508 36.5486C49.9219 37.717 48.9641 38.2045 47.6743 37.1632C47.4337 37.0091 47.1587 36.9172 46.8738 36.8957C46.2517 36.7971 46.1151 36.4576 46.1303 35.8525C46.1758 33.6371 46.1512 33.6618 43.9453 33.7016C43.3364 33.713 43.1164 33.9482 43.2207 34.4831C43.5261 36.0536 42.9969 36.9014 41.36 37.3377C39.9336 37.717 39.9848 37.9067 38.8942 36.8218C37.9743 35.9018 37.9743 35.9018 37.0657 36.8218C35.9277 37.9598 35.8955 38.0034 37.0904 39.0979C37.7884 39.7352 38.1146 40.2701 37.4337 41.1255C37.1602 41.5146 36.9834 41.9632 36.9178 42.4342C36.7983 43.1114 36.4493 43.2442 35.8139 43.2347C33.5492 43.2043 33.5643 43.2347 33.7142 45.4728C33.7483 45.9698 33.9361 46.1993 34.4027 46.0988C36.1269 45.7327 36.9197 46.4592 37.4375 48.1245C37.7448 49.107 37.851 49.621 37.0259 50.3153C35.8461 51.3054 35.8992 51.3698 36.988 52.4624C37.961 53.4392 38.0255 53.4961 38.9492 52.4131C39.6681 51.5709 40.2106 51.5576 41.286 51.9237C42.9286 52.4813 43.5204 53.3273 43.2169 54.9585C43.1259 55.446 43.3933 55.647 43.877 55.6091C44.1596 55.5882 44.446 55.6091 44.7286 55.6091C46.2783 55.5693 46.1436 55.8139 46.155 54.0158H46.1493Z" fill="#B937F9"/>
<path d="M39.6479 26.255C39.4225 26.0681 39.2084 25.8679 39.0068 25.6556C38.8407 25.4816 38.7469 25.251 38.7444 25.0105C38.742 24.77 38.831 24.5375 38.9935 24.3601C39.1274 24.1764 39.3276 24.0519 39.5516 24.0129C39.7756 23.974 40.006 24.0237 40.1941 24.1515C41.298 24.8836 42.3621 25.6689 43.4509 26.4276C43.7999 26.6704 43.5495 26.8582 43.4186 27.0421C42.8211 27.8957 42.2104 28.7492 41.6034 29.5895C41.2089 30.1414 40.7973 30.7636 40.0045 30.2856C39.1699 29.7829 39.5246 29.1134 39.9172 28.4457C39.5379 28.2826 39.2249 28.5026 38.9404 28.6164C32.5995 31.1353 28.844 35.7444 27.7837 42.5045C27.6699 43.2347 27.4688 43.8682 26.5868 43.7411C25.7048 43.6141 25.6707 42.9161 25.7902 42.2086C27.1179 34.3769 31.4805 29.1077 39.0011 26.494C39.1794 26.4371 39.352 26.3726 39.6479 26.255Z" fill="#B937F9"/>
<path d="M63.1677 39.5915C63.3574 39.3772 63.513 39.1742 63.695 39.0054C63.8522 38.8447 64.0631 38.7476 64.2874 38.7325C64.5117 38.7175 64.7336 38.7856 64.9109 38.9239C65.3225 39.2027 65.5159 39.6655 65.2485 40.0809C64.5144 41.2189 63.7159 42.3228 62.9307 43.4286C62.6689 43.7985 62.4299 43.5007 62.2137 43.349C61.4133 42.78 60.6185 42.2109 59.8219 41.6419C59.2434 41.2303 58.5681 40.8054 59.0765 39.9766C59.5848 39.1477 60.2524 39.4663 61.0263 40.0335C60.566 38.1536 59.7333 36.3851 58.5776 34.8326C55.6832 30.8608 51.8138 28.469 46.9221 27.7842C46.7969 27.7653 46.6717 27.7425 46.5427 27.7216C45.8826 27.6154 45.4919 27.2588 45.5943 26.5608C45.6892 25.9008 46.1634 25.6921 46.7741 25.7547C48.5051 25.9227 50.2012 26.3485 51.8062 27.0179C57.1386 29.2662 60.7715 33.1192 62.7049 38.5768C62.8093 38.8745 62.9117 39.1723 63.0179 39.4682C63.035 39.4929 63.0691 39.5081 63.1677 39.5915Z" fill="#B937F9"/>
<path d="M49.5854 63.1161C49.8756 63.3494 50.052 63.4803 50.2132 63.6263C50.6855 64.0531 50.7595 64.5747 50.3706 65.0527C49.9818 65.5306 49.4886 65.5231 49.0126 65.193C48.0016 64.495 47.0153 63.7553 45.9948 63.0687C45.5662 62.7804 45.8052 62.5698 45.9815 62.31C46.5695 61.488 47.1563 60.6661 47.7417 59.8442C48.1344 59.2922 48.5289 58.6758 49.3369 59.1177C50.1449 59.5597 49.8699 60.2103 49.4848 60.9765C51.8653 60.3166 54.06 59.1128 55.8959 57.46C59.109 54.5997 61.0266 51.0319 61.5861 46.7528C61.6772 46.0472 61.9351 45.4535 62.7242 45.5578C63.5644 45.6698 63.6858 46.3165 63.5625 47.0752C62.2348 55.0701 57.7471 60.3696 50.0368 62.9169C49.9249 62.9549 49.8206 63.0118 49.5854 63.1161Z" fill="#B937F9"/>
<path d="M26.2775 49.6835C26.0677 49.9323 25.8415 50.1667 25.6003 50.3853C25.4315 50.5337 25.2127 50.6129 24.988 50.6069C24.7632 50.6009 24.549 50.5102 24.3883 50.353C24.0089 50.0325 23.8667 49.5943 24.1474 49.1694C24.8795 48.0655 25.6648 46.9958 26.4235 45.907C26.7023 45.5087 26.911 45.8236 27.1177 45.9677C28.0225 46.6012 28.9139 47.2537 29.8206 47.8853C30.3896 48.278 30.6893 48.7616 30.2663 49.4027C29.8756 49.9945 29.3293 49.9433 28.7755 49.5924C28.633 49.5212 28.4868 49.4578 28.3373 49.4027C29.0107 51.8422 30.2485 54.089 31.9506 55.9617C34.6708 59.0517 38.4257 61.0421 42.5098 61.559C43.2477 61.6614 43.8736 61.8492 43.7446 62.7388C43.6157 63.6284 42.9214 63.6265 42.2121 63.5127C34.5871 62.2969 29.428 58.0595 26.6834 50.8576C26.5506 50.5161 26.4406 50.1576 26.2775 49.6835Z" fill="#B937F9"/>
<path d="M44.7365 38.8286C45.5042 38.8335 46.2635 38.99 46.9707 39.289C47.6779 39.588 48.3192 40.0236 48.8577 40.5709C49.3962 41.1182 49.8214 41.7665 50.1088 42.4784C50.3963 43.1904 50.5404 43.9521 50.5329 44.7199C50.5064 47.9178 47.7845 50.5998 44.6208 50.5296C43.0696 50.5022 41.5917 49.8651 40.5069 48.7561C39.422 47.6471 38.8175 46.1555 38.8243 44.6042C38.8327 43.8366 38.9924 43.0782 39.2941 42.3724C39.5959 41.6665 40.0339 41.0271 40.583 40.4907C41.1321 39.9543 41.7816 39.5314 42.4943 39.2462C43.2069 38.961 43.9689 38.8191 44.7365 38.8286ZM48.5148 44.6478C48.5088 43.8899 48.2784 43.1509 47.8526 42.5238C47.4269 41.8968 46.825 41.41 46.1228 41.1248C45.4206 40.8396 44.6497 40.7689 43.9073 40.9215C43.165 41.0742 42.4845 41.4433 41.9517 41.9824C41.419 42.5214 41.058 43.2063 40.9141 43.9504C40.7703 44.6945 40.8502 45.4645 41.1436 46.1633C41.4371 46.862 41.931 47.4582 42.5631 47.8765C43.1951 48.2947 43.9368 48.5164 44.6947 48.5134C45.7137 48.5069 46.6885 48.0961 47.4048 47.3712C48.1211 46.6464 48.5203 45.6668 48.5148 44.6478Z" fill="#B937F9"/>
<defs>
<linearGradient id="paint0_linear_2033_14254" x1="44.5" y1="0" x2="44.5" y2="89" gradientUnits="userSpaceOnUse">
<stop stop-color="#F89B53"/>
<stop offset="1" stop-color="#9B00D1"/>
</linearGradient>
</defs>
</svg>
