<svg width="89" height="89" viewBox="0 0 89 89" fill="none" xmlns="http://www.w3.org/2000/svg">
<path d="M56.8206 87.2604C50.7113 89.0207 44.2957 89.4514 38.0059 88.5236C31.7161 87.5957 25.6981 85.3309 20.3573 81.8815C15.0164 78.4322 10.4767 73.8784 7.04393 68.5269C3.61112 63.1754 1.36489 57.1505 0.456525 50.8579C-0.451844 44.5652 -0.00126239 38.151 1.77792 32.0471C3.55711 25.9433 6.62359 20.2915 10.7709 15.4725C14.9181 10.6535 20.0498 6.77915 25.8205 4.11034C31.5911 1.44153 37.8666 0.040241 44.2243 0.000853924L44.2804 9.04939C39.2154 9.08077 34.216 10.1971 29.6188 12.3232C25.0216 14.4494 20.9333 17.5359 17.6294 21.375C14.3255 25.2141 11.8825 29.7166 10.4651 34.5793C9.04771 39.442 8.68875 44.5519 9.41241 49.565C10.1361 54.5781 11.9255 59.3779 14.6603 63.6412C17.3951 67.9045 21.0117 71.5323 25.2665 74.2803C29.5213 77.0283 34.3156 78.8326 39.3264 79.5717C44.3372 80.3109 49.4483 79.9678 54.3153 78.5654L56.8206 87.2604Z" fill="url(#paint0_linear_2033_14425)"/>
<path d="M54.008 44.0189C53.9958 46.4096 53.0358 48.6979 51.3386 50.3816C49.6413 52.0654 47.3455 53.0071 44.9548 53.0003C39.9987 52.9839 35.9735 48.9056 35.9923 43.9283C36.0149 38.9917 40.0979 34.9572 45.0431 34.9845C49.9883 35.0118 54.0267 39.08 54.008 44.0189ZM44.9728 49.9857H46.4168C46.8979 49.9857 47.3798 49.9857 47.8609 49.9857C49.0566 49.9794 49.8001 49.2273 49.7993 48.0285C49.7993 46.3499 49.7993 44.6718 49.7993 42.9943C49.7993 41.9009 49.319 41.2761 48.2467 41.0223C48.0538 40.977 47.989 40.9044 47.9944 40.7162C48.003 40.378 48.0069 40.039 47.9944 39.7009C47.9241 38.1014 46.7206 36.8893 45.1251 36.8026C43.6178 36.7206 42.3057 37.8031 42.0457 39.3369C41.9676 39.7766 42.0129 40.2194 42.0082 40.6607C42.0082 40.8653 41.9715 40.9778 41.7317 41.0309C40.7 41.2589 40.2088 41.8751 40.2033 42.9388C40.1939 44.6429 40.1939 46.3471 40.2033 48.0512C40.2103 49.2593 40.9507 49.9802 42.1652 49.9849C43.1 49.9888 44.0364 49.9857 44.9728 49.9857Z" fill="#B937F9"/>
<path d="M36.9343 60.1981C36.0627 60.1981 35.1919 60.1981 34.3203 60.1981C34.2378 60.1943 34.1555 60.2093 34.0796 60.2419C34.0037 60.2745 33.9362 60.3239 33.8822 60.3863C33.3722 60.9252 32.6412 60.9416 32.1523 60.4457C32.0368 60.3351 31.945 60.2021 31.8825 60.0549C31.8201 59.9077 31.7883 59.7493 31.7891 59.5894C31.7899 59.4295 31.8233 59.2714 31.8872 59.1248C31.9511 58.9783 32.0442 58.8462 32.1609 58.7369C32.6506 58.2573 33.3808 58.2847 33.8947 58.815C33.9391 58.8692 33.9951 58.9129 34.0587 58.9426C34.1222 58.9723 34.1916 58.9874 34.2617 58.9868C35.9393 58.9868 37.6166 58.9886 39.2936 58.9922C39.5084 58.9922 39.5912 58.9305 39.5896 58.7048C39.5802 57.6771 39.5771 56.6501 39.5896 55.6223C39.5935 55.388 39.4685 55.3099 39.2983 55.2248C37.8679 54.4993 36.589 53.5077 35.53 52.3031C35.2177 51.9462 35.1864 51.6002 35.4582 51.3433C35.73 51.0863 36.0963 51.1309 36.4087 51.4854C37.4747 52.7029 38.7867 53.6806 40.2581 54.354C40.6556 54.5375 40.8157 54.8046 40.8095 55.2365C40.7923 56.433 40.8032 57.6294 40.7986 58.829C40.7939 59.7404 40.33 60.2004 39.4311 60.1989H36.9319L36.9343 60.1981Z" fill="#B937F9"/>
<path d="M59.6985 44.5963C58.8527 44.5963 58.0069 44.5963 57.1611 44.5963C56.6144 44.5963 56.3941 44.3901 56.3895 43.8473C56.3747 41.9514 55.8803 40.0901 54.9524 38.4367C54.6119 37.8174 54.8743 37.3941 55.5913 37.3933C56.7885 37.3933 57.9858 37.3933 59.1838 37.398C59.291 37.4068 59.3987 37.3902 59.4981 37.3495C59.5976 37.3088 59.6861 37.2451 59.7563 37.1637C60.2085 36.6685 61.0059 36.6834 61.4698 37.1637C61.5826 37.2762 61.6718 37.4102 61.7321 37.5577C61.7924 37.7053 61.8225 37.8634 61.8207 38.0228C61.8189 38.1822 61.7852 38.3396 61.7217 38.4857C61.6581 38.6319 61.5659 38.7638 61.4505 38.8738C61.3351 38.9837 61.1989 39.0695 61.0498 39.1259C60.9008 39.1824 60.742 39.2085 60.5827 39.2026C60.4234 39.1968 60.2669 39.1591 60.1224 39.0918C59.978 39.0245 59.8484 38.9289 59.7414 38.8108C59.6766 38.7326 59.5938 38.6712 59.5001 38.6319C59.4064 38.5926 59.3046 38.5765 59.2033 38.5851C58.3833 38.5944 57.5633 38.5976 56.7432 38.5851C56.4793 38.5851 56.3863 38.6202 56.516 38.9068C57.1111 40.2118 57.4626 41.6146 57.5531 43.046C57.5719 43.3436 57.6929 43.4022 57.9655 43.3998C59.4103 43.3881 60.8551 43.3998 62.2992 43.3944C62.5827 43.3944 62.8068 43.4725 62.9396 43.7435C63.0489 43.9707 63.0044 44.173 62.8669 44.3682C62.7295 44.5635 62.5061 44.6025 62.2765 44.5986C61.4174 44.5986 60.5584 44.5986 59.6993 44.5986L59.6985 44.5963Z" fill="#B937F9"/>
<path d="M53.0448 27.7877C53.9038 27.7877 54.7629 27.7877 55.622 27.7877C55.7172 27.7956 55.8128 27.7813 55.9016 27.7461C55.9903 27.7109 56.0697 27.6556 56.1335 27.5846C56.6373 27.0481 57.3706 27.0473 57.8642 27.5518C57.9743 27.663 58.0613 27.7948 58.1204 27.9396C58.1794 28.0845 58.2093 28.2396 58.2083 28.396C58.2073 28.5524 58.1754 28.7071 58.1145 28.8512C58.0536 28.9953 57.9648 29.1259 57.8533 29.2356C57.3644 29.723 56.6224 29.7042 56.1179 29.1786C56.0634 29.1163 55.9954 29.0672 55.9191 29.035C55.8428 29.0028 55.7602 28.9883 55.6775 28.9927C54.0374 28.9927 52.3973 28.999 50.7573 28.9927C50.4855 28.9927 50.4019 29.0708 50.4058 29.3473C50.4209 30.3366 50.4209 31.3258 50.4058 32.3151C50.4058 32.5673 50.5081 32.6743 50.7182 32.779C51.8951 33.3693 52.9704 34.1434 53.9038 35.0719C54.2381 35.4023 54.2717 35.7654 54.0038 36.0294C53.9499 36.0873 53.8846 36.1333 53.8119 36.1646C53.7392 36.1958 53.6608 36.2115 53.5817 36.2107C53.5027 36.2099 53.4246 36.1925 53.3526 36.1599C53.2806 36.1272 53.2161 36.0798 53.1635 36.0208C52.1206 34.9801 50.8982 34.1364 49.5553 33.5303C49.2999 33.4131 49.2008 33.1929 49.2008 32.9273C49.2008 31.5997 49.189 30.272 49.2086 28.9443C49.2187 28.2656 49.7349 27.7947 50.4324 27.7869C51.3039 27.7775 52.1755 27.7869 53.0471 27.7869L53.0448 27.7877Z" fill="#B937F9"/>
<path d="M53.0104 60.1986C52.1774 60.1986 51.3443 60.1986 50.5113 60.1986C49.7045 60.1986 49.2078 59.7254 49.2008 58.9272C49.1891 57.6776 49.2008 56.428 49.1914 55.1785C49.1914 54.7997 49.3265 54.5459 49.6866 54.3819C50.9454 53.81 52.0911 53.0164 53.069 52.0389C53.39 51.7195 53.7375 51.6968 53.9968 51.9538C54.2561 52.2107 54.2311 52.5833 53.8953 52.9113C52.9621 53.8388 51.8876 54.6125 50.712 55.2035C50.5003 55.3089 50.3996 55.4182 50.4058 55.6721C50.4209 56.6613 50.4209 57.6505 50.4058 58.6398C50.4058 58.9155 50.4902 58.9936 50.7588 58.992C52.3989 58.9819 54.039 58.9858 55.6744 58.9881C55.7571 58.9921 55.8397 58.9772 55.9159 58.9446C55.992 58.912 56.0598 58.8625 56.114 58.7999C56.6154 58.272 57.3636 58.2532 57.8486 58.7437C57.9629 58.8554 58.0535 58.989 58.1148 59.1366C58.1762 59.2841 58.2071 59.4426 58.2057 59.6024C58.2044 59.7622 58.1707 59.9201 58.1068 60.0666C58.0429 60.213 57.95 60.3451 57.8338 60.4548C57.3441 60.932 56.6217 60.9234 56.132 60.3978C56.0686 60.3263 55.9894 60.2706 55.9008 60.235C55.8122 60.1993 55.7165 60.1847 55.6212 60.1924C54.7505 60.1971 53.8789 60.1924 53.0081 60.1924L53.0104 60.1986Z" fill="#B937F9"/>
<path d="M36.7818 29.0004C35.9758 29.0004 35.1698 29.0004 34.3607 29.0004C34.2654 28.9946 34.17 29.0107 34.0818 29.0475C33.9937 29.0843 33.9152 29.1409 33.8523 29.2128C33.7444 29.3279 33.6147 29.4204 33.4708 29.485C33.3268 29.5496 33.1715 29.585 33.0138 29.5891C32.8561 29.5932 32.6991 29.566 32.552 29.5089C32.4049 29.4519 32.2706 29.3662 32.1568 29.2569C32.0431 29.1476 31.9522 29.0167 31.8894 28.872C31.8267 28.7272 31.7932 28.5715 31.7911 28.4137C31.789 28.256 31.8182 28.0993 31.8771 27.953C31.936 27.8066 32.0234 27.6734 32.1341 27.561C32.6113 27.0682 33.3517 27.0526 33.8359 27.561C33.9079 27.6413 33.9972 27.7041 34.097 27.7447C34.1969 27.7853 34.3047 27.8026 34.4123 27.7953C36.089 27.7906 37.7666 27.7953 39.4441 27.7953C40.322 27.7953 40.7913 28.2592 40.796 29.1417C40.7999 29.9868 40.8124 30.8326 40.796 31.6768C40.7898 31.9994 40.8288 32.1251 41.192 31.9931C41.5986 31.8562 42.0136 31.7458 42.4345 31.6628C42.7821 31.5847 43.0859 31.7698 43.1663 32.0775C43.2561 32.4187 43.0882 32.721 42.7126 32.8147C41.944 33.0075 41.1877 33.2461 40.4477 33.5293C39.969 33.7105 39.6042 33.4426 39.5886 32.8991C39.5714 32.0931 39.5824 31.2871 39.5816 30.478C39.5816 30.0875 39.5683 29.697 39.5816 29.3065C39.5917 29.066 39.5035 28.9941 39.2692 28.9941C38.4374 29.0051 37.6057 28.9988 36.77 28.9988L36.7818 29.0004Z" fill="#B937F9"/>
<path d="M32.6261 38.5817C32.0013 38.5817 31.3765 38.5863 30.7517 38.5817C30.6631 38.5757 30.5743 38.591 30.4928 38.6263C30.4113 38.6616 30.3394 38.7159 30.2831 38.7847C30.1227 38.966 29.9111 39.0943 29.6762 39.1526C29.4412 39.2109 29.1942 39.1965 28.9676 39.1113C28.7411 39.0261 28.5457 38.8741 28.4075 38.6754C28.2692 38.4767 28.1946 38.2408 28.1934 37.9987C28.1922 37.7567 28.2645 37.52 28.4008 37.32C28.5371 37.12 28.731 36.9661 28.9567 36.8786C29.1824 36.7912 29.4293 36.7744 29.6648 36.8304C29.9002 36.8864 30.1132 37.0126 30.2753 37.1923C30.3254 37.2578 30.3901 37.3106 30.4643 37.3466C30.5385 37.3825 30.6201 37.4006 30.7025 37.3992C31.8076 37.3914 32.9135 37.3899 34.0186 37.3992C34.238 37.3992 34.3364 37.3008 34.4434 37.136C35.2115 35.9409 36.1785 34.8862 37.3026 34.0176C37.5314 33.8411 37.7657 33.7231 38.0555 33.8614C38.4858 34.0621 38.5241 34.5815 38.1063 34.9118C37.4176 35.4465 36.7875 36.0525 36.2264 36.7198C35.8565 37.156 35.5259 37.6241 35.2385 38.1185C35.0534 38.4465 34.8074 38.6043 34.4184 38.5871C33.821 38.5645 33.222 38.5809 32.6222 38.5809L32.6261 38.5817Z" fill="#B937F9"/>
<path d="M32.5824 50.5918C31.9709 50.5918 31.3586 50.5957 30.7471 50.5918C30.6588 50.5856 30.5703 50.6005 30.4889 50.6351C30.4074 50.6697 30.3353 50.7231 30.2785 50.7909C30.1174 50.9714 29.9052 51.0988 29.6701 51.1561C29.4351 51.2133 29.1881 51.1978 28.962 51.1116C28.736 51.0254 28.5414 50.8726 28.4041 50.6733C28.2669 50.4741 28.1934 50.2378 28.1934 49.9959C28.1934 49.7539 28.2669 49.5177 28.4041 49.3184C28.5414 49.1192 28.736 48.9663 28.962 48.8801C29.1881 48.7939 29.4351 48.7784 29.6701 48.8357C29.9052 48.893 30.1174 49.0203 30.2785 49.2008C30.4026 49.3367 30.5182 49.4109 30.7064 49.4086C31.5655 49.4 32.4246 49.3953 33.2837 49.4086C33.5734 49.4086 33.5789 49.3125 33.475 49.0891C33.1118 48.296 32.8438 47.4626 32.6769 46.6064C32.5949 46.1964 32.7643 45.8949 33.1103 45.8254C33.4703 45.752 33.7413 45.9348 33.8374 46.3518C34.0969 47.493 34.5157 48.5919 35.0815 49.6163C35.3775 50.1497 35.1073 50.5832 34.4973 50.5918C33.8601 50.5996 33.222 50.5918 32.5847 50.5918H32.5824Z" fill="#B937F9"/>
<path d="M57.4183 50.5922C56.7935 50.5922 56.1688 50.5969 55.544 50.5922C54.8833 50.586 54.6209 50.158 54.9403 49.5769C55.4925 48.5718 55.9003 47.4939 56.1516 46.3749C56.2531 45.9313 56.5218 45.7376 56.8927 45.8157C57.2481 45.8899 57.4043 46.1929 57.3145 46.6389C57.1488 47.4823 56.883 48.303 56.5225 49.0834C56.414 49.3177 56.4296 49.4028 56.7147 49.3958C57.5738 49.3848 58.4328 49.3911 59.2919 49.3958C59.3682 49.3995 59.4442 49.3853 59.514 49.3542C59.5837 49.3232 59.6452 49.2761 59.6933 49.2169C60.1963 48.6702 60.9648 48.6398 61.4576 49.1388C61.5709 49.2516 61.6603 49.3859 61.7207 49.5339C61.781 49.6819 61.8111 49.8405 61.809 50.0003C61.8068 50.1602 61.7726 50.3179 61.7084 50.4643C61.6441 50.6106 61.5512 50.7426 61.4349 50.8523C60.946 51.3209 60.1908 51.2889 59.6972 50.7508C59.6468 50.6947 59.584 50.6512 59.5137 50.6237C59.4435 50.5961 59.3678 50.5854 59.2927 50.5922C58.6679 50.5969 58.0431 50.5922 57.4183 50.5922Z" fill="#B937F9"/>
<path d="M44.3983 59.0758C44.3983 58.3604 44.3842 57.6443 44.4053 56.9289C44.4147 56.6337 44.3116 56.5384 44.0304 56.5384C43.547 56.5431 43.0729 56.4478 42.5989 56.365C42.1732 56.2908 41.9397 56.0027 42.0022 55.6465C42.0647 55.2904 42.3396 55.1108 42.7699 55.1842C44.2216 55.4386 45.7062 55.4421 47.159 55.1943C47.6276 55.1162 47.9033 55.2873 47.965 55.6528C48.0283 56.0308 47.8002 56.2885 47.3309 56.3752C46.8826 56.4572 46.4335 56.5431 45.9766 56.5368C45.6642 56.5322 45.5916 56.6657 45.5947 56.9601C45.608 58.3917 45.5947 59.8232 45.6018 61.2556C45.6018 61.5508 45.5401 61.796 45.2464 61.9319C44.8294 62.1248 44.4108 61.8429 44.4029 61.3415C44.392 60.587 44.4029 59.8326 44.4029 59.0766L44.3983 59.0758Z" fill="#B937F9"/>
<path d="M30.2974 44.5932C29.4524 44.5932 28.6074 44.5932 27.7624 44.5932C27.2891 44.5932 27.0079 44.373 27.0001 44.0028C26.9931 43.6194 27.2813 43.3937 27.7811 43.3937C29.2119 43.3937 30.6419 43.3835 32.0718 43.3937C32.3436 43.3937 32.4358 43.3109 32.4467 43.0477C32.4842 42.1331 32.681 41.2459 32.9301 40.3689C32.9554 40.2679 32.9859 40.1684 33.0215 40.0706C33.1535 39.7394 33.4542 39.5785 33.7658 39.6645C33.8429 39.6825 33.9153 39.7165 33.9784 39.7644C34.0414 39.8122 34.0937 39.8728 34.1318 39.9422C34.1699 40.0116 34.1929 40.0883 34.1994 40.1672C34.2059 40.2461 34.1958 40.3254 34.1696 40.4001C33.8057 41.5689 33.6131 42.7843 33.5979 44.0083C33.5885 44.4035 33.3378 44.5893 32.9122 44.5925C32.0398 44.5979 31.169 44.594 30.2974 44.5932Z" fill="#B937F9"/>
<path d="M45.6054 28.8812C45.6054 29.584 45.6304 30.2869 45.5953 30.9898C45.5766 31.3655 45.7163 31.4623 46.0537 31.4584C46.5106 31.4506 46.9581 31.5459 47.4056 31.6279C47.8156 31.706 48.0374 31.977 47.9851 32.3222C47.9328 32.6674 47.6587 32.8689 47.2307 32.8056C46.5119 32.6931 45.7868 32.6252 45.0595 32.6025C44.605 32.5924 44.4027 32.362 44.4012 31.9067C44.3975 30.1651 44.3975 28.4235 44.4012 26.6819C44.4012 26.2703 44.6394 26.0064 44.9908 26.0001C45.3423 25.9939 45.5984 26.2711 45.6015 26.703C45.6054 27.4309 45.6015 28.1587 45.6015 28.8897L45.6054 28.8812Z" fill="#B937F9"/>
<path d="M44.9988 48.7956C44.0499 48.7956 43.101 48.7956 42.1521 48.7956C41.6054 48.7956 41.4055 48.5918 41.4047 48.0357C41.4016 46.3321 41.4016 44.6293 41.4047 42.9273C41.4047 42.4056 41.614 42.1869 42.1396 42.1853C44.0499 42.1791 45.9607 42.1791 47.872 42.1853C48.3929 42.1853 48.6015 42.4079 48.6022 42.932C48.6022 44.6345 48.6022 46.3373 48.6022 48.0404C48.6022 48.591 48.3984 48.7933 47.8486 48.7956C46.8934 48.7995 45.9445 48.7956 44.9988 48.7956ZM46.795 45.2554C46.795 44.3393 46.1507 43.556 45.3338 43.4201C44.4318 43.2709 43.6242 43.7325 43.3142 44.5736C43.1645 44.9729 43.164 45.4128 43.3126 45.8125C43.4613 46.2122 43.7491 46.5449 44.1233 46.7494C44.2046 46.7847 44.2758 46.8397 44.3304 46.9096C44.385 46.9794 44.4212 47.0618 44.4357 47.1493C44.4927 47.4398 44.7161 47.578 45.0097 47.5734C45.2854 47.5687 45.5127 47.4351 45.5564 47.1649C45.597 46.9173 45.7431 46.8291 45.9266 46.7182C46.4936 46.3746 46.7591 45.8497 46.795 45.2554Z" fill="#B937F9"/>
<path d="M44.99 40.9935C44.4964 40.9935 44.0036 40.9849 43.5101 40.9935C43.2851 40.9998 43.1727 40.9443 43.1891 40.6929C43.2133 40.3024 43.1797 39.9119 43.2305 39.5276C43.3507 38.6193 44.095 37.9961 45.008 38C45.921 38.0039 46.6582 38.6326 46.7699 39.5448C46.8167 39.929 46.7918 40.3219 46.8113 40.71C46.8222 40.9365 46.7207 40.9982 46.509 40.9935C46.003 40.9865 45.4961 40.9935 44.99 40.9935Z" fill="#B937F9"/>
<path d="M45.5966 45.2138C45.5937 45.2919 45.5754 45.3687 45.5428 45.4397C45.5102 45.5108 45.464 45.5747 45.4067 45.6279C45.3494 45.681 45.2822 45.7224 45.2089 45.7496C45.1357 45.7767 45.0577 45.7892 44.9796 45.7863C44.9014 45.7845 44.8242 45.7671 44.7527 45.7351C44.6812 45.7032 44.6168 45.6572 44.5633 45.6001C44.5098 45.5429 44.4682 45.4757 44.441 45.4022C44.4138 45.3288 44.4015 45.2507 44.4048 45.1724C44.4119 45.0149 44.4805 44.8663 44.5959 44.7587C44.7112 44.6511 44.8641 44.593 45.0218 44.5969C45.1001 44.5996 45.177 44.6177 45.2483 44.6502C45.3196 44.6827 45.3837 44.7289 45.4371 44.7862C45.4905 44.8435 45.5321 44.9108 45.5594 44.9841C45.5868 45.0575 45.5994 45.1356 45.5966 45.2138Z" fill="#B937F9"/>
<defs>
<linearGradient id="paint0_linear_2033_14425" x1="44.5" y1="0" x2="44.5" y2="89" gradientUnits="userSpaceOnUse">
<stop stop-color="#F89B53"/>
<stop offset="1" stop-color="#9B00D1"/>
</linearGradient>
</defs>
</svg>
