<svg width="89" height="89" viewBox="0 0 89 89" fill="none" xmlns="http://www.w3.org/2000/svg">
<path d="M75.9662 75.9663C69.1254 82.8071 60.2416 87.2323 50.6603 88.5715C41.079 89.9108 31.3223 88.0912 22.8678 83.3883C14.4134 78.6854 7.72188 71.3554 3.80676 62.5086C-0.108366 53.6618 -1.03379 43.78 1.17065 34.3601C3.37508 24.9402 8.58929 16.4953 16.0235 10.3044C23.4577 4.11352 32.707 0.513992 42.3703 0.0509909C52.0336 -0.41201 61.5847 2.28674 69.5767 7.73849C77.5688 13.1902 83.5665 21.098 86.6614 30.264L78.0882 33.1588C75.6226 25.8566 70.8445 19.5568 64.4776 15.2136C58.1106 10.8705 50.5017 8.72048 42.8034 9.08934C35.105 9.45819 27.7365 12.3258 21.814 17.2578C15.8914 22.1898 11.7375 28.9175 9.98132 36.422C8.22513 43.9264 8.96238 51.7988 12.0814 58.8467C15.2004 65.8946 20.5313 71.7341 27.2666 75.4807C34.0018 79.2273 41.7746 80.6769 49.4076 79.61C57.0406 78.543 64.118 75.0177 69.5678 69.5678L75.9662 75.9663Z" fill="url(#paint0_linear_2033_14645)"/>
<path d="M54.008 45.0189C53.9958 47.4096 53.0358 49.6979 51.3386 51.3816C49.6413 53.0654 47.3455 54.0071 44.9548 54.0003C39.9987 53.9839 35.9735 49.9056 35.9923 44.9283C36.0149 39.9917 40.0979 35.9572 45.0431 35.9845C49.9883 36.0118 54.0267 40.08 54.008 45.0189ZM44.9728 50.9857H46.4168C46.8979 50.9857 47.3798 50.9857 47.8609 50.9857C49.0566 50.9794 49.8001 50.2273 49.7993 49.0285C49.7993 47.3499 49.7993 45.6718 49.7993 43.9943C49.7993 42.9009 49.319 42.2761 48.2467 42.0223C48.0538 41.977 47.989 41.9044 47.9944 41.7162C48.003 41.378 48.0069 41.039 47.9944 40.7009C47.9241 39.1014 46.7206 37.8893 45.1251 37.8026C43.6178 37.7206 42.3057 38.8031 42.0457 40.3369C41.9676 40.7766 42.0129 41.2194 42.0082 41.6607C42.0082 41.8653 41.9715 41.9778 41.7317 42.0309C40.7 42.2589 40.2088 42.8751 40.2033 43.9388C40.1939 45.6429 40.1939 47.3471 40.2033 49.0512C40.2103 50.2593 40.9507 50.9802 42.1652 50.9849C43.1 50.9888 44.0364 50.9857 44.9728 50.9857Z" fill="#B937F9"/>
<path d="M36.9343 61.1981C36.0627 61.1981 35.1919 61.1981 34.3203 61.1981C34.2378 61.1943 34.1555 61.2093 34.0796 61.2419C34.0037 61.2745 33.9362 61.3239 33.8822 61.3863C33.3722 61.9252 32.6412 61.9416 32.1523 61.4457C32.0368 61.3351 31.945 61.2021 31.8825 61.0549C31.8201 60.9077 31.7883 60.7493 31.7891 60.5894C31.7899 60.4295 31.8233 60.2714 31.8872 60.1248C31.9511 59.9783 32.0442 59.8462 32.1609 59.7369C32.6506 59.2573 33.3808 59.2847 33.8947 59.815C33.9391 59.8692 33.9951 59.9129 34.0587 59.9426C34.1222 59.9723 34.1916 59.9874 34.2617 59.9868C35.9393 59.9868 37.6166 59.9886 39.2936 59.9922C39.5084 59.9922 39.5912 59.9305 39.5896 59.7048C39.5802 58.6771 39.5771 57.6501 39.5896 56.6223C39.5935 56.388 39.4685 56.3099 39.2983 56.2248C37.8679 55.4993 36.589 54.5077 35.53 53.3031C35.2177 52.9462 35.1864 52.6002 35.4582 52.3433C35.73 52.0863 36.0963 52.1309 36.4087 52.4854C37.4747 53.7029 38.7867 54.6806 40.2581 55.354C40.6556 55.5375 40.8157 55.8046 40.8095 56.2365C40.7923 57.433 40.8032 58.6294 40.7986 59.829C40.7939 60.7404 40.33 61.2004 39.4311 61.1989H36.9319L36.9343 61.1981Z" fill="#B937F9"/>
<path d="M59.6985 45.5963C58.8527 45.5963 58.0069 45.5963 57.1611 45.5963C56.6144 45.5963 56.3941 45.3901 56.3895 44.8473C56.3747 42.9514 55.8803 41.0901 54.9524 39.4367C54.6119 38.8174 54.8743 38.3941 55.5913 38.3933C56.7885 38.3933 57.9858 38.3933 59.1838 38.398C59.291 38.4068 59.3987 38.3902 59.4981 38.3495C59.5976 38.3088 59.6861 38.2451 59.7563 38.1637C60.2085 37.6685 61.0059 37.6834 61.4698 38.1637C61.5826 38.2762 61.6718 38.4102 61.7321 38.5577C61.7924 38.7053 61.8225 38.8634 61.8207 39.0228C61.8189 39.1822 61.7852 39.3396 61.7217 39.4857C61.6581 39.6319 61.5659 39.7638 61.4505 39.8738C61.3351 39.9837 61.1989 40.0695 61.0498 40.1259C60.9008 40.1824 60.742 40.2085 60.5827 40.2026C60.4234 40.1968 60.2669 40.1591 60.1224 40.0918C59.978 40.0245 59.8484 39.9289 59.7414 39.8108C59.6766 39.7326 59.5938 39.6712 59.5001 39.6319C59.4064 39.5926 59.3046 39.5765 59.2033 39.5851C58.3833 39.5944 57.5633 39.5976 56.7432 39.5851C56.4793 39.5851 56.3863 39.6202 56.516 39.9068C57.1111 41.2118 57.4626 42.6146 57.5531 44.046C57.5719 44.3436 57.6929 44.4022 57.9655 44.3998C59.4103 44.3881 60.8551 44.3998 62.2992 44.3944C62.5827 44.3944 62.8068 44.4725 62.9396 44.7435C63.0489 44.9707 63.0044 45.173 62.8669 45.3682C62.7295 45.5635 62.5061 45.6025 62.2765 45.5986C61.4174 45.5986 60.5584 45.5986 59.6993 45.5986L59.6985 45.5963Z" fill="#B937F9"/>
<path d="M53.0448 28.7877C53.9038 28.7877 54.7629 28.7877 55.622 28.7877C55.7172 28.7956 55.8128 28.7813 55.9016 28.7461C55.9903 28.7109 56.0697 28.6556 56.1335 28.5846C56.6373 28.0481 57.3706 28.0473 57.8642 28.5518C57.9743 28.663 58.0613 28.7948 58.1204 28.9396C58.1794 29.0845 58.2093 29.2396 58.2083 29.396C58.2073 29.5524 58.1754 29.7071 58.1145 29.8512C58.0536 29.9953 57.9648 30.1259 57.8533 30.2356C57.3644 30.723 56.6224 30.7042 56.1179 30.1786C56.0634 30.1163 55.9954 30.0672 55.9191 30.035C55.8428 30.0028 55.7602 29.9883 55.6775 29.9927C54.0374 29.9927 52.3973 29.999 50.7573 29.9927C50.4855 29.9927 50.4019 30.0708 50.4058 30.3473C50.4209 31.3366 50.4209 32.3258 50.4058 33.3151C50.4058 33.5673 50.5081 33.6743 50.7182 33.779C51.8951 34.3693 52.9704 35.1434 53.9038 36.0719C54.2381 36.4023 54.2717 36.7654 54.0038 37.0294C53.9499 37.0873 53.8846 37.1333 53.8119 37.1646C53.7392 37.1958 53.6608 37.2115 53.5817 37.2107C53.5027 37.2099 53.4246 37.1925 53.3526 37.1599C53.2806 37.1272 53.2161 37.0798 53.1635 37.0208C52.1206 35.9801 50.8982 35.1364 49.5553 34.5303C49.2999 34.4131 49.2008 34.1929 49.2008 33.9273C49.2008 32.5997 49.189 31.272 49.2086 29.9443C49.2187 29.2656 49.7349 28.7947 50.4324 28.7869C51.3039 28.7775 52.1755 28.7869 53.0471 28.7869L53.0448 28.7877Z" fill="#B937F9"/>
<path d="M53.0104 61.1986C52.1774 61.1986 51.3443 61.1986 50.5113 61.1986C49.7045 61.1986 49.2078 60.7254 49.2008 59.9272C49.1891 58.6776 49.2008 57.428 49.1914 56.1785C49.1914 55.7997 49.3265 55.5459 49.6866 55.3819C50.9454 54.81 52.0911 54.0164 53.069 53.0389C53.39 52.7195 53.7375 52.6968 53.9968 52.9538C54.2561 53.2107 54.2311 53.5833 53.8953 53.9113C52.9621 54.8388 51.8876 55.6125 50.712 56.2035C50.5003 56.3089 50.3996 56.4182 50.4058 56.6721C50.4209 57.6613 50.4209 58.6505 50.4058 59.6398C50.4058 59.9155 50.4902 59.9936 50.7588 59.992C52.3989 59.9819 54.039 59.9858 55.6744 59.9881C55.7571 59.9921 55.8397 59.9772 55.9159 59.9446C55.992 59.912 56.0598 59.8625 56.114 59.7999C56.6154 59.272 57.3636 59.2532 57.8486 59.7437C57.9629 59.8554 58.0535 59.989 58.1148 60.1366C58.1762 60.2841 58.2071 60.4426 58.2057 60.6024C58.2044 60.7622 58.1707 60.9201 58.1068 61.0666C58.0429 61.213 57.95 61.3451 57.8338 61.4548C57.3441 61.932 56.6217 61.9234 56.132 61.3978C56.0686 61.3263 55.9894 61.2706 55.9008 61.235C55.8122 61.1993 55.7165 61.1847 55.6212 61.1924C54.7505 61.1971 53.8789 61.1924 53.0081 61.1924L53.0104 61.1986Z" fill="#B937F9"/>
<path d="M36.7818 30.0004C35.9758 30.0004 35.1698 30.0004 34.3607 30.0004C34.2654 29.9946 34.17 30.0107 34.0818 30.0475C33.9937 30.0843 33.9152 30.1409 33.8523 30.2128C33.7444 30.3279 33.6147 30.4204 33.4708 30.485C33.3268 30.5496 33.1715 30.585 33.0138 30.5891C32.8561 30.5932 32.6991 30.566 32.552 30.5089C32.4049 30.4519 32.2706 30.3662 32.1568 30.2569C32.0431 30.1476 31.9522 30.0167 31.8894 29.872C31.8267 29.7272 31.7932 29.5715 31.7911 29.4137C31.789 29.256 31.8182 29.0993 31.8771 28.953C31.936 28.8066 32.0234 28.6734 32.1341 28.561C32.6113 28.0682 33.3517 28.0526 33.8359 28.561C33.9079 28.6413 33.9972 28.7041 34.097 28.7447C34.1969 28.7853 34.3047 28.8026 34.4123 28.7953C36.089 28.7906 37.7666 28.7953 39.4441 28.7953C40.322 28.7953 40.7913 29.2592 40.796 30.1417C40.7999 30.9868 40.8124 31.8326 40.796 32.6768C40.7898 32.9994 40.8288 33.1251 41.192 32.9931C41.5986 32.8562 42.0136 32.7458 42.4345 32.6628C42.7821 32.5847 43.0859 32.7698 43.1663 33.0775C43.2561 33.4187 43.0882 33.721 42.7126 33.8147C41.944 34.0075 41.1877 34.2461 40.4477 34.5293C39.969 34.7105 39.6042 34.4426 39.5886 33.8991C39.5714 33.0931 39.5824 32.2871 39.5816 31.478C39.5816 31.0875 39.5683 30.697 39.5816 30.3065C39.5917 30.066 39.5035 29.9941 39.2692 29.9941C38.4374 30.0051 37.6057 29.9988 36.77 29.9988L36.7818 30.0004Z" fill="#B937F9"/>
<path d="M32.6261 39.5817C32.0013 39.5817 31.3765 39.5863 30.7517 39.5817C30.6631 39.5757 30.5743 39.591 30.4928 39.6263C30.4113 39.6616 30.3394 39.7159 30.2831 39.7847C30.1227 39.966 29.9111 40.0943 29.6762 40.1526C29.4412 40.2109 29.1942 40.1965 28.9676 40.1113C28.7411 40.0261 28.5457 39.8741 28.4075 39.6754C28.2692 39.4767 28.1946 39.2408 28.1934 38.9987C28.1922 38.7567 28.2645 38.52 28.4008 38.32C28.5371 38.12 28.731 37.9661 28.9567 37.8786C29.1824 37.7912 29.4293 37.7744 29.6648 37.8304C29.9002 37.8864 30.1132 38.0126 30.2753 38.1923C30.3254 38.2578 30.3901 38.3106 30.4643 38.3466C30.5385 38.3825 30.6201 38.4006 30.7025 38.3992C31.8076 38.3914 32.9135 38.3899 34.0186 38.3992C34.238 38.3992 34.3364 38.3008 34.4434 38.136C35.2115 36.9409 36.1785 35.8862 37.3026 35.0176C37.5314 34.8411 37.7657 34.7231 38.0555 34.8614C38.4858 35.0621 38.5241 35.5815 38.1063 35.9118C37.4176 36.4465 36.7875 37.0525 36.2264 37.7198C35.8565 38.156 35.5259 38.6241 35.2385 39.1185C35.0534 39.4465 34.8074 39.6043 34.4184 39.5871C33.821 39.5645 33.222 39.5809 32.6222 39.5809L32.6261 39.5817Z" fill="#B937F9"/>
<path d="M32.5824 51.5918C31.9709 51.5918 31.3586 51.5957 30.7471 51.5918C30.6588 51.5856 30.5703 51.6005 30.4889 51.6351C30.4074 51.6697 30.3353 51.7231 30.2785 51.7909C30.1174 51.9714 29.9052 52.0988 29.6701 52.1561C29.4351 52.2133 29.1881 52.1978 28.962 52.1116C28.736 52.0254 28.5414 51.8726 28.4041 51.6733C28.2669 51.4741 28.1934 51.2378 28.1934 50.9959C28.1934 50.7539 28.2669 50.5177 28.4041 50.3184C28.5414 50.1192 28.736 49.9663 28.962 49.8801C29.1881 49.7939 29.4351 49.7784 29.6701 49.8357C29.9052 49.893 30.1174 50.0203 30.2785 50.2008C30.4026 50.3367 30.5182 50.4109 30.7064 50.4086C31.5655 50.4 32.4246 50.3953 33.2837 50.4086C33.5734 50.4086 33.5789 50.3125 33.475 50.0891C33.1118 49.296 32.8438 48.4626 32.6769 47.6064C32.5949 47.1964 32.7643 46.8949 33.1103 46.8254C33.4703 46.752 33.7413 46.9348 33.8374 47.3518C34.0969 48.493 34.5157 49.5919 35.0815 50.6163C35.3775 51.1497 35.1073 51.5832 34.4973 51.5918C33.8601 51.5996 33.222 51.5918 32.5847 51.5918H32.5824Z" fill="#B937F9"/>
<path d="M57.4183 51.5922C56.7935 51.5922 56.1688 51.5969 55.544 51.5922C54.8833 51.586 54.6209 51.158 54.9403 50.5769C55.4925 49.5718 55.9003 48.4939 56.1516 47.3749C56.2531 46.9313 56.5218 46.7376 56.8927 46.8157C57.2481 46.8899 57.4043 47.1929 57.3145 47.6389C57.1488 48.4823 56.883 49.303 56.5225 50.0834C56.414 50.3177 56.4296 50.4028 56.7147 50.3958C57.5738 50.3848 58.4328 50.3911 59.2919 50.3958C59.3682 50.3995 59.4442 50.3853 59.514 50.3542C59.5837 50.3232 59.6452 50.2761 59.6933 50.2169C60.1963 49.6702 60.9648 49.6398 61.4576 50.1388C61.5709 50.2516 61.6603 50.3859 61.7207 50.5339C61.781 50.6819 61.8111 50.8405 61.809 51.0003C61.8068 51.1602 61.7726 51.3179 61.7084 51.4643C61.6441 51.6106 61.5512 51.7426 61.4349 51.8523C60.946 52.3209 60.1908 52.2889 59.6972 51.7508C59.6468 51.6947 59.584 51.6512 59.5137 51.6237C59.4435 51.5961 59.3678 51.5854 59.2927 51.5922C58.6679 51.5969 58.0431 51.5922 57.4183 51.5922Z" fill="#B937F9"/>
<path d="M44.3983 60.0758C44.3983 59.3604 44.3842 58.6443 44.4053 57.9289C44.4147 57.6337 44.3116 57.5384 44.0304 57.5384C43.547 57.5431 43.0729 57.4478 42.5989 57.365C42.1732 57.2908 41.9397 57.0027 42.0022 56.6465C42.0647 56.2904 42.3396 56.1108 42.7699 56.1842C44.2216 56.4386 45.7062 56.4421 47.159 56.1943C47.6276 56.1162 47.9033 56.2873 47.965 56.6528C48.0283 57.0308 47.8002 57.2885 47.3309 57.3752C46.8826 57.4572 46.4335 57.5431 45.9766 57.5368C45.6642 57.5322 45.5916 57.6657 45.5947 57.9601C45.608 59.3917 45.5947 60.8232 45.6018 62.2556C45.6018 62.5508 45.5401 62.796 45.2464 62.9319C44.8294 63.1248 44.4108 62.8429 44.4029 62.3415C44.392 61.587 44.4029 60.8326 44.4029 60.0766L44.3983 60.0758Z" fill="#B937F9"/>
<path d="M30.2974 45.5932C29.4524 45.5932 28.6074 45.5932 27.7624 45.5932C27.2891 45.5932 27.0079 45.373 27.0001 45.0028C26.9931 44.6194 27.2813 44.3937 27.7811 44.3937C29.2119 44.3937 30.6419 44.3835 32.0718 44.3937C32.3436 44.3937 32.4358 44.3109 32.4467 44.0477C32.4842 43.1331 32.681 42.2459 32.9301 41.3689C32.9554 41.2679 32.9859 41.1684 33.0215 41.0706C33.1535 40.7394 33.4542 40.5785 33.7658 40.6645C33.8429 40.6825 33.9153 40.7165 33.9784 40.7644C34.0414 40.8122 34.0937 40.8728 34.1318 40.9422C34.1699 41.0116 34.1929 41.0883 34.1994 41.1672C34.2059 41.2461 34.1958 41.3254 34.1696 41.4001C33.8057 42.5689 33.6131 43.7843 33.5979 45.0083C33.5885 45.4035 33.3378 45.5893 32.9122 45.5925C32.0398 45.5979 31.169 45.594 30.2974 45.5932Z" fill="#B937F9"/>
<path d="M45.6054 29.8812C45.6054 30.584 45.6304 31.2869 45.5953 31.9898C45.5766 32.3655 45.7163 32.4623 46.0537 32.4584C46.5106 32.4506 46.9581 32.5459 47.4056 32.6279C47.8156 32.706 48.0374 32.977 47.9851 33.3222C47.9328 33.6674 47.6587 33.8689 47.2307 33.8056C46.5119 33.6931 45.7868 33.6252 45.0595 33.6025C44.605 33.5924 44.4027 33.362 44.4012 32.9067C44.3975 31.1651 44.3975 29.4235 44.4012 27.6819C44.4012 27.2703 44.6394 27.0064 44.9908 27.0001C45.3423 26.9939 45.5984 27.2711 45.6015 27.703C45.6054 28.4309 45.6015 29.1587 45.6015 29.8897L45.6054 29.8812Z" fill="#B937F9"/>
<path d="M44.9988 49.7956C44.0499 49.7956 43.101 49.7956 42.1521 49.7956C41.6054 49.7956 41.4055 49.5918 41.4047 49.0357C41.4016 47.3321 41.4016 45.6293 41.4047 43.9273C41.4047 43.4056 41.614 43.1869 42.1396 43.1853C44.0499 43.1791 45.9607 43.1791 47.872 43.1853C48.3929 43.1853 48.6015 43.4079 48.6022 43.932C48.6022 45.6345 48.6022 47.3373 48.6022 49.0404C48.6022 49.591 48.3984 49.7933 47.8486 49.7956C46.8934 49.7995 45.9445 49.7956 44.9988 49.7956ZM46.795 46.2554C46.795 45.3393 46.1507 44.556 45.3338 44.4201C44.4318 44.2709 43.6242 44.7325 43.3142 45.5736C43.1645 45.9729 43.164 46.4128 43.3126 46.8125C43.4613 47.2122 43.7491 47.5449 44.1233 47.7494C44.2046 47.7847 44.2758 47.8397 44.3304 47.9096C44.385 47.9794 44.4212 48.0618 44.4357 48.1493C44.4927 48.4398 44.7161 48.578 45.0097 48.5734C45.2854 48.5687 45.5127 48.4351 45.5564 48.1649C45.597 47.9173 45.7431 47.8291 45.9266 47.7182C46.4936 47.3746 46.7591 46.8497 46.795 46.2554Z" fill="#B937F9"/>
<path d="M44.99 41.9935C44.4964 41.9935 44.0036 41.9849 43.5101 41.9935C43.2851 41.9998 43.1727 41.9443 43.1891 41.6929C43.2133 41.3024 43.1797 40.9119 43.2305 40.5276C43.3507 39.6193 44.095 38.9961 45.008 39C45.921 39.0039 46.6582 39.6326 46.7699 40.5448C46.8167 40.929 46.7918 41.3219 46.8113 41.71C46.8222 41.9365 46.7207 41.9982 46.509 41.9935C46.003 41.9865 45.4961 41.9935 44.99 41.9935Z" fill="#B937F9"/>
<path d="M45.5966 46.2138C45.5937 46.2919 45.5754 46.3687 45.5428 46.4397C45.5102 46.5108 45.464 46.5747 45.4067 46.6279C45.3494 46.681 45.2822 46.7224 45.2089 46.7496C45.1357 46.7767 45.0577 46.7892 44.9796 46.7863C44.9014 46.7845 44.8242 46.7671 44.7527 46.7351C44.6812 46.7032 44.6168 46.6572 44.5633 46.6001C44.5098 46.5429 44.4682 46.4757 44.441 46.4022C44.4138 46.3288 44.4015 46.2507 44.4048 46.1724C44.4119 46.0149 44.4805 45.8663 44.5959 45.7587C44.7112 45.6511 44.8641 45.593 45.0218 45.5969C45.1001 45.5996 45.177 45.6177 45.2483 45.6502C45.3196 45.6827 45.3837 45.7289 45.4371 45.7862C45.4905 45.8435 45.5321 45.9108 45.5594 45.9841C45.5868 46.0575 45.5994 46.1356 45.5966 46.2138Z" fill="#B937F9"/>
<defs>
<linearGradient id="paint0_linear_2033_14645" x1="44.5" y1="0" x2="44.5" y2="89" gradientUnits="userSpaceOnUse">
<stop stop-color="#F89B53"/>
<stop offset="1" stop-color="#9B00D1"/>
</linearGradient>
</defs>
</svg>
