<svg width="44" height="44" viewBox="0 0 44 44" fill="none" xmlns="http://www.w3.org/2000/svg">
<rect width="44" height="44" rx="22" fill="#F89B53"/>
<path d="M19 22H22.75M19 25H22.75M19 28H22.75M25.75 28.75H28C28.5967 28.75 29.169 28.5129 29.591 28.091C30.0129 27.669 30.25 27.0967 30.25 26.5V16.108C30.25 14.973 29.405 14.01 28.274 13.916C27.9 13.885 27.5256 13.8583 27.151 13.836M27.151 13.836C27.2174 14.0511 27.2501 14.2749 27.25 14.5C27.25 14.6989 27.171 14.8897 27.0303 15.0303C26.8897 15.171 26.6989 15.25 26.5 15.25H22C21.586 15.25 21.25 14.914 21.25 14.5C21.25 14.269 21.285 14.046 21.35 13.836M27.151 13.836C26.868 12.918 26.012 12.25 25 12.25H23.5C23.0192 12.2501 22.5511 12.4041 22.1643 12.6895C21.7774 12.9749 21.492 13.3767 21.35 13.836M21.35 13.836C20.974 13.859 20.6 13.886 20.226 13.916C19.095 14.01 18.25 14.973 18.25 16.108V18.25M18.25 18.25H14.875C14.254 18.25 13.75 18.754 13.75 19.375V30.625C13.75 31.246 14.254 31.75 14.875 31.75H24.625C25.246 31.75 25.75 31.246 25.75 30.625V19.375C25.75 18.754 25.246 18.25 24.625 18.25H18.25ZM16.75 22H16.758V22.008H16.75V22ZM16.75 25H16.758V25.008H16.75V25ZM16.75 28H16.758V28.008H16.75V28Z" stroke="white" stroke-width="1.5" stroke-linecap="round" stroke-linejoin="round"/>
</svg>
