<svg width="27" height="27" viewBox="0 0 27 27" fill="none" xmlns="http://www.w3.org/2000/svg">
<path d="M17.7188 19.4063V23.2031C17.7188 23.9018 17.1517 24.4688 16.4531 24.4688H5.48438C5.14871 24.4688 4.82679 24.3354 4.58944 24.0981C4.35209 23.8607 4.21875 23.5388 4.21875 23.2031V8.85938C4.21875 8.16075 4.78575 7.59375 5.48438 7.59375H7.59375C8.15915 7.59337 8.72359 7.64003 9.28125 7.73325M17.7188 19.4063H21.5156C22.2142 19.4063 22.7812 18.8393 22.7812 18.1406V12.6563C22.7812 7.63875 19.1329 3.47513 14.3438 2.67075C13.7861 2.57753 13.2216 2.53087 12.6562 2.53125H10.5469C9.84825 2.53125 9.28125 3.09825 9.28125 3.79688V7.73325M17.7188 19.4063H10.5469C10.2112 19.4063 9.88929 19.2729 9.65194 19.0356C9.41459 18.7982 9.28125 18.4763 9.28125 18.1406V7.73325M22.7812 15.1875V13.0781C22.7812 12.0711 22.3812 11.1054 21.6692 10.3933C20.9571 9.68128 19.9914 9.28125 18.9844 9.28125H17.2969C16.9612 9.28125 16.6393 9.14791 16.4019 8.91056C16.1646 8.67321 16.0312 8.35129 16.0312 8.01563V6.32813C16.0312 5.82951 15.933 5.33578 15.7422 4.87513C15.5514 4.41447 15.2717 3.9959 14.9192 3.64333C14.5666 3.29076 14.148 3.01108 13.6874 2.82027C13.2267 2.62946 12.733 2.53125 12.2344 2.53125H10.9688" stroke="#ADADAD" stroke-width="1.2" stroke-linecap="round" stroke-linejoin="round"/>
</svg>
