<svg width="27" height="27" viewBox="0 0 27 27" fill="none" xmlns="http://www.w3.org/2000/svg">
<path d="M18.9698 5.04815L20.8676 3.14915C21.2633 2.75352 21.7999 2.53125 22.3594 2.53125C22.9189 2.53125 23.4555 2.75352 23.8511 3.14915C24.2468 3.54479 24.469 4.08139 24.469 4.6409C24.469 5.20042 24.2468 5.73702 23.8511 6.13265L11.9048 18.079C11.31 18.6734 10.5765 19.1103 9.77063 19.3503L6.75 20.2503L7.65 17.2297C7.88994 16.4237 8.32684 15.6903 8.92125 15.0955L18.9698 5.04815ZM18.9698 5.04815L21.9375 8.0159M20.25 15.7503V21.094C20.25 21.7654 19.9833 22.4092 19.5086 22.8839C19.0339 23.3586 18.3901 23.6253 17.7188 23.6253H5.90625C5.23492 23.6253 4.59109 23.3586 4.11639 22.8839C3.64168 22.4092 3.375 21.7654 3.375 21.094V9.28153C3.375 8.6102 3.64168 7.96637 4.11639 7.49166C4.59109 7.01696 5.23492 6.75028 5.90625 6.75028H11.25" stroke="#ADADAD" stroke-width="1.3125" stroke-linecap="round" stroke-linejoin="round"/>
</svg>
