<svg width="24" height="24" viewBox="0 0 24 24" fill="none" xmlns="http://www.w3.org/2000/svg">
<path fill-rule="evenodd" clip-rule="evenodd" d="M22.0994 10.792C21.8238 10.7958 21.5335 10.8648 21.2445 11.0145C21.2445 11.0146 21.2445 11.0146 21.2442 11.0146L16.2478 13.6004C16.0109 13.0111 15.4414 12.6043 14.7998 12.6241C14.7995 12.6241 14.7991 12.6242 14.7988 12.6242L11.929 12.7186C11.2258 12.7186 10.695 12.5365 10.0241 12.3276C9.3514 12.1181 8.55128 11.8914 7.44536 11.8914C6.53403 11.8914 5.30602 12.1879 4.30586 12.5528V11.8799C4.30586 11.8047 4.29197 11.7295 4.26524 11.66C4.23851 11.5906 4.19898 11.5269 4.14961 11.4737C4.10024 11.4205 4.04108 11.378 3.97658 11.3492C3.91209 11.3204 3.84228 11.3055 3.77248 11.3055H0.881118C0.811288 11.3055 0.741511 11.3204 0.676989 11.3492C0.612493 11.3779 0.553306 11.4205 0.503934 11.4737C0.454562 11.5269 0.415006 11.5906 0.388279 11.66C0.361553 11.7295 0.347656 11.8046 0.347656 11.8799V14.2267V20.4255C0.347656 20.5007 0.361553 20.5759 0.388279 20.6453C0.415006 20.7148 0.454562 20.7785 0.503934 20.8317C0.553306 20.8848 0.612493 20.9274 0.676989 20.9562C0.741511 20.985 0.811288 20.9999 0.881118 20.9999H3.77248C3.84228 20.9999 3.91209 20.985 3.97658 20.9562C4.04108 20.9274 4.10024 20.8848 4.14961 20.8316C4.19898 20.7785 4.23851 20.7148 4.26524 20.6453C4.29197 20.5758 4.30586 20.5007 4.30586 20.4255V19.6902C7.81815 19.0209 9.90681 20.1612 13.0707 20.1612C13.071 20.1612 13.0713 20.1612 13.0716 20.1612C13.7256 20.1612 14.4118 19.8163 15.2702 19.3367C16.1286 18.857 17.1105 18.2132 18.1038 17.5225C20.0902 16.1414 22.1251 14.5682 23.1848 13.7951C23.1851 13.7949 23.1854 13.7948 23.1856 13.7951C23.5489 13.5307 23.7668 13.1147 23.811 12.7024C23.8553 12.2898 23.748 11.8852 23.5345 11.5511C23.241 11.0918 22.7058 10.7842 22.0994 10.7925L22.0994 10.792ZM22.1722 11.9105C22.4124 11.907 22.5553 12.0447 22.6558 12.202C22.7324 12.3218 22.7629 12.4625 22.7513 12.5699C22.7398 12.6772 22.7086 12.7553 22.5881 12.8429C22.5879 12.843 22.5876 12.8432 22.5873 12.8429C21.497 13.6383 19.4807 15.1971 17.5253 16.5568C16.5475 17.2366 15.5856 17.8656 14.7789 18.3163C13.9724 18.767 13.2724 19.0114 13.0701 19.0118C10.2067 19.0116 7.96866 17.875 4.30608 18.524V18.0293C4.30696 17.9535 4.29373 17.8776 4.2674 17.8073C4.24107 17.737 4.20168 17.6724 4.1522 17.6185C4.10275 17.5645 4.04327 17.5213 3.97834 17.4921C3.91339 17.4628 3.84303 17.4477 3.77267 17.4477C3.70228 17.4477 3.63191 17.4629 3.56696 17.4921C3.50204 17.5213 3.44256 17.5645 3.39311 17.6185C3.34363 17.6724 3.30423 17.737 3.27791 17.8073C3.25158 17.8776 3.23835 17.9535 3.23923 18.0293V19.8506H2.97242V12.4537H3.23923V14.2721C3.23835 14.3479 3.25158 14.4239 3.27791 14.4941C3.30423 14.5644 3.34363 14.629 3.39311 14.6829C3.44256 14.7369 3.50204 14.7801 3.56696 14.8093C3.63191 14.8386 3.70228 14.8537 3.77267 14.8537C3.84303 14.8537 3.91339 14.8385 3.97834 14.8093C4.04327 14.7801 4.10275 14.7369 4.1522 14.6829C4.20168 14.629 4.24107 14.5644 4.2674 14.4941C4.29373 14.4239 4.30696 14.3479 4.30608 14.2721V13.774C5.24785 13.3998 6.68958 13.0397 7.44558 13.0397C8.42019 13.0397 9.07232 13.2266 9.72797 13.4308C10.3836 13.635 11.0563 13.867 11.9347 13.867C11.9401 13.867 11.9455 13.8669 11.9509 13.8667L14.8306 13.7719C15.101 13.7636 15.2981 13.993 15.2981 14.206C15.2981 14.4238 15.1106 14.6272 14.7949 14.6402C14.7941 14.6403 14.7933 14.6404 14.7925 14.6404L9.31387 14.8932C9.24342 14.8961 9.17341 14.9127 9.10918 14.944C9.04498 14.9752 8.98662 15.0204 8.93858 15.0759C8.89054 15.1314 8.85288 15.1973 8.82847 15.2685C8.80407 15.3397 8.79294 15.4162 8.79596 15.492C8.79897 15.5678 8.81612 15.643 8.84608 15.7117C8.87603 15.7804 8.91879 15.8426 8.97104 15.8935C9.02329 15.9444 9.08504 15.984 9.15148 16.0093C9.21795 16.0345 9.28909 16.0454 9.35945 16.041L14.8357 15.7883L14.8381 15.7882C15.4119 15.7638 15.9496 15.4199 16.2067 14.8958L21.7066 12.0495C21.7066 12.0495 21.7069 12.0495 21.7069 12.0494C21.894 11.9525 22.0466 11.9118 22.1724 11.9099L22.1722 11.9105ZM1.41461 12.4543H1.90547V19.8511H1.41461V14.2267V12.4543Z" fill="url(#paint0_linear_2491_12933)"/>
<path fill-rule="evenodd" clip-rule="evenodd" d="M13.5008 6.58991C13.431 6.59106 13.3615 6.60712 13.2974 6.6369C13.2333 6.66668 13.1748 6.71018 13.1261 6.76409C13.0775 6.81801 13.0389 6.88232 13.0131 6.95216C12.9873 7.022 12.9744 7.09734 12.9754 7.17249V8.54276H11.7031C11.6325 8.54132 11.5617 8.55533 11.4961 8.5835C11.4305 8.61165 11.3702 8.65403 11.3198 8.70733C11.2694 8.76063 11.229 8.82481 11.2017 8.89495C11.1743 8.96508 11.1602 9.04111 11.1602 9.11717C11.1602 9.19322 11.1743 9.26924 11.2017 9.33937C11.229 9.40951 11.2694 9.47371 11.3198 9.527C11.3702 9.5803 11.4305 9.62265 11.4961 9.65081C11.5617 9.67896 11.6325 9.69293 11.7031 9.69158H12.9754V11.0618C12.9745 11.1376 12.9878 11.2136 13.0141 11.2839C13.0404 11.3542 13.0798 11.4188 13.1293 11.4727C13.1787 11.5266 13.2382 11.5698 13.3032 11.5991C13.3681 11.6283 13.4385 11.6435 13.5089 11.6435C13.5792 11.6435 13.6496 11.6283 13.7145 11.5991C13.7795 11.5698 13.8389 11.5266 13.8884 11.4727C13.9379 11.4188 13.9773 11.3542 14.0036 11.2839C14.0299 11.2136 14.0431 11.1376 14.0423 11.0618V9.69158H15.3146C15.3853 9.69301 15.4561 9.67898 15.5217 9.65081C15.5873 9.62263 15.6476 9.5803 15.698 9.527C15.7484 9.47371 15.7888 9.40951 15.8161 9.33937C15.8434 9.26924 15.8576 9.19322 15.8576 9.11717C15.8576 9.04111 15.8434 8.96508 15.8161 8.89495C15.7888 8.82481 15.7484 8.76063 15.698 8.70733C15.6476 8.65403 15.5873 8.61167 15.5217 8.5835C15.4561 8.55532 15.3853 8.5414 15.3146 8.54276H14.0423V7.17249C14.0433 7.09589 14.0299 7.01912 14.0031 6.94815C13.9763 6.87717 13.9362 6.81206 13.8859 6.75792C13.8356 6.70378 13.7751 6.66064 13.7092 6.63188C13.6432 6.60312 13.5719 6.58875 13.5008 6.58991Z" fill="url(#paint1_linear_2491_12933)"/>
<path fill-rule="evenodd" clip-rule="evenodd" d="M15.6833 3.00006C15.6135 3.00121 15.5439 3.01727 15.4799 3.04705C15.4158 3.07684 15.3572 3.12033 15.3086 3.17425C15.26 3.22816 15.2213 3.29247 15.1955 3.36232C15.1698 3.43216 15.1569 3.50749 15.1579 3.58264V4.13139H14.6484C14.5778 4.12995 14.507 4.14396 14.4414 4.17213C14.3758 4.20028 14.3155 4.24266 14.2651 4.29596C14.2147 4.34926 14.1743 4.41344 14.147 4.48357C14.1197 4.55371 14.1055 4.62972 14.1055 4.70578C14.1055 4.78183 14.1197 4.85787 14.147 4.928C14.1743 4.99813 14.2147 5.06232 14.2651 5.11561C14.3155 5.16891 14.3758 5.21128 14.4414 5.23944C14.507 5.26759 14.5778 5.28154 14.6484 5.28019H15.1579V5.82606C15.157 5.90185 15.1702 5.97781 15.1966 6.0481C15.2229 6.1184 15.2623 6.18298 15.3118 6.23691C15.3612 6.29083 15.4207 6.33407 15.4856 6.3633C15.5506 6.39252 15.6209 6.40771 15.6913 6.40771C15.7617 6.40771 15.832 6.39252 15.897 6.3633C15.9619 6.33407 16.0214 6.29083 16.0708 6.23691C16.1203 6.18298 16.1597 6.1184 16.186 6.0481C16.2124 5.97781 16.2256 5.90185 16.2247 5.82606V5.28019H16.7316C16.8022 5.28162 16.873 5.26761 16.9386 5.23944C17.0042 5.21126 17.0646 5.16891 17.1149 5.11561C17.1653 5.06232 17.2057 4.99813 17.233 4.928C17.2604 4.85787 17.2746 4.78183 17.2746 4.70578C17.2746 4.62972 17.2604 4.55371 17.233 4.48357C17.2057 4.41344 17.1653 4.34926 17.1149 4.29596C17.0646 4.24266 17.0042 4.2003 16.9386 4.17213C16.873 4.14395 16.8022 4.13003 16.7316 4.13139H16.2247V3.58264C16.2257 3.50605 16.2123 3.42927 16.1856 3.3583C16.1588 3.28733 16.1187 3.22222 16.0684 3.16808C16.018 3.11394 15.9575 3.0708 15.8916 3.04204C15.8257 3.01327 15.7544 2.99891 15.6833 3.00006Z" fill="url(#paint2_linear_2491_12933)"/>
<path fill-rule="evenodd" clip-rule="evenodd" d="M11.32 3.00006C11.2502 3.00121 11.1806 3.01727 11.1166 3.04705C11.0525 3.07684 10.994 3.12033 10.9453 3.17425C10.8967 3.22816 10.8581 3.29247 10.8323 3.36232C10.8065 3.43216 10.7936 3.50749 10.7946 3.58264V4.13139H10.2851C10.2145 4.12995 10.1437 4.14396 10.0781 4.17213C10.0125 4.20028 9.95218 4.24266 9.9018 4.29596C9.85141 4.34926 9.81103 4.41344 9.78372 4.48357C9.75638 4.55371 9.74219 4.62972 9.74219 4.70578C9.74219 4.78183 9.75638 4.85787 9.78372 4.928C9.81103 4.99813 9.85141 5.06232 9.9018 5.11561C9.95218 5.16891 10.0125 5.21128 10.0781 5.23944C10.1437 5.26759 10.2145 5.28154 10.2851 5.28019H10.7946V5.82606C10.7937 5.90185 10.807 5.97781 10.8333 6.0481C10.8596 6.1184 10.899 6.18298 10.9485 6.23691C10.9979 6.29083 11.0574 6.33407 11.1223 6.3633C11.1873 6.39252 11.2576 6.40771 11.328 6.40771C11.3984 6.40771 11.4688 6.39252 11.5337 6.3633C11.5986 6.33407 11.6581 6.29083 11.7076 6.23691C11.757 6.18298 11.7964 6.1184 11.8228 6.0481C11.8491 5.97781 11.8623 5.90185 11.8614 5.82606V5.28019H12.3683C12.4389 5.28162 12.5098 5.26761 12.5753 5.23944C12.641 5.21126 12.7013 5.16891 12.7517 5.11561C12.802 5.06232 12.8424 4.99813 12.8697 4.928C12.8971 4.85787 12.9113 4.78183 12.9113 4.70578C12.9113 4.62972 12.8971 4.55371 12.8697 4.48357C12.8424 4.41344 12.802 4.34926 12.7517 4.29596C12.7013 4.24266 12.641 4.2003 12.5753 4.17213C12.5098 4.14395 12.4389 4.13003 12.3683 4.13139H11.8614V3.58264C11.8625 3.50605 11.849 3.42927 11.8223 3.3583C11.7955 3.28733 11.7554 3.22222 11.7051 3.16808C11.6548 3.11394 11.5943 3.0708 11.5284 3.04204C11.4624 3.01327 11.3911 2.99891 11.32 3.00006Z" fill="url(#paint3_linear_2491_12933)"/>
<defs>
<linearGradient id="paint0_linear_2491_12933" x1="2.00989" y1="13.7726" x2="22.699" y2="18.0077" gradientUnits="userSpaceOnUse">
<stop stop-color="#B47E54"/>
<stop offset="0.563901" stop-color="#A816BF" stop-opacity="0.75"/>
<stop offset="1" stop-color="#0C0081" stop-opacity="0.78"/>
</linearGradient>
<linearGradient id="paint1_linear_2491_12933" x1="11.4928" y1="8.06547" x2="15.7772" y2="8.41998" gradientUnits="userSpaceOnUse">
<stop stop-color="#B47E54"/>
<stop offset="0.563901" stop-color="#A816BF" stop-opacity="0.75"/>
<stop offset="1" stop-color="#0C0081" stop-opacity="0.78"/>
</linearGradient>
<linearGradient id="paint2_linear_2491_12933" x1="14.3299" y1="3.99502" x2="17.2203" y2="4.23431" gradientUnits="userSpaceOnUse">
<stop stop-color="#B47E54"/>
<stop offset="0.563901" stop-color="#A816BF" stop-opacity="0.75"/>
<stop offset="1" stop-color="#0C0081" stop-opacity="0.78"/>
</linearGradient>
<linearGradient id="paint3_linear_2491_12933" x1="9.9666" y1="3.99502" x2="12.857" y2="4.23431" gradientUnits="userSpaceOnUse">
<stop stop-color="#B47E54"/>
<stop offset="0.563901" stop-color="#A816BF" stop-opacity="0.75"/>
<stop offset="1" stop-color="#0C0081" stop-opacity="0.78"/>
</linearGradient>
</defs>
</svg>
