<svg width="32" height="25" viewBox="0 0 32 25" fill="none" xmlns="http://www.w3.org/2000/svg">
<path d="M29.4653 0H2.02968C0.909855 0 0 0.957447 0 2.12766V22.8723C0 24.0426 0.909855 25 2.02968 25H29.4653C30.5851 25 31.495 24.0426 31.495 22.8723V2.12766C31.53 0.957447 30.5851 0 29.4653 0ZM2.02968 1.41844H29.4653C29.8152 1.41844 30.0952 1.73759 30.0952 2.12766V17.766L21.6615 7.48227C21.1016 6.77305 20.0868 6.77305 19.5269 7.48227L13.0879 15.5674C12.528 16.2766 11.5132 16.2766 10.9532 15.5674L8.08371 12.0567C7.5238 11.3475 6.50896 11.3475 5.94905 12.0567L1.36478 17.6596V2.12766C1.36478 1.73759 1.67973 1.41844 2.02968 1.41844Z" fill="#F89B53"/>
<path d="M12.0728 9.25542C13.6383 9.25542 14.9074 7.96943 14.9074 6.38308C14.9074 4.79673 13.6383 3.51074 12.0728 3.51074C10.5074 3.51074 9.23828 4.79673 9.23828 6.38308C9.23828 7.96943 10.5074 9.25542 12.0728 9.25542Z" fill="#F89B53"/>
</svg>
