<svg width="24" height="24" viewBox="0 0 24 24" fill="none" xmlns="http://www.w3.org/2000/svg">
<path d="M18.1875 3H5.8125C5.06658 3 4.35121 3.29632 3.82376 3.82376C3.29632 4.35121 3 5.06658 3 5.8125V9.1875C3 9.93342 3.29632 10.6488 3.82376 11.1762C4.35121 11.7037 5.06658 12 5.8125 12H18.1875C18.5568 12 18.9226 11.9273 19.2638 11.7859C19.605 11.6446 19.9151 11.4374 20.1762 11.1762C20.4374 10.9151 20.6446 10.605 20.7859 10.2638C20.9273 9.92257 21 9.55684 21 9.1875V5.8125C21 5.44316 20.9273 5.07743 20.7859 4.7362C20.6446 4.39497 20.4374 4.08493 20.1762 3.82376C19.9151 3.5626 19.605 3.35543 19.2638 3.21409C18.9226 3.07275 18.5568 3 18.1875 3ZM18.75 9.1875C18.75 9.33668 18.6907 9.47976 18.5852 9.58525C18.4798 9.69074 18.3367 9.75 18.1875 9.75H5.8125C5.66332 9.75 5.52024 9.69074 5.41475 9.58525C5.30926 9.47976 5.25 9.33668 5.25 9.1875V5.8125C5.25 5.66332 5.30926 5.52024 5.41475 5.41475C5.52024 5.30926 5.66332 5.25 5.8125 5.25H18.1875C18.3367 5.25 18.4798 5.30926 18.5852 5.41475C18.6907 5.52024 18.75 5.66332 18.75 5.8125V9.1875Z" fill="url(#paint0_linear_2491_12928)"/>
<path d="M18 15.5C18 15.1022 17.8859 14.7206 17.6827 14.4393C17.4795 14.158 17.204 14 16.9167 14H6.08333C5.79602 14 5.52047 14.158 5.3173 14.4393C5.11414 14.7206 5 15.1022 5 15.5C5 15.8978 5.11414 16.2794 5.3173 16.5607C5.52047 16.842 5.79602 17 6.08333 17H16.9167C17.204 17 17.4795 16.842 17.6827 16.5607C17.8859 16.2794 18 15.8978 18 15.5Z" fill="url(#paint1_linear_2491_12928)"/>
<path d="M8.125 19C7.82663 19 7.54048 19.1054 7.32951 19.2929C7.11853 19.4804 7 19.7348 7 20C7 20.2652 7.11853 20.5196 7.32951 20.7071C7.54048 20.8946 7.82663 21 8.125 21H14.875C15.1734 21 15.4595 20.8946 15.6705 20.7071C15.8815 20.5196 16 20.2652 16 20C16 19.7348 15.8815 19.4804 15.6705 19.2929C15.4595 19.1054 15.1734 19 14.875 19H8.125Z" fill="url(#paint2_linear_2491_12928)"/>
<defs>
<linearGradient id="paint0_linear_2491_12928" x1="4.27465" y1="5.62793" x2="20.2966" y2="8.48046" gradientUnits="userSpaceOnUse">
<stop stop-color="#B47E54"/>
<stop offset="0.563901" stop-color="#A816BF" stop-opacity="0.75"/>
<stop offset="1" stop-color="#0C0081" stop-opacity="0.78"/>
</linearGradient>
<linearGradient id="paint1_linear_2491_12928" x1="5.92058" y1="14.876" x2="16.3124" y2="18.8846" gradientUnits="userSpaceOnUse">
<stop stop-color="#B47E54"/>
<stop offset="0.563901" stop-color="#A816BF" stop-opacity="0.75"/>
<stop offset="1" stop-color="#0C0081" stop-opacity="0.78"/>
</linearGradient>
<linearGradient id="paint2_linear_2491_12928" x1="7.63733" y1="19.584" x2="14.7594" y2="22.437" gradientUnits="userSpaceOnUse">
<stop stop-color="#B47E54"/>
<stop offset="0.563901" stop-color="#A816BF" stop-opacity="0.75"/>
<stop offset="1" stop-color="#0C0081" stop-opacity="0.78"/>
</linearGradient>
</defs>
</svg>
