<svg width="24" height="24" viewBox="0 0 24 24" fill="none" xmlns="http://www.w3.org/2000/svg">
<g clip-path="url(#clip0_2491_12944)">
<path d="M12.1695 6.36816C10.5021 6.36816 9.14844 7.72564 9.14844 9.38927C9.14844 11.0567 10.5059 12.4104 12.1695 12.4104C13.837 12.4104 15.1906 11.0529 15.1906 9.38927C15.1944 7.72438 13.8382 6.36816 12.1695 6.36816ZM12.1695 11.3198C11.1043 11.3198 10.239 10.4545 10.239 9.38927C10.239 8.32402 11.1043 7.4587 12.1695 7.4587C13.2348 7.4587 14.1001 8.32406 14.1001 9.38927C14.1001 10.4545 13.236 11.3198 12.1695 11.3198Z" fill="url(#paint0_linear_2491_12944)"/>
<path d="M20.2265 4.56344C20.2201 4.55079 20.2138 4.53434 20.2075 4.52169C20.1974 4.50904 20.1885 4.49639 20.1784 4.48627C18.5236 1.79787 15.5567 0 12.1726 0C6.99456 0 2.78035 4.21421 2.78035 9.39227V10.5132L1.06992 13.5735C0.995274 13.7063 0.978828 13.8619 1.02817 14.0074C1.07371 14.1529 1.17745 14.2693 1.31661 14.3351L2.6703 14.9727L2.66903 18.3986C2.66903 18.4631 2.68168 18.5277 2.70446 18.5896C2.72091 18.6314 3.11561 19.6549 4.37188 20.0344C4.50851 20.0762 4.66665 20.0926 4.8539 20.0926C5.33591 20.0926 6.01021 19.9661 6.91984 19.7561V24.4522C6.91984 24.7533 7.16654 25 7.46764 25H15.8491C16.1502 25 16.3969 24.7533 16.3969 24.4522L16.3982 17.8838C17.1889 17.489 17.9264 16.9704 18.5944 16.3353C20.482 14.5375 21.5674 12.0048 21.5674 9.38856C21.5636 7.62624 21.0754 5.9752 20.2265 4.56344ZM4.68712 18.9845C4.11403 18.8124 3.85215 18.4304 3.76357 18.2747L3.76483 16.4555H5.29056C5.59166 16.4555 5.83835 16.2088 5.83835 15.9077C5.83835 15.6066 5.59165 15.3599 5.29056 15.3599H3.76483V14.6211C3.76483 14.4111 3.64211 14.2162 3.45108 14.1252L2.31374 13.5875L3.81038 10.9155C3.85593 10.8346 3.8787 10.7409 3.8787 10.6499V9.38728C3.8787 4.8113 7.59934 1.08937 12.1766 1.08937C14.9852 1.08937 17.4687 2.49112 18.9714 4.63284L16.8081 5.94478C15.7517 4.52911 14.0741 3.60938 12.1764 3.60938C8.98956 3.60938 6.39463 6.20414 6.39463 9.39113C6.39463 12.3933 8.69716 14.8678 11.6284 15.1437V16.1963C10.8377 16.4139 10.2393 17.0806 10.1191 17.903C9.35747 18.0484 8.53516 18.2458 7.72928 18.4406C6.59194 18.7164 5.03962 19.0884 4.68666 18.9847L4.68712 18.9845ZM13.157 18.1976C13.157 18.4177 13.0824 18.6151 12.9622 18.7808C12.7838 19.0237 12.4953 19.1818 12.1715 19.1818C11.8641 19.1818 11.5882 19.0363 11.4073 18.8124C11.2707 18.6442 11.1834 18.4304 11.1834 18.1976C11.1834 18.0255 11.2315 17.8636 11.3099 17.7219C11.4782 17.4208 11.7957 17.2133 12.1677 17.2133C12.5206 17.2133 12.8319 17.4043 13.0026 17.6827C13.1013 17.8357 13.157 18.0103 13.157 18.1976ZM12.1715 14.0782C9.58681 14.0782 7.48537 11.9769 7.48537 9.39214C7.48537 6.80748 9.58674 4.70604 12.1715 4.70604C14.7561 4.70604 16.8576 6.80742 16.8576 9.39214C16.8588 11.973 14.7562 14.0782 12.1715 14.0782ZM8.01295 19.4966C8.74798 19.3182 9.53236 19.131 10.251 18.9918C10.4939 19.5776 10.9961 20.0254 11.611 20.2C11.5654 21.0059 11.3453 22.71 10.38 23.908H8.00917L8.01043 19.4966L8.01295 19.4966ZM15.3039 23.9042H11.7061C12.4904 22.5467 12.6714 20.9792 12.7106 20.2023C13.4583 20.0012 14.0453 19.3926 14.2072 18.6285C14.5792 18.5576 14.946 18.4564 15.3053 18.3375L15.3039 23.9042ZM17.8392 15.5454C17.1751 16.1767 16.4337 16.6751 15.6405 17.0357H15.6367C15.1546 17.2533 14.6549 17.4178 14.14 17.5316C13.9199 16.8839 13.386 16.3791 12.7218 16.1969V15.1443C15.6531 14.8685 17.9556 12.3952 17.9556 9.39172C17.9556 8.49097 17.7418 7.64333 17.3723 6.88171L19.5357 5.56978C20.1316 6.71343 20.4719 8.01526 20.4719 9.39178C20.4732 11.7069 19.5105 13.9513 17.8392 15.5454Z" fill="url(#paint1_linear_2491_12944)"/>
<path d="M12.6192 2.36265C12.6192 3.23937 11.3047 3.23937 11.3047 2.36265C11.3047 1.48719 12.6192 1.48719 12.6192 2.36265Z" fill="url(#paint2_linear_2491_12944)"/>
<path d="M7.71417 4.56867C7.71417 5.44539 6.39844 5.44539 6.39844 4.56867C6.39844 3.69195 7.71417 3.69195 7.71417 4.56867Z" fill="url(#paint3_linear_2491_12944)"/>
</g>
<defs>
<linearGradient id="paint0_linear_2491_12944" x1="9.57631" y1="8.13244" x2="15.0814" y2="8.6225" gradientUnits="userSpaceOnUse">
<stop stop-color="#B47E54"/>
<stop offset="0.563901" stop-color="#A816BF" stop-opacity="0.75"/>
<stop offset="1" stop-color="#0C0081" stop-opacity="0.78"/>
</linearGradient>
<linearGradient id="paint1_linear_2491_12944" x1="2.45646" y1="7.2998" x2="21.2432" y2="8.67568" gradientUnits="userSpaceOnUse">
<stop stop-color="#B47E54"/>
<stop offset="0.563901" stop-color="#A816BF" stop-opacity="0.75"/>
<stop offset="1" stop-color="#0C0081" stop-opacity="0.78"/>
</linearGradient>
<linearGradient id="paint2_linear_2491_12944" x1="11.3978" y1="2.08977" x2="12.5954" y2="2.19641" gradientUnits="userSpaceOnUse">
<stop stop-color="#B47E54"/>
<stop offset="0.563901" stop-color="#A816BF" stop-opacity="0.75"/>
<stop offset="1" stop-color="#0C0081" stop-opacity="0.78"/>
</linearGradient>
<linearGradient id="paint3_linear_2491_12944" x1="6.49161" y1="4.29513" x2="7.69036" y2="4.40189" gradientUnits="userSpaceOnUse">
<stop stop-color="#B47E54"/>
<stop offset="0.563901" stop-color="#A816BF" stop-opacity="0.75"/>
<stop offset="1" stop-color="#0C0081" stop-opacity="0.78"/>
</linearGradient>
<clipPath id="clip0_2491_12944">
<rect width="24" height="24" fill="white"/>
</clipPath>
</defs>
</svg>
