<svg width="27" height="27" viewBox="0 0 27 27" fill="none" xmlns="http://www.w3.org/2000/svg">
<path d="M8.11877 12.2698C7.84637 11.7797 7.41892 11.3939 6.90351 11.1729C6.38811 10.952 5.81394 10.9085 5.27112 11.0492C4.7283 11.1899 4.24757 11.5069 3.90439 11.9503C3.56121 12.3938 3.375 12.9387 3.375 13.4995C3.375 14.0602 3.56121 14.6051 3.90439 15.0486C4.24757 15.4921 4.7283 15.809 5.27112 15.9497C5.81394 16.0904 6.38811 16.0469 6.90351 15.826C7.41892 15.6051 7.84637 15.2192 8.11877 14.7291M8.11877 12.2698C8.32127 12.6343 8.43715 13.0528 8.43715 13.4995C8.43715 13.9461 8.32127 14.3657 8.11877 14.7291M8.11877 12.2698L18.8805 6.29159M8.11877 14.7291L18.8805 20.7073M18.8805 6.29159C19.0383 6.58874 19.2538 6.85146 19.5143 7.06438C19.7748 7.27731 20.0751 7.43616 20.3977 7.53165C20.7203 7.62714 21.0587 7.65736 21.3932 7.62054C21.7276 7.58372 22.0513 7.4806 22.3454 7.31721C22.6395 7.15381 22.8981 6.93343 23.1061 6.66893C23.314 6.40443 23.4671 6.10114 23.5565 5.77677C23.6459 5.4524 23.6696 5.11348 23.6265 4.77981C23.5833 4.44614 23.4741 4.12442 23.3051 3.83346C22.9722 3.2601 22.4276 2.84024 21.7884 2.66415C21.1492 2.48806 20.4664 2.5698 19.8869 2.89179C19.3073 3.21377 18.8772 3.75031 18.689 4.38606C18.5008 5.0218 18.5696 5.70601 18.8805 6.29159ZM18.8805 20.7073C18.719 20.998 18.6164 21.3176 18.5785 21.648C18.5405 21.9783 18.568 22.3129 18.6593 22.6326C18.7507 22.9523 18.9041 23.2509 19.1109 23.5114C19.3176 23.7718 19.5737 23.9889 19.8643 24.1504C20.155 24.3119 20.4746 24.4145 20.805 24.4525C21.1353 24.4904 21.4699 24.4629 21.7896 24.3716C22.1093 24.2802 22.4079 24.1268 22.6684 23.92C22.9288 23.7133 23.1459 23.4573 23.3074 23.1666C23.6335 22.5796 23.7131 21.887 23.5286 21.2413C23.3441 20.5956 22.9106 20.0496 22.3236 19.7235C21.7365 19.3974 21.044 19.3179 20.3983 19.5024C19.7526 19.6869 19.2066 20.1203 18.8805 20.7073Z" stroke="#ADADAD" stroke-width="1.4" stroke-linecap="round" stroke-linejoin="round"/>
</svg>
