<svg width="105" height="38" viewBox="0 0 105 38" fill="none" xmlns="http://www.w3.org/2000/svg">
<mask id="path-1-inside-1_1680_4553" fill="white">
<path fill-rule="evenodd" clip-rule="evenodd" d="M3.75 0C2.09315 0 0.75 1.34315 0.75 3V35C0.75 36.6569 2.09315 38 3.75 38H95.2574C96.9142 38 98.2574 36.6569 98.2574 35V22.5585L104.435 19.4627C105.171 19.0939 105.171 18.0435 104.435 17.6747L98.2574 14.579V3C98.2574 1.34315 96.9142 0 95.2574 0H3.75Z"/>
</mask>
<path fill-rule="evenodd" clip-rule="evenodd" d="M3.75 0C2.09315 0 0.75 1.34315 0.75 3V35C0.75 36.6569 2.09315 38 3.75 38H95.2574C96.9142 38 98.2574 36.6569 98.2574 35V22.5585L104.435 19.4627C105.171 19.0939 105.171 18.0435 104.435 17.6747L98.2574 14.579V3C98.2574 1.34315 96.9142 0 95.2574 0H3.75Z" fill="#777E96" fill-opacity="0.04"/>
<path d="M98.2574 22.5585L98.0334 22.1115L97.7574 22.2498V22.5585H98.2574ZM104.435 19.4627L104.659 19.9097L104.435 19.4627ZM104.435 17.6747L104.659 17.2277L104.435 17.6747ZM98.2574 14.579H97.7574V14.8877L98.0334 15.026L98.2574 14.579ZM1.25 3C1.25 1.61929 2.36929 0.5 3.75 0.5V-0.5C1.817 -0.5 0.25 1.067 0.25 3H1.25ZM1.25 35V3H0.25V35H1.25ZM3.75 37.5C2.36929 37.5 1.25 36.3807 1.25 35H0.25C0.25 36.933 1.817 38.5 3.75 38.5V37.5ZM95.2574 37.5H3.75V38.5H95.2574V37.5ZM97.7574 35C97.7574 36.3807 96.6381 37.5 95.2574 37.5V38.5C97.1904 38.5 98.7574 36.933 98.7574 35H97.7574ZM97.7574 22.5585V35H98.7574V22.5585H97.7574ZM104.211 19.0157L98.0334 22.1115L98.4814 23.0055L104.659 19.9097L104.211 19.0157ZM104.211 18.1217C104.579 18.3061 104.579 18.8313 104.211 19.0157L104.659 19.9097C105.763 19.3565 105.763 17.7809 104.659 17.2277L104.211 18.1217ZM98.0334 15.026L104.211 18.1217L104.659 17.2277L98.4814 14.132L98.0334 15.026ZM97.7574 3V14.579H98.7574V3H97.7574ZM95.2574 0.5C96.6381 0.5 97.7574 1.61929 97.7574 3H98.7574C98.7574 1.067 97.1904 -0.5 95.2574 -0.5V0.5ZM3.75 0.5H95.2574V-0.5H3.75V0.5Z" fill="#05164D" fill-opacity="0.12" mask="url(#path-1-inside-1_1680_4553)"/>
</svg>
