<svg width="24" height="24" viewBox="0 0 24 24" fill="none" xmlns="http://www.w3.org/2000/svg">
<path fill-rule="evenodd" clip-rule="evenodd" d="M4.73278 7.64696C4.54407 7.57417 4.34797 7.5169 4.14587 7.47662C4.13104 7.47367 4.11617 7.4708 4.10126 7.46802C3.96625 7.44289 3.96625 7.24081 4.10126 7.21568C4.11617 7.2129 4.13104 7.21003 4.14587 7.20709C4.34797 7.1668 4.54407 7.10953 4.73278 7.03675C4.84571 6.99318 4.956 6.94407 5.06334 6.88969C5.80668 6.51321 6.40868 5.88509 6.76952 5.10949C6.82162 4.99749 6.86871 4.88242 6.91044 4.76458C6.9802 4.56768 7.03508 4.36307 7.0737 4.1522C7.07652 4.13672 7.07926 4.12121 7.08193 4.10566C7.10602 3.96478 7.29969 3.96478 7.32378 4.10566C7.32645 4.12121 7.32919 4.13672 7.33201 4.1522C7.37063 4.36307 7.42551 4.56768 7.49527 4.76458C7.53702 4.88242 7.58409 4.99749 7.63621 5.10949C7.99703 5.88509 8.59903 6.51321 9.34238 6.88969C9.44972 6.94407 9.56 6.99318 9.67293 7.03675C9.86164 7.10953 10.0577 7.1668 10.2598 7.20709C10.2747 7.21003 10.2895 7.2129 10.3044 7.21568C10.4395 7.24081 10.4395 7.44289 10.3044 7.46802C10.2895 7.4708 10.2747 7.47367 10.2598 7.47662C10.0577 7.5169 9.86164 7.57417 9.67293 7.64696C9.56 7.69052 9.44972 7.73963 9.34238 7.79401C8.59903 8.17049 7.99703 8.79861 7.63621 9.57422C7.58409 9.68622 7.53702 9.80129 7.49527 9.91912C7.42551 10.116 7.37063 10.3206 7.33201 10.5315C7.32919 10.547 7.32645 10.5625 7.32378 10.578C7.29969 10.7189 7.10602 10.7189 7.08193 10.578C7.07926 10.5625 7.07652 10.547 7.0737 10.5315C7.03508 10.3206 6.9802 10.116 6.91044 9.91912C6.86871 9.80129 6.82162 9.68622 6.76952 9.57422C6.40868 8.79861 5.80668 8.17049 5.06334 7.79401C4.956 7.73963 4.84572 7.69052 4.73278 7.64696ZM5.90887 7.34185C6.42427 7.69419 6.86517 8.15422 7.20286 8.69199C7.54054 8.15422 7.98144 7.69419 8.49686 7.34185C7.98144 6.98951 7.54054 6.52948 7.20286 5.99171C6.86517 6.52948 6.42427 6.98951 5.90887 7.34185ZM9.24445 12.6529C9.11246 12.6158 8.97865 12.5833 8.84314 12.5554C8.82196 12.5511 8.80075 12.5468 8.77951 12.5427L8.77306 12.5415L8.76435 12.5398C8.75094 12.5372 8.73622 12.5345 8.70678 12.529L8.6965 12.5271C8.48057 12.4845 8.48057 12.1618 8.6965 12.1192L8.70678 12.1173C8.73622 12.1118 8.75094 12.1091 8.76435 12.1065L8.77306 12.1049L8.77951 12.1036C8.80075 12.0995 8.82196 12.0952 8.84312 12.0909C8.97863 12.063 9.11246 12.0305 9.24445 11.9934C9.35718 11.9617 9.46858 11.9266 9.57854 11.8884C11.3576 11.2696 12.7576 9.80893 13.3506 7.95264C13.3873 7.83791 13.4208 7.72168 13.4512 7.60403C13.4868 7.46634 13.518 7.3267 13.5447 7.18531C13.5488 7.16323 13.5529 7.1411 13.5569 7.11894L13.5581 7.11221L13.5596 7.10312C13.5621 7.0893 13.5647 7.07413 13.5698 7.04409L13.57 7.04306L13.5718 7.03232C13.6127 6.80702 13.9219 6.80702 13.9627 7.03232L13.9646 7.04306C13.9698 7.07377 13.9725 7.08913 13.9749 7.10312L13.9765 7.11221L13.9777 7.11894C13.9817 7.1411 13.9857 7.16323 13.9899 7.18531C14.0166 7.32672 14.0478 7.46634 14.0833 7.60403C14.1137 7.72168 14.1473 7.83791 14.1839 7.95264C14.777 9.80893 16.1769 11.2696 17.956 11.8884C18.066 11.9266 18.1774 11.9617 18.2901 11.9934C18.4221 12.0305 18.5559 12.063 18.6914 12.0909C18.7126 12.0952 18.7338 12.0995 18.755 12.1036L18.7615 12.1049L18.7702 12.1065C18.7836 12.1091 18.7983 12.1118 18.8278 12.1173L18.8381 12.1192C19.054 12.1618 19.054 12.4845 18.8381 12.5271L18.8278 12.529L18.7966 12.5348L18.7702 12.5398L18.7615 12.5415L18.755 12.5427C18.7338 12.5468 18.7126 12.5511 18.6914 12.5554C18.5559 12.5833 18.4221 12.6158 18.2901 12.6529C18.1774 12.6846 18.066 12.7197 17.956 12.7579C16.1769 13.3767 14.777 14.8374 14.1839 16.6937C14.1473 16.8084 14.1137 16.9246 14.0833 17.0423C14.0478 17.18 14.0166 17.3196 13.9899 17.461C13.9857 17.4831 13.9817 17.5052 13.9777 17.5274L13.9765 17.5341L13.9749 17.5432L13.9714 17.5637L13.9648 17.6021L13.9627 17.614C13.9219 17.8393 13.6127 17.8393 13.5718 17.614L13.57 17.6033C13.5647 17.5726 13.5621 17.5572 13.5596 17.5432L13.5581 17.5341L13.5569 17.5274C13.5529 17.5052 13.5488 17.4831 13.5447 17.461C13.518 17.3196 13.4868 17.18 13.4512 17.0423C13.4208 16.9246 13.3873 16.8084 13.3506 16.6937C12.7576 14.8374 11.3576 13.3767 9.57854 12.7579C9.46858 12.7197 9.35718 12.6846 9.24445 12.6529ZM10.6576 12.3232C12.0104 13.0125 13.1066 14.1563 13.7673 15.5677C14.428 14.1563 15.5242 13.0125 16.8769 12.3232C15.5242 11.6338 14.428 10.49 13.7673 9.07856C13.1066 10.49 12.0104 11.6338 10.6576 12.3232ZM6.26675 16.9745C6.4937 17.0197 6.70867 17.0989 6.90672 17.2067C6.99482 17.2547 7.07956 17.3084 7.1605 17.3673C7.38606 17.5313 7.58218 17.736 7.73945 17.9713C7.79588 18.0558 7.84732 18.1442 7.89329 18.2361C7.99669 18.4428 8.07254 18.6671 8.11589 18.9039C8.11768 18.9137 8.11943 18.9234 8.1211 18.9333C8.13632 19.0222 8.25863 19.0222 8.27385 18.9333C8.27552 18.9234 8.27725 18.9137 8.27904 18.9039C8.32241 18.6671 8.39826 18.4428 8.50164 18.2361C8.54763 18.1442 8.59907 18.0558 8.6555 17.9713C8.81275 17.736 9.00889 17.5313 9.23444 17.3673C9.31538 17.3084 9.40013 17.2547 9.48821 17.2067C9.68628 17.0989 9.90125 17.0197 10.1282 16.9745C10.1376 16.9726 10.147 16.9708 10.1564 16.969C10.2416 16.9532 10.2416 16.8255 10.1564 16.8097C10.147 16.8079 10.1376 16.8061 10.1282 16.8042C9.90125 16.759 9.68628 16.6798 9.48821 16.572C9.40013 16.524 9.31538 16.4703 9.23444 16.4114C9.00889 16.2474 8.81275 16.0427 8.6555 15.8074C8.59907 15.7229 8.54763 15.6345 8.50164 15.5426C8.39826 15.336 8.32241 15.1116 8.27904 14.8748C8.27725 14.8651 8.27552 14.8553 8.27385 14.8454C8.25863 14.7565 8.13632 14.7565 8.1211 14.8454C8.11943 14.8553 8.11768 14.8651 8.11589 14.8748C8.07254 15.1116 7.99669 15.336 7.89329 15.5426C7.84732 15.6345 7.79588 15.7229 7.73945 15.8074C7.58218 16.0427 7.38606 16.2474 7.1605 16.4114C7.07956 16.4703 6.99482 16.524 6.90672 16.572C6.70867 16.6798 6.4937 16.759 6.26675 16.8042C6.25738 16.8061 6.24799 16.8079 6.23856 16.8097C6.1533 16.8255 6.1533 16.9532 6.23856 16.969C6.24799 16.9708 6.25738 16.9726 6.26675 16.9745ZM8.19746 17.2346C8.0956 17.1111 7.98498 16.9956 7.86658 16.8894C7.98498 16.7831 8.0956 16.6676 8.19746 16.5441C8.29935 16.6676 8.40997 16.7831 8.52835 16.8894C8.40997 16.9956 8.29935 17.1111 8.19746 17.2346Z" fill="#F89B53"/>
</svg>
