<svg width="662" height="375" viewBox="0 0 662 375" fill="none" xmlns="http://www.w3.org/2000/svg">
<g opacity="0.12">
<path d="M359.749 68.4859C353.956 73.0819 346.794 76.6142 338.07 79.1965C327.284 82.3897 315.772 83.6635 304.938 84.5657L105.291 101.178C65.9041 104.456 26.448 111.378 4.62685 139.592C-8.43156 156.476 -11.2209 176.866 -12.1916 192.743C-12.457 197.088 -12.6147 201.511 -12.7672 205.789C-13.2497 219.342 -13.7478 233.357 -17.7598 247.1C-20.5353 256.606 -25.2056 265.609 -31.2656 273.135C-34.5102 277.165 -38.1056 280.697 -41.9503 283.63C-46.0544 286.761 -50.4546 289.217 -55.0288 290.929L-55.0557 290.832C-34.8447 283.266 -22.5935 263.274 -17.8677 247.088C-13.8597 233.357 -13.3608 219.348 -12.8796 205.801C-12.7276 201.523 -12.5699 197.099 -12.304 192.753C-11.6467 182.004 -10.2971 173.277 -8.05612 165.289C-5.2507 155.293 -1.13204 146.87 4.53789 139.539C9.90206 132.603 16.7122 126.565 24.7782 121.591C31.9615 117.162 40.4179 113.411 49.9124 110.445C68.2146 104.725 88.181 102.499 105.297 101.074L304.944 84.4617C326.78 82.6447 351.301 79.2958 365.921 62.4535C376.904 49.801 379.797 31.8526 374.52 9.10595C371.152 -5.40712 366.005 -19.6832 361.025 -33.4892C356.297 -46.6005 351.408 -60.1591 348.088 -73.8232C344.366 -89.1426 343.049 -103.012 344.06 -116.225C344.877 -126.891 347.404 -137.791 351.574 -148.625C355.65 -159.212 361.214 -169.537 368.111 -179.315C375.01 -189.092 383.088 -198.106 392.126 -206.106C401.375 -214.292 411.452 -221.259 422.078 -226.812C432.703 -232.365 444.068 -236.603 455.855 -239.409C467.374 -242.15 479.08 -243.476 490.651 -243.349C502.221 -243.223 513.399 -241.645 523.876 -238.663C534.597 -235.61 544.376 -231.141 552.943 -225.378L552.868 -225.29C517.965 -248.775 465.422 -249.35 422.123 -226.724C413.751 -222.349 405.82 -217.156 398.46 -211.316C367.753 -186.956 346.857 -151.292 344.174 -116.235C341.923 -86.8079 351.689 -59.7257 361.135 -33.5362C366.115 -19.7285 371.263 -5.45075 374.632 9.06769C376.968 19.1379 377.718 28.36 376.859 36.4769C375.778 46.7009 372.126 55.4603 366.006 62.5107C364.128 64.6736 362.046 66.6642 359.749 68.4859Z" fill="url(#paint0_linear_1634_4215)"/>
<path d="M354.044 72.4689C348.7 76.7092 342.211 80.1227 334.429 82.8085C324.096 86.3743 313.121 88.1372 302.767 89.6384C297.584 90.3897 292.289 91.1885 287.17 91.9604C272.582 94.1612 257.496 96.4363 242.136 98.064C229.854 99.3587 216.675 100.306 201.845 100.961C187.976 101.587 174.247 101.933 161.478 102.213C143.01 102.612 124.853 102.898 107.295 103.176C97.1268 103.318 83.7197 103.722 70.1796 105.591C42.3061 109.539 22.4521 118.613 9.48419 133.333C4.18253 139.311 0.0164788 146.209 -3.2508 154.419C-6.4672 162.445 -8.70046 171.5 -10.2805 182.914C-10.9376 187.672 -11.4622 192.568 -11.9691 197.303C-12.8165 205.207 -13.6925 213.378 -15.2265 221.496C-16.2602 226.953 -17.4946 231.865 -19.0011 236.511C-22.0921 246.048 -26.8947 255.103 -32.8897 262.697C-36.1258 266.795 -39.6783 270.42 -43.4479 273.47C-47.4745 276.728 -51.7762 279.349 -56.229 281.257L-56.2758 281.121C-39.8002 274.061 -25.9228 257.376 -19.1542 236.489C-17.649 231.849 -16.4158 226.944 -15.3838 221.493C-13.8501 213.382 -12.974 205.212 -12.1275 197.312C-11.6201 192.575 -11.0951 187.678 -10.4381 182.917C-8.85657 171.49 -6.62078 162.425 -3.39934 154.387C-0.124384 146.156 4.05205 139.242 9.3681 133.248C13.0117 129.112 17.256 125.37 21.9851 122.125C26.3922 119.101 31.3573 116.415 36.7404 114.142C46.2486 110.128 57.1879 107.282 70.1836 105.441C83.7328 103.571 97.1479 103.167 107.32 103.025C124.879 102.747 143.035 102.46 161.502 102.062C174.271 101.781 187.998 101.436 201.865 100.81C216.691 100.155 229.867 99.2077 242.146 97.9141C257.501 96.2873 272.585 94.012 287.17 91.8117C292.29 91.0392 297.584 90.241 302.768 89.489C324.797 86.2961 347.446 81.8047 361.106 65.3909C371.777 52.5676 374.768 35.1722 370.251 12.2114C367.403 -2.28147 362.893 -16.5683 358.532 -30.3843C356.529 -36.7316 354.458 -43.2942 352.578 -49.7793C347.288 -68.0031 342.221 -89.7617 344.734 -112.968C345.454 -119.563 346.846 -126.268 348.87 -132.897C354.25 -150.545 364.129 -167.92 377.437 -183.14C390.811 -198.435 407.338 -211.191 425.23 -220.03C428.35 -221.573 431.577 -223.028 434.82 -224.353C454.951 -232.582 477.006 -236.476 498.602 -235.618C520.08 -234.763 539.932 -229.263 556.011 -219.709L555.91 -219.578C523.133 -239.054 475.619 -240.874 434.864 -224.217C431.625 -222.892 428.403 -221.439 425.287 -219.899C415.742 -215.184 406.674 -209.382 398.303 -202.741C374.999 -184.255 357.062 -159.243 349.023 -132.877C347.001 -126.256 345.612 -119.56 344.893 -112.975C342.383 -89.7925 347.448 -68.0487 352.733 -49.8375C354.612 -43.3532 356.683 -36.7914 358.688 -30.4448C363.05 -16.6263 367.56 -2.33637 370.41 12.1636C372.42 22.3848 372.926 31.3129 371.953 39.4588C370.739 49.6261 367.13 58.3777 361.228 65.4714C359.107 68.0176 356.719 70.3468 354.044 72.4689Z" fill="url(#paint1_linear_1634_4215)"/>
<path d="M348.208 76.6238C343.356 80.4725 337.584 83.7154 330.779 86.4295C320.702 90.4492 309.554 92.8154 300.598 94.7158C295.923 95.7082 291.131 96.7778 286.498 97.8125C272.025 101.045 257.059 104.387 241.247 106.416C228.972 107.98 215.336 108.807 200.717 108.877C186.727 108.97 173.441 108.488 161.168 107.953C143.35 107.163 126.038 106.154 109.295 105.178C99.5394 104.573 86.6961 103.993 73.8594 104.871C47.2326 106.692 27.7642 113.958 14.3382 127.083C8.89891 132.4 4.42663 138.643 0.666704 146.165C-3.04869 153.598 -6.00464 162.408 -8.36976 173.095C-9.56072 178.494 -10.5339 183.883 -11.5638 189.589C-12.8207 196.55 -14.1207 203.746 -15.8496 210.953C-17.1679 216.436 -18.6045 221.334 -20.2442 225.929C-23.6559 235.507 -28.5903 244.613 -34.5143 252.264C-41.2656 260.982 -48.9751 267.484 -57.4272 271.589L-57.4986 271.419C-41.7166 263.753 -27.8633 246.735 -20.4417 225.895C-18.8057 221.307 -17.3704 216.415 -16.0542 210.94C-14.3261 203.739 -13.0276 196.545 -11.771 189.588C-10.7407 183.88 -9.76703 178.489 -8.57474 173.086C-6.20533 162.382 -3.24399 153.557 0.479727 146.106C4.25168 138.56 8.7387 132.297 14.1983 126.959C27.6697 113.79 47.1909 106.5 73.8781 104.675C86.7283 103.796 99.5802 104.377 109.343 104.982C126.084 105.958 143.396 106.967 161.213 107.757C173.483 108.291 186.766 108.773 200.752 108.68C215.362 108.61 228.99 107.783 241.255 106.22C257.056 104.193 272.016 100.852 286.485 97.6211C291.118 96.5859 295.911 95.5163 300.587 94.524C319.267 90.5594 342.514 85.6239 356.288 68.3349C366.498 55.5183 369.669 38.1775 365.98 15.3215C363.652 0.847041 359.78 -13.4505 356.034 -27.2768C354.31 -33.6433 352.526 -40.2278 350.921 -46.7312C346.386 -65.0345 342.184 -86.8298 345.406 -109.707C346.342 -116.262 347.941 -122.878 350.161 -129.371C353.126 -138.067 357.21 -146.671 362.3 -154.945C367.307 -163.083 373.275 -170.884 380.039 -178.128C393.666 -192.722 410.382 -204.866 428.384 -213.245C431.502 -214.701 434.727 -216.073 437.967 -217.322C457.917 -225.014 479.902 -228.716 501.547 -228.032C522.789 -227.359 542.683 -222.522 559.078 -214.04L558.955 -213.865C525.373 -231.231 477.903 -232.518 438.012 -217.139C434.779 -215.891 431.56 -214.522 428.446 -213.07C391.57 -195.904 362.377 -164.602 350.353 -129.337C348.138 -122.858 346.541 -116.255 345.608 -109.711C342.39 -86.8646 346.588 -65.0895 351.12 -46.8017C352.725 -40.2991 354.508 -33.7169 356.233 -27.3504C359.978 -13.5195 363.853 0.78217 366.182 15.2643C369.88 38.1768 366.694 55.5689 356.444 68.4361C354.061 71.4285 351.324 74.1504 348.208 76.6238Z" fill="url(#paint2_linear_1634_4215)"/>
<path d="M342.184 81.0139C329.815 90.827 313.969 95.351 299.617 99.4491L298.433 99.7873C294.242 100.985 289.937 102.283 285.773 103.537C271.448 107.853 256.635 112.316 240.359 114.764C227.92 116.618 214.201 117.299 199.584 116.789C185.455 116.334 172.076 114.967 160.853 113.69C142.888 111.626 125.716 109.239 111.287 107.176C101.254 105.742 89.3968 104.26 77.5303 104.147C52.0631 103.906 32.978 109.363 19.184 120.834C13.5814 125.492 8.80331 131.078 4.57799 137.912C0.300873 144.828 -3.31085 153.125 -6.46468 163.278C-8.41708 169.588 -10.0546 176.024 -11.7885 182.838C-13.2427 188.556 -14.7464 194.467 -16.4785 200.41C-18.094 205.942 -19.7337 210.827 -21.4921 215.346C-25.2321 224.977 -30.2983 234.134 -36.1439 241.828C-42.8729 250.684 -50.4377 257.443 -58.6283 261.918L-58.7309 261.714C-43.4272 253.354 -29.9424 236.435 -21.7341 215.298C-19.9793 210.786 -18.3419 205.908 -16.7286 200.384C-14.9978 194.445 -13.4946 188.535 -12.0402 182.82C-10.3065 176.003 -8.66858 169.563 -6.71344 163.247C-3.55302 153.072 0.0688833 144.754 4.35823 137.818C8.60147 130.956 13.4001 125.346 19.029 120.666C26.4438 114.498 35.6232 109.983 46.3053 107.246C55.5112 104.887 65.739 103.795 77.5733 103.907C89.4554 104.02 101.323 105.503 111.365 106.938C125.792 109 142.963 111.387 160.923 113.451C172.14 114.727 185.512 116.094 199.633 116.549C214.234 117.059 227.936 116.378 240.357 114.526C256.613 112.081 271.415 107.622 285.73 103.309C289.895 102.054 294.202 100.757 298.394 99.5579L299.577 99.2197C317.909 93.9857 338.687 88.0521 351.462 71.2781C361.217 58.4689 364.567 41.1813 361.701 18.4284C359.891 3.97458 356.655 -10.333 353.525 -24.1697C352.081 -30.5575 350.586 -37.1631 349.255 -43.6862C346.78 -55.7372 345.327 -65.5673 344.684 -74.6226C343.873 -86.0287 344.326 -96.4389 346.07 -106.448C347.222 -112.964 349.029 -119.49 351.442 -125.844C354.669 -134.372 359.001 -142.764 364.319 -150.786C369.533 -158.651 375.694 -166.165 382.633 -173.115C389.53 -180.025 397.18 -186.365 405.373 -191.962C413.636 -197.607 422.436 -202.484 431.53 -206.459C434.65 -207.827 437.871 -209.116 441.105 -210.288C460.851 -217.441 482.766 -220.951 504.482 -220.442C525.447 -219.95 545.382 -215.775 562.133 -208.368L561.994 -208.147C526.961 -223.638 480.662 -224.372 441.164 -210.066C437.936 -208.894 434.721 -207.609 431.609 -206.244C418.85 -200.667 406.943 -193.452 396.292 -185.002C375.946 -168.862 360.166 -148.21 351.687 -125.799C349.279 -119.458 347.476 -112.948 346.327 -106.447C342.408 -83.9555 345.738 -62.1402 349.511 -43.7673C350.842 -37.2464 352.336 -30.6417 353.781 -24.2553C356.911 -10.4141 360.15 3.89907 361.96 18.3621C363.25 28.6016 363.307 37.4552 362.134 45.4285C360.656 55.4794 357.134 64.2154 351.667 71.3943C348.853 75.0891 345.654 78.2601 342.184 81.0139Z" fill="url(#paint3_linear_1634_4215)"/>
<path d="M335.925 85.6923C332.65 88.291 328.984 90.6899 324.891 92.9219C316.569 97.46 307.707 100.689 299.138 103.811C298.177 104.161 297.22 104.51 296.272 104.857C292.544 106.225 288.88 107.637 285.001 109.133C270.856 114.588 256.229 120.228 239.47 123.112C226.866 125.261 213.064 125.796 198.449 124.701C184.229 123.684 171.302 121.463 160.534 119.425C143.675 116.21 127.857 112.597 113.276 109.172C103.711 106.926 92.4216 104.486 81.1964 103.422C56.8991 101.121 38.1977 104.772 24.023 114.586C18.2338 118.594 13.1505 123.525 8.4836 129.661C3.62277 136.053 -0.645164 143.838 -4.56329 153.462C-7.616 160.989 -10.1987 168.907 -12.9319 177.289C-14.268 181.383 -15.6484 185.617 -17.1081 189.867C-19.0715 195.569 -20.8604 200.302 -22.7404 204.761C-26.8204 214.463 -32.0179 223.67 -37.7718 231.388C-44.4819 240.389 -51.9025 247.404 -59.8259 252.241L-59.9635 252.008C-40.0127 239.829 -28.2562 217.136 -23.024 204.694C-21.1473 200.24 -19.3605 195.515 -17.4 189.82C-15.9411 185.573 -14.5602 181.339 -13.2251 177.246C-10.4895 168.858 -7.90508 160.935 -4.84777 153.398C-0.919231 143.747 3.3627 135.936 8.24362 129.519C12.9339 123.352 18.0447 118.395 23.8677 114.364C31.4637 109.105 40.6216 105.55 51.0886 103.8C60.0124 102.307 70.1682 102.084 81.2761 103.135C92.519 104.2 103.822 106.643 113.394 108.891C127.974 112.316 143.787 115.928 160.641 119.141C171.401 121.178 184.317 123.396 198.522 124.413C213.111 125.505 226.886 124.972 239.463 122.828C256.188 119.951 270.797 114.317 284.925 108.869C288.806 107.373 292.472 105.959 296.202 104.591C297.151 104.243 298.106 103.894 299.069 103.544C315.811 97.4435 334.786 90.5289 346.641 74.2201C359.039 57.166 358.735 35.9822 357.428 21.5313C356.136 7.09802 353.535 -7.21988 351.021 -21.066C349.857 -27.4752 348.652 -34.1024 347.596 -40.646C345.623 -52.7504 344.562 -62.5786 344.257 -71.577C343.871 -82.9766 344.684 -93.3184 346.742 -103.193C348.112 -109.669 350.128 -116.106 352.733 -122.324C356.219 -130.682 360.799 -138.86 366.346 -146.633C371.765 -154.225 378.121 -161.45 385.235 -168.107C392.271 -174.691 400.051 -180.72 408.358 -186.027C416.689 -191.349 425.546 -195.942 434.682 -199.677C437.801 -200.957 441.02 -202.163 444.249 -203.259C454.229 -206.641 464.805 -209.171 475.686 -210.782C486.092 -212.322 496.77 -213.02 507.422 -212.858C528.046 -212.542 548.022 -209.031 565.19 -202.703L565.039 -202.433C528.885 -215.76 482.625 -215.975 444.311 -202.992C441.089 -201.898 437.877 -200.695 434.766 -199.417C420.374 -193.533 406.991 -185.643 395.194 -176.283C376.32 -161.31 361.491 -142.576 353.016 -122.259C350.419 -116.059 348.409 -109.64 347.043 -103.183C342.433 -81.0634 344.89 -59.2009 347.9 -40.7321C348.956 -34.1908 350.159 -27.5652 351.324 -21.1575C353.84 -7.30579 356.442 7.01753 357.735 21.4622C358.662 31.711 358.495 40.5272 357.225 48.4124C356.457 53.1808 355.261 57.6882 353.673 61.8104C351.925 66.3447 349.642 70.5642 346.888 74.3535C343.861 78.5178 340.231 82.2765 335.925 85.6923Z" fill="url(#paint4_linear_1634_4215)"/>
<path d="M329.284 90.8311C327.003 92.6396 324.545 94.3738 321.893 96.0462C314.281 100.846 306.162 104.499 298.311 108.033C296.929 108.654 295.499 109.298 294.117 109.928C290.834 111.426 287.607 112.965 284.189 114.597C270.255 121.247 255.845 128.123 238.583 131.464C225.992 133.877 211.72 134.277 197.313 132.617C182.933 131.015 169.932 127.792 160.212 125.163C145.211 121.078 131.393 116.615 115.261 111.17C105.707 107.946 95.4118 104.688 84.8598 102.7C62.0663 98.4064 43.225 100.306 28.8586 108.346C22.8547 111.707 17.4667 115.983 12.3869 121.421C6.92142 127.271 1.99977 134.544 -2.66023 143.657C-7.28831 152.739 -11.2001 162.704 -15.3409 173.253C-16.12 175.238 -16.9259 177.291 -17.7347 179.332C-19.3314 183.354 -21.4852 188.676 -23.9855 194.185C-28.485 204.123 -33.6706 213.13 -39.3966 220.955C-46.0942 230.107 -53.3681 237.379 -61.0184 242.57L-61.1965 242.311C-51.2812 235.583 -36.8336 221.757 -24.3118 194.097C-21.8152 188.596 -19.6638 183.279 -18.0683 179.262C-17.2595 177.22 -16.4541 175.168 -15.675 173.184C-11.5306 162.625 -7.61559 152.652 -2.97865 143.554C1.69951 134.407 6.64255 127.104 12.134 121.226C17.2451 115.754 22.6681 111.45 28.7124 108.068C36.4847 103.719 45.6226 101.127 55.8733 100.365C64.6508 99.7133 74.4442 100.388 84.9806 102.374C95.5519 104.365 105.86 107.627 115.425 110.855C131.552 116.297 145.364 120.759 160.357 124.842C170.065 127.468 183.05 130.688 197.407 132.286C211.778 133.942 226.009 133.545 238.563 131.138C255.772 127.808 270.156 120.943 284.066 114.305C287.486 112.674 290.714 111.132 294.001 109.634C295.384 109.004 296.814 108.36 298.197 107.737C313.481 100.858 330.803 93.0634 341.814 77.1687C353.623 60.1219 353.939 39.0247 353.15 24.6392C352.375 10.2257 350.408 -4.10327 348.506 -17.9601C347.623 -24.3897 346.711 -31.0384 345.931 -37.6C344.442 -49.9338 343.793 -59.4717 343.824 -68.5257C343.864 -79.9209 345.036 -90.1941 347.407 -99.9332C348.997 -106.368 351.221 -112.715 354.016 -118.797C357.761 -126.985 362.59 -134.951 368.368 -142.474C373.99 -149.793 380.539 -156.73 387.831 -163.093C395.005 -169.352 402.914 -175.07 411.34 -180.086C419.735 -185.086 428.648 -189.393 437.831 -192.887C440.949 -194.081 444.165 -195.202 447.39 -196.223C457.307 -199.351 467.854 -201.704 478.736 -203.218C489.032 -204.65 499.672 -205.339 510.356 -205.264C530.54 -205.123 550.556 -202.275 568.24 -197.028L568.085 -196.708C529.982 -208.015 484.886 -207.715 447.455 -195.908C444.238 -194.891 441.03 -193.771 437.919 -192.582C399.609 -177.999 369.146 -151.074 354.342 -118.709C351.556 -112.647 349.34 -106.322 347.754 -99.9093C342.465 -78.1807 344.044 -56.2625 346.286 -37.6868C347.065 -31.1268 347.977 -24.4797 348.861 -18.0515C350.764 -4.18926 352.732 10.146 353.507 24.5709C354.07 34.8294 353.679 43.6061 352.312 51.4039C350.547 61.476 347.207 69.9522 342.106 77.3173C338.673 82.2736 334.439 86.7407 329.284 90.8311Z" fill="url(#paint5_linear_1634_4215)"/>
<path d="M322.048 96.6529C320.985 97.4958 319.886 98.3283 318.749 99.1516C311.79 104.189 304.365 108.228 297.183 112.134C295.46 113.071 293.679 114.04 291.968 114.99C289.117 116.573 286.313 118.191 283.345 119.906C269.65 127.814 255.489 135.991 237.699 139.809C225.023 142.504 210.665 142.753 196.178 140.526C184.788 138.776 173.597 135.804 159.889 130.892C144.156 125.222 129.628 118.766 117.245 113.159C106.771 108.418 97.8788 104.7 88.5208 101.97C66.9063 95.6621 48.4582 95.7068 33.6885 102.102C27.4414 104.807 21.7482 108.43 16.2846 113.178C10.2048 118.461 4.62946 125.223 -0.761235 133.849C-7.05715 143.96 -12.458 155.656 -18.3639 168.793C-20.4882 173.508 -22.7692 178.535 -25.2313 183.602C-30.1203 193.682 -35.4328 202.737 -41.0212 210.514C-47.7127 219.828 -54.8419 227.356 -62.2077 232.889L-62.4291 232.609C-48.8482 222.41 -36.4564 205.885 -25.5963 183.494C-23.135 178.432 -20.8564 173.408 -18.734 168.696C-12.8216 155.546 -7.41382 143.835 -1.10381 133.7C4.3118 125.033 9.91791 118.237 16.0341 112.922C21.537 108.14 27.2723 104.49 33.568 101.764C48.4381 95.3256 66.9855 95.2723 88.6945 101.608C98.0729 104.345 106.979 108.068 117.466 112.815C129.843 118.419 144.365 124.872 160.085 130.538C173.769 135.441 184.94 138.407 196.303 140.153C210.742 142.372 225.047 142.126 237.67 139.442C255.384 135.641 269.511 127.482 283.173 119.594C286.143 117.879 288.947 116.259 291.803 114.675C293.517 113.724 295.299 112.754 297.023 111.817C310.964 104.233 326.767 95.6376 336.995 80.1144C348.222 63.0758 349.156 42.0635 348.881 27.7413C348.621 13.3474 347.288 -0.990525 345.998 -14.8557C345.398 -21.3072 344.778 -27.9788 344.274 -34.5607C343.301 -46.9681 343.031 -56.505 343.4 -65.4816C343.868 -76.8723 345.399 -87.0784 348.082 -96.681C349.894 -103.073 352.327 -109.33 355.311 -115.279C359.313 -123.296 364.39 -131.049 370.402 -138.323C376.225 -145.369 382.967 -152.018 390.44 -158.087C397.749 -164.022 405.786 -169.426 414.332 -174.154C422.787 -178.829 431.756 -182.851 440.99 -186.107C444.105 -187.212 447.319 -188.25 450.541 -189.194C469.726 -194.795 490.841 -197.649 513.298 -197.679C532.865 -197.705 552.92 -195.52 571.293 -191.363L571.141 -190.995C530.639 -200.161 486.704 -199.374 450.604 -188.835C447.391 -187.895 444.187 -186.859 441.078 -185.756C402.39 -172.117 371.26 -146.389 355.674 -115.167C352.701 -109.242 350.278 -103.01 348.473 -96.6429C342.533 -75.3811 343.138 -54.2821 344.678 -34.6492C345.181 -28.0689 345.801 -21.3996 346.401 -14.949C347.691 -1.07694 349.026 13.2672 349.284 27.6732C349.483 38.0828 348.886 46.5724 347.404 54.3883C345.504 64.3989 342.21 72.8653 337.329 80.2718C333.39 86.251 328.368 91.6384 322.048 96.6529Z" fill="url(#paint6_linear_1634_4215)"/>
<path d="M313.694 103.697C307.862 108.325 301.734 112.296 295.79 116.148C293.723 117.488 291.771 118.752 289.82 120.051C287.39 121.668 285.002 123.311 282.474 125.049C275.878 129.587 269.056 134.279 261.587 138.381C253.128 143.027 245.024 146.224 236.815 148.156C230.156 149.711 223.013 150.488 215.583 150.467C208.778 150.448 201.866 149.764 195.038 148.437C183.778 146.247 172.505 142.493 159.561 136.624C144.713 129.854 131.492 122.303 119.223 115.149C111.242 110.495 101.911 105.199 92.1747 101.239C72.0362 93.0507 53.4783 91.1909 38.5063 95.8612C31.9965 97.8923 25.9987 100.863 20.1712 104.941C13.5673 109.563 7.16115 115.991 1.13131 124.047C-6.72927 134.583 -13.4542 147.253 -18.9951 158.257C-19.6078 159.472 -20.2221 160.693 -20.8403 161.921C-22.6578 165.536 -24.537 169.274 -26.4812 173.022C-38.4241 196.108 -50.4992 212.524 -63.3978 223.209L-63.6682 222.911C-50.827 212.274 -38.7959 195.913 -26.8846 172.89C-24.9417 169.144 -23.063 165.407 -21.2469 161.795C-20.6298 160.567 -20.0149 159.345 -19.4018 158.131C-13.8501 147.107 -7.11259 134.413 0.771776 123.844C6.83688 115.742 13.2861 109.273 19.9379 104.617C25.8133 100.505 31.8609 97.5104 38.4274 95.4609C46.5435 92.9286 55.6365 92.2664 65.453 93.4937C73.9531 94.5552 83.0223 97.0294 92.409 100.847C102.168 104.816 111.513 110.119 119.505 114.78C131.766 121.93 144.978 129.476 159.809 136.237C172.724 142.094 183.968 145.839 195.196 148.023C205.249 149.977 220.621 151.517 236.772 147.748C255.018 143.453 268.859 133.932 282.244 124.724C284.773 122.984 287.163 121.34 289.597 119.72C291.551 118.42 293.504 117.154 295.572 115.814C308.893 107.18 322.667 98.2518 332.17 83.0612C342.704 66.2203 344.349 46.3073 344.606 30.8402C344.862 16.4673 344.161 2.11875 343.482 -11.7565C343.166 -18.2296 342.838 -24.9233 342.613 -31.5252C341.893 -51.4066 342.139 -72.6662 348.753 -93.4313C350.755 -99.7167 353.395 -105.885 356.601 -111.762C360.859 -119.608 366.186 -127.148 372.431 -134.173C378.453 -140.946 385.389 -147.307 393.044 -153.082C400.483 -158.692 408.651 -163.786 417.321 -168.221C425.832 -172.575 434.856 -176.31 444.145 -179.324C447.258 -180.342 450.469 -181.297 453.688 -182.164C472.473 -187.204 493.517 -189.873 516.236 -190.093C535.094 -190.275 554.643 -188.796 574.339 -185.696L574.196 -185.277C548.931 -189.254 499.687 -194.086 453.747 -181.757C450.538 -180.894 447.335 -179.94 444.231 -178.926C423.965 -172.35 405.657 -162.59 390.455 -150.53C376.319 -139.315 364.867 -126.115 357.001 -111.622C353.809 -105.77 351.18 -99.6305 349.188 -93.3727C342.594 -72.6699 342.35 -51.4518 343.068 -31.6062C343.294 -25.0066 343.62 -18.3144 343.937 -11.8428C344.616 2.03928 345.318 16.3933 345.062 30.779C344.804 46.3007 343.15 66.2901 332.555 83.2277C328.276 90.0675 322.691 96.2904 315.481 102.251C314.889 102.741 314.292 103.222 313.694 103.697Z" fill="url(#paint7_linear_1634_4215)"/>
<path d="M301.965 114.795C297.274 118.516 292.449 121.908 287.658 125.12C283.404 127.973 279.321 131.139 275 134.491C263.631 143.307 251.875 152.424 235.932 156.503C223.089 159.763 208.161 159.708 193.898 156.346C182.619 153.688 171.603 149.241 159.233 142.35C145.21 134.501 133.241 125.943 121.202 117.133C113.341 111.381 104.907 105.359 95.8291 100.504C82.6058 93.4317 62.7627 85.8026 43.3222 89.6175C36.5379 90.9481 30.2361 93.2665 24.0551 96.703C16.845 100.713 9.76833 106.614 3.02211 114.246C-4.35109 122.614 -11.5477 133.251 -19.6271 147.722C-21.3538 150.809 -23.0335 153.877 -24.8111 157.125C-25.7622 158.863 -26.7451 160.658 -27.7284 162.443C-36.7034 178.771 -49.0037 199.332 -64.5842 213.525L-64.9051 213.215C-49.3896 199.082 -37.1232 178.573 -28.1687 162.284C-27.1853 160.5 -26.2025 158.704 -25.2523 156.967C-23.4733 153.717 -21.7927 150.648 -20.0655 147.56C-11.9665 133.052 -4.74711 122.384 2.65489 113.983C9.44768 106.298 16.5798 100.351 23.8519 96.3077C30.089 92.8392 36.4498 90.4996 43.2961 89.1567C62.886 85.3133 82.8394 92.9783 96.1293 100.086C105.231 104.953 113.678 110.985 121.549 116.745C133.579 125.548 145.536 134.099 159.54 141.936C171.875 148.807 182.855 153.24 194.093 155.889C208.277 159.232 223.115 159.289 235.875 156.05C251.694 152.002 263.398 142.925 274.716 134.148C279.047 130.789 283.137 127.617 287.409 124.752C302.044 114.937 317.011 103.45 327.347 86.0057C337.321 69.1719 339.527 49.3355 340.334 33.9352C341.105 19.5818 341.035 5.22411 340.966 -8.66136C340.934 -15.156 340.902 -21.8716 340.955 -28.4936C341.005 -37.0117 341.231 -48.2239 342.529 -59.4058C343.854 -70.81 346.11 -80.8783 349.426 -90.1853C351.65 -96.4254 354.5 -102.504 357.895 -108.249C366.802 -123.397 379.506 -136.798 395.655 -148.081C403.222 -153.368 411.518 -158.148 420.315 -162.291C428.875 -166.322 437.956 -169.772 447.304 -172.545C450.415 -173.475 453.623 -174.348 456.838 -175.136C466.501 -177.501 476.952 -179.322 487.904 -180.551C497.716 -181.652 508.236 -182.31 519.174 -182.508C536.585 -182.824 555.081 -182.036 577.383 -180.031L577.256 -179.563C545.733 -182.398 498.958 -184.977 456.89 -174.683C453.685 -173.896 450.487 -173.027 447.385 -172.099C407.228 -160.188 375.6 -137.452 358.328 -108.077C354.949 -102.359 352.115 -96.3132 349.901 -90.1038C342.683 -69.8508 341.578 -48.5584 341.457 -28.5651C341.403 -21.9448 341.436 -15.2307 341.468 -8.73755C341.537 5.15397 341.607 19.5186 340.836 33.8841C340.29 44.3129 339.257 52.7256 337.586 60.3604C335.422 70.2477 332.213 78.6932 327.778 86.1799C320.772 98.0076 311.659 107.104 301.965 114.795Z" fill="url(#paint8_linear_1634_4215)"/>
<path d="M264.483 149.198C263.195 150.22 261.882 151.221 260.537 152.198C252.142 158.294 243.806 162.433 235.049 164.851C222.029 168.421 207.009 168.21 192.757 164.258C181.463 161.126 170.705 155.985 158.902 148.076C145.673 139.176 134.455 129.298 123.177 119.115C115.506 112.189 107.921 105.497 99.4788 99.7657C87.077 91.3463 68.1009 81.6677 48.13 83.3726C41.0755 83.975 34.4682 85.6417 27.9309 88.4665C20.1222 91.8414 12.3747 97.2198 4.90706 104.45C-3.54687 112.659 -11.7788 123.368 -20.2609 137.192C-23.1032 141.816 -25.8902 146.574 -28.9784 151.868C-34.1413 160.737 -39.7636 170.187 -45.8969 179.198C-52.7471 189.262 -59.2484 197.323 -65.7706 203.842L-66.1447 203.523C-51.7763 189.166 -39.6722 169.235 -29.4532 151.68C-26.3632 146.382 -23.5733 141.621 -20.7287 136.991C-12.2189 123.122 -3.95299 112.371 4.54007 104.123C12.0687 96.8342 19.8832 91.4107 27.7686 88.0032C34.3721 85.149 41.0448 83.4667 48.168 82.8579C56.625 82.1361 65.6648 83.4053 75.0343 86.6302C83.2476 89.4572 91.5966 93.7303 99.8474 99.3321C108.312 105.078 115.909 111.781 123.591 118.717C134.857 128.889 146.063 138.756 159.268 147.641C171.029 155.521 181.743 160.643 192.987 163.761C207.145 167.686 222.056 167.899 234.973 164.357C254.388 158.997 267.573 146.491 280.324 134.397C281.919 132.884 283.569 131.319 285.177 129.823C287.399 127.756 289.643 125.742 292.018 123.609C302.99 113.759 314.335 103.574 322.519 88.9578C331.886 72.2278 334.62 53.3217 336.059 37.0349C337.342 22.7016 337.901 8.33512 338.443 -5.55829C338.696 -12.0752 338.959 -18.8149 339.292 -25.4573C339.732 -34.585 340.41 -45.3943 342.1 -56.364C343.859 -67.769 346.474 -77.7688 350.097 -86.9346C352.546 -93.1305 355.604 -99.1189 359.186 -104.732C368.557 -119.487 381.706 -132.387 398.263 -143.075C405.953 -148.039 414.378 -152.507 423.307 -156.356C431.912 -160.066 441.047 -163.23 450.46 -165.76C453.567 -166.603 456.772 -167.391 459.986 -168.104C476.828 -171.825 495.732 -174.011 517.783 -174.785C536.995 -175.46 556.034 -174.975 572.833 -174.548C575.4 -174.482 577.931 -174.418 580.419 -174.359L580.317 -173.845C577.829 -173.905 575.299 -173.969 572.731 -174.034C539.331 -174.884 497.766 -175.942 460.029 -167.604C456.826 -166.894 453.63 -166.107 450.533 -165.267C409.862 -154.336 377.586 -132.764 359.649 -104.525C356.088 -98.9429 353.048 -92.9896 350.612 -86.8286C342.4 -66.0495 340.747 -44.2855 339.844 -25.5177C339.511 -18.8767 339.248 -12.1393 338.994 -5.62325C338.453 8.2762 337.894 22.6495 336.609 36.9941C335.687 47.4314 334.437 55.8061 332.674 63.3496C330.379 73.1735 327.214 81.6082 323 89.1342C314.765 103.842 303.378 114.065 292.366 123.95C289.993 126.081 287.752 128.093 285.534 130.156C283.928 131.649 282.279 133.213 280.685 134.726C275.556 139.595 270.282 144.598 264.483 149.198Z" fill="url(#paint9_linear_1634_4215)"/>
<path d="M258.547 160.164C250.68 166.405 242.688 170.675 234.169 173.198C227.352 175.203 220.026 176.079 212.392 175.804C205.411 175.551 198.226 174.294 191.614 172.167C180.362 168.6 169.863 162.763 158.571 153.8C146.084 143.851 136.049 133.101 125.154 121.095C118.009 113.22 110.947 105.607 103.13 99.0254C91.5435 89.2707 73.4304 77.5537 52.936 77.125C45.6259 76.9723 38.7129 77.987 31.8041 80.228C23.4046 82.9521 14.9882 87.8061 6.78937 94.6541C-2.65418 102.563 -11.9694 113.332 -20.8953 126.663C-24.4063 131.897 -27.727 137.232 -30.228 141.293C-30.8829 142.359 -31.5401 143.431 -32.2016 144.508C-42.8664 161.891 -53.8949 179.867 -66.9566 194.157L-67.3869 193.834C-54.3709 179.594 -43.3603 161.646 -32.7124 144.291C-32.0514 143.213 -31.3938 142.142 -30.7394 141.076C-28.2351 137.008 -24.9101 131.667 -21.393 126.423C-12.4293 113.037 -3.06887 102.217 6.42719 94.2642C14.7005 87.3545 23.199 82.4548 31.6884 79.7012C38.6713 77.4363 45.6563 76.4097 53.042 76.5646C61.6705 76.7451 70.6813 78.9786 79.8244 83.2042C87.8818 86.928 95.8705 92.1024 103.568 98.5826C111.407 105.182 118.48 112.808 125.635 120.694C136.517 132.687 146.539 143.422 158.999 153.349C170.243 162.274 180.693 168.084 191.884 171.632C205.76 176.093 221.137 176.47 234.072 172.665C254.138 166.725 267.524 151.93 279.335 138.877C280.528 137.559 281.762 136.194 282.964 134.882C285.237 132.401 287.541 129.982 289.98 127.419C299.878 117.023 310.113 106.273 317.693 91.9092C326.519 75.1847 329.769 56.3491 331.786 40.131C333.583 25.8192 334.771 11.444 335.919 -2.45768C336.459 -8.9981 337.018 -15.7611 337.632 -22.4255C339.344 -41.3879 341.913 -63.3253 350.771 -83.6875C353.448 -89.8396 356.715 -95.7379 360.481 -101.219C370.312 -115.584 383.903 -127.985 400.876 -138.072C416.261 -147.217 434.007 -154.25 453.622 -158.978C456.727 -159.733 459.929 -160.438 463.139 -161.074C493.238 -167.007 525.636 -167.529 554.22 -167.988C564.48 -168.153 574.17 -168.31 583.455 -168.689L583.386 -168.128C574.093 -167.747 564.399 -167.592 554.136 -167.427C525.579 -166.968 493.212 -166.446 463.172 -160.525C459.971 -159.891 456.78 -159.188 453.684 -158.435C412.456 -148.497 379.531 -128.089 360.974 -100.972C357.232 -95.5252 353.985 -89.6634 351.326 -83.5495C342.502 -63.2681 339.941 -41.3851 338.234 -22.4655C337.619 -15.8034 337.061 -9.04193 336.521 -2.50296C335.372 11.404 334.183 25.7858 332.386 40.1082C330.363 56.3787 327.099 75.2787 318.228 92.0904C310.605 106.537 300.335 117.324 290.405 127.754C287.968 130.314 285.666 132.731 283.397 135.208C282.196 136.518 280.963 137.881 279.772 139.199C273.69 145.921 267.401 152.872 260.052 158.949C259.55 159.359 259.048 159.766 258.547 160.164Z" fill="url(#paint10_linear_1634_4215)"/>
<path d="M254.222 170.208C247.572 175.484 240.672 179.216 233.286 181.547C220.058 185.7 204.453 185.165 190.468 180.079C184.358 177.881 178.583 174.959 172.814 171.141C167.951 167.925 163.183 164.125 158.236 159.523C146.479 148.553 137.191 136.524 127.127 123.072C120.267 113.903 114.001 105.709 106.777 98.283C91.5438 82.6224 74.1274 72.8887 57.7376 70.876C50.1902 69.949 42.9727 70.3135 35.6714 71.9902C26.6908 74.0524 17.6046 78.3828 8.66598 84.8612C-1.84516 92.4968 -12.0056 103.02 -21.5329 116.136C-24.6318 120.396 -27.7926 125.031 -31.4798 130.721C-33.9572 134.549 -36.4864 138.542 -38.9341 142.403C-48.1206 156.898 -57.6196 171.886 -68.141 184.471L-68.6293 184.148C-58.14 171.601 -48.6536 156.634 -39.4809 142.159C-37.0333 138.296 -34.5016 134.302 -32.0233 130.471C-28.3291 124.77 -25.1612 120.126 -22.0531 115.853C-12.4774 102.67 -2.25797 92.0895 8.32155 84.4043C17.3486 77.862 26.5321 73.4878 35.615 71.4021C42.9981 69.707 50.295 69.3376 57.922 70.2748C66.7253 71.3565 75.7072 74.5543 84.6167 79.7805C92.507 84.4074 100.135 90.4832 107.29 97.8385C114.534 105.285 120.81 113.493 127.681 122.675C137.731 136.108 147.004 148.119 158.732 159.062C169.399 168.983 179.585 175.48 190.784 179.508C204.64 184.548 220.09 185.082 233.172 180.975C253.944 174.419 266.895 157.763 278.321 143.068C279.136 142.019 279.946 140.978 280.752 139.948C283.035 137.033 285.352 134.185 287.806 131.172C296.683 120.269 305.863 108.993 312.868 94.8651C321.136 78.1911 324.795 60.1934 327.516 43.228C329.824 28.9353 331.639 14.549 333.396 0.63685C334.224 -5.924 335.079 -12.7086 335.976 -19.3919C338.498 -38.4477 341.981 -60.4525 351.449 -80.4386C354.393 -86.5976 357.869 -92.4064 361.781 -97.7035C372.064 -111.684 386.099 -123.582 403.493 -133.066C418.995 -141.519 436.926 -147.955 456.787 -152.193C459.885 -152.861 463.084 -153.482 466.295 -154.041C490.727 -158.273 516.05 -159.282 540.54 -160.256C556.76 -160.902 572.08 -161.512 586.49 -163.014L586.459 -162.411C572.028 -160.906 556.696 -160.297 540.464 -159.65C515.997 -158.675 490.698 -157.669 466.313 -153.444C463.112 -152.888 459.924 -152.268 456.834 -151.602C427.244 -145.287 386.825 -130.761 362.298 -97.4166C358.414 -92.1564 354.962 -86.3872 352.038 -80.2692C342.612 -60.3706 339.138 -38.4224 336.622 -19.413C335.726 -12.7311 334.87 -5.94824 334.042 0.611979C332.286 14.5287 330.47 28.9202 328.16 43.2234C327.016 50.3591 325.379 59.7763 322.857 69.3342C320.3 79.0313 317.223 87.4409 313.454 95.044C306.413 109.245 297.207 120.552 288.303 131.487C285.852 134.498 283.535 137.344 281.257 140.254C280.452 141.282 279.642 142.323 278.828 143.371C272.958 150.92 266.888 158.726 259.593 165.567C257.816 167.228 256.029 168.775 254.222 170.208Z" fill="url(#paint11_linear_1634_4215)"/>
<path d="M250.712 179.834C245.385 184.06 239.368 187.561 232.407 189.893C225.492 192.2 218.041 193.14 210.261 192.689C203.116 192.275 195.875 190.648 189.322 187.986C178.195 183.505 167.917 176.065 157.903 165.242C145.949 152.288 136.999 137.815 129.103 125.046C122.59 114.513 117.078 105.799 110.427 97.5358C96.3232 80.0134 79.3158 68.3247 62.5394 64.6221C54.7762 62.9089 47.2528 62.623 39.5389 63.7474C29.9858 65.1397 20.2293 68.9478 10.5413 75.0654C-0.843265 82.2685 -12.1554 92.8296 -22.1716 105.609C-25.5551 109.92 -29.0098 114.677 -32.7317 120.147C-37.1845 126.7 -41.629 133.637 -45.9273 140.344C-53.4177 152.033 -61.1622 164.12 -69.3247 174.782L-69.8723 174.461C-61.7303 163.826 -53.9942 151.754 -46.5134 140.078C-42.2127 133.366 -37.7654 126.425 -33.306 119.864C-29.5722 114.377 -26.1079 109.607 -22.713 105.281C-17.8104 99.0253 -12.6006 93.2875 -7.22867 88.2263C-1.5572 82.8827 4.31137 78.2797 10.2157 74.5432C20.0062 68.3619 29.8728 64.5122 39.5405 63.1024C47.345 61.9645 54.9527 62.2528 62.7988 63.9858C71.778 65.9681 80.7303 70.1292 89.4069 76.3547C97.118 81.8878 104.387 88.8657 111.01 97.0936C117.679 105.38 123.199 114.108 129.723 124.656C137.607 137.406 146.544 151.856 158.462 164.773C168.42 175.536 178.633 182.931 189.681 187.381C203.517 193.002 219.039 193.696 232.267 189.282C253.809 182.065 266.271 163.394 277.265 146.92C277.691 146.282 278.115 145.646 278.538 145.014C280.795 141.64 283.085 138.344 285.51 134.855C293.412 123.482 301.585 111.723 308.041 97.8187C315.782 81.1489 319.923 63.2161 323.244 46.3205C326.062 32.0497 328.504 17.6567 330.865 3.73753C331.982 -2.84813 333.136 -9.65788 334.316 -16.3644C337.822 -36.4728 342.085 -57.7344 352.123 -77.1951C355.297 -83.3024 358.982 -89.0219 363.076 -94.1926C373.807 -107.792 388.285 -119.189 406.108 -128.065C421.708 -135.835 439.822 -141.67 459.948 -145.412C463.042 -145.992 466.238 -146.531 469.446 -147.011C489.339 -149.981 509.963 -151.059 529.908 -152.1C550.983 -153.201 570.889 -154.242 589.515 -157.341L589.529 -156.699C570.86 -153.593 550.933 -152.551 529.836 -151.448C509.908 -150.408 489.303 -149.331 469.446 -146.366C466.248 -145.887 463.061 -145.35 459.976 -144.771C429.936 -139.188 388.834 -125.824 363.614 -93.8615C359.551 -88.7288 355.894 -83.0531 352.743 -76.9893C342.753 -57.6201 338.502 -36.417 335.005 -16.3592C333.825 -9.65414 332.67 -2.84601 331.554 3.73902C329.192 17.6619 326.75 32.0593 323.929 46.3398C320.6 63.2776 316.447 81.2576 308.675 97.9966C302.19 111.96 293.999 123.749 286.078 135.148C283.655 138.634 281.366 141.928 279.114 145.296C278.691 145.927 278.268 146.563 277.842 147.201C270.306 158.491 262.081 170.813 250.712 179.834Z" fill="url(#paint12_linear_1634_4215)"/>
<path d="M247.79 189.149C242.706 193.182 237.317 196.189 231.527 198.238C224.564 200.697 217.05 201.67 209.197 201.131C201.969 200.634 194.7 198.823 188.176 195.892C177.042 190.923 167.031 182.766 157.571 170.957C146.354 156.926 138.239 141.036 131.081 127.015C126.193 117.442 120.651 106.592 114.079 96.7845C101.091 77.4062 84.4928 63.7609 67.3432 58.3632C59.3842 55.8578 51.5547 54.9215 43.4073 55.5003C33.2893 56.2189 22.8625 59.5049 12.4157 65.2666C0.0337111 72.1067 -12.1471 82.4158 -22.8092 95.0792C-26.4906 99.4474 -30.1451 104.188 -33.9826 109.572C-40.6217 118.896 -46.9807 128.913 -53.1298 138.601C-58.7608 147.472 -64.5832 156.645 -70.5064 165.087L-71.1127 164.773C-65.2008 156.348 -59.3831 147.183 -53.7578 138.32C-47.6026 128.623 -41.2385 118.597 -34.5851 109.253C-30.7338 103.85 -27.0644 99.0915 -23.3682 94.7053C-12.6347 81.9586 -0.364847 71.5759 12.1165 64.68C22.6784 58.8546 33.2271 55.5322 43.4707 54.8042C51.7155 54.2181 59.6347 55.165 67.6809 57.6967C76.8369 60.5789 85.7607 65.7029 94.2017 72.928C101.725 79.3662 108.633 87.2469 114.733 96.3493C121.324 106.184 126.873 117.05 131.769 126.637C138.915 140.633 147.017 156.497 158.197 170.484C167.599 182.22 177.539 190.321 188.585 195.252C202.195 201.368 218.189 202.24 231.368 197.589C253.751 189.663 265.652 168.798 276.153 150.39L276.329 150.081C278.529 146.224 280.858 142.282 283.109 138.468C290.079 126.667 297.286 114.462 303.217 100.772C310.437 84.1055 315.058 66.2359 318.975 49.4097C322.304 35.1586 325.371 20.7564 328.336 6.82866C329.743 0.220457 331.198 -6.61268 332.662 -13.3394C337.052 -33.6333 342.224 -55.0296 352.803 -73.9539C356.207 -80.0082 360.101 -85.6367 364.378 -90.6847C375.552 -103.909 390.474 -114.803 408.729 -123.064C424.406 -130.159 442.703 -135.397 463.115 -138.63C466.201 -139.124 469.394 -139.579 472.604 -139.981C488.688 -141.996 505.325 -142.936 521.412 -143.845C546.543 -145.265 570.28 -146.606 592.545 -151.667L592.609 -150.99C570.276 -145.913 546.505 -144.569 521.339 -143.148C505.265 -142.24 488.643 -141.301 472.587 -139.29C469.387 -138.888 466.204 -138.434 463.126 -137.943C418.741 -130.912 385.705 -114.886 364.938 -90.3092C360.697 -85.3033 356.834 -79.7188 353.456 -73.7123C342.93 -54.8827 337.774 -33.5474 333.395 -13.3083C331.932 -6.58163 330.477 0.250046 329.069 6.85743C326.102 20.7888 323.036 35.194 319.706 49.4518C315.78 66.3119 311.149 84.2198 303.905 100.941C297.954 114.676 290.734 126.903 283.752 138.726C281.502 142.537 279.175 146.478 276.977 150.329L276.801 150.638C271.452 160.017 265.919 169.715 258.766 178.299C255.252 182.514 251.606 186.122 247.79 189.149Z" fill="url(#paint13_linear_1634_4215)"/>
<path d="M245.223 198.3C240.686 201.899 235.851 204.643 230.648 206.583C223.634 209.193 216.058 210.199 208.13 209.572C200.82 208.994 193.523 206.998 187.028 203.798C175.891 198.336 166.145 189.463 157.236 176.671C146.896 161.802 139.877 145.156 133.089 129.059L133.058 128.984C128.038 116.971 123.42 106.199 117.729 96.0326C105.843 74.7991 89.6543 59.1987 72.1449 52.1028C64.0811 48.8351 55.7128 47.2032 47.2728 47.2524C36.6356 47.2755 25.5365 50.0406 14.2857 55.4692C0.924862 61.9234 -12.1245 71.9804 -23.4518 84.5526C-27.4146 88.9488 -31.2708 93.6741 -35.2384 98.9987C-44.3115 111.184 -52.5084 124.498 -60.4362 137.374C-64.1122 143.344 -67.9128 149.518 -71.6926 155.394L-72.3599 155.09C-68.5848 149.221 -64.786 143.052 -61.1135 137.085C-53.1768 124.192 -44.9691 110.861 -35.8707 98.6435C-31.8849 93.2952 -28.012 88.5483 -24.0291 84.1295C-12.6177 71.4634 0.536111 61.3284 14.0119 54.8188C25.3926 49.3275 36.6238 46.5311 47.3939 46.5078C55.9348 46.4585 64.4001 48.108 72.5536 51.4121C81.8895 55.1946 90.7822 61.2819 98.9876 69.5044C106.314 76.8459 112.861 85.6294 118.448 95.6095C124.153 105.804 128.779 116.592 133.805 128.622L133.837 128.696C140.613 144.766 147.62 161.382 157.925 176.199C166.774 188.905 176.443 197.712 187.482 203.126C201.07 209.819 217.135 210.854 230.459 205.896C253.729 197.217 265.511 172.903 274.114 155.151C276.229 150.784 278.453 146.323 280.602 142.01C286.677 129.816 292.96 117.208 298.386 103.727C305.428 86.2328 310.5 68.1109 314.703 52.4981C318.541 38.2674 322.23 23.8573 325.8 9.92166C327.498 3.29047 329.254 -3.56685 331.003 -10.3158C336.513 -31.6477 342.378 -52.3196 353.48 -70.7149C357.115 -76.7135 361.218 -82.252 365.677 -87.1781C371.697 -93.8412 378.77 -99.8902 386.702 -105.157C394.063 -110.046 402.355 -114.388 411.349 -118.066C427.081 -124.498 445.563 -129.136 466.28 -131.85C469.355 -132.257 472.544 -132.628 475.76 -132.955C488.562 -134.249 501.754 -134.965 514.513 -135.658C541.829 -137.141 570.074 -138.675 595.567 -145.993L595.685 -145.284C584.199 -141.987 571.186 -139.576 555.9 -137.911C542.275 -136.428 528.121 -135.659 514.432 -134.916C501.683 -134.223 488.5 -133.508 475.719 -132.216C472.514 -131.89 469.333 -131.519 466.266 -131.115C421.155 -125.204 387.507 -110.279 366.252 -86.756C361.833 -81.8737 357.765 -76.3828 354.161 -70.4342C343.119 -52.1381 337.272 -31.5286 331.778 -10.2563C330.028 -3.50821 328.273 3.34848 326.575 9.97965C323.005 23.9176 319.314 38.3312 315.475 52.5649C311.267 68.1999 306.186 86.3487 299.129 103.884C293.691 117.396 287.401 130.02 281.318 142.228C279.17 146.539 276.948 150.998 274.834 155.36C269.705 165.946 264.541 176.19 257.788 185.165C253.848 190.403 249.68 194.765 245.223 198.3Z" fill="url(#paint14_linear_1634_4215)"/>
<path d="M242.934 207.321C238.848 210.563 234.476 213.085 229.775 214.926C222.81 217.65 214.958 218.718 207.069 218.011C199.676 217.35 192.351 215.168 185.886 211.701C174.749 205.744 165.271 196.152 156.909 182.382C147.179 166.345 141.026 148.403 135.077 131.052L135.042 130.949C131.438 120.386 126.953 107.24 121.387 95.2752C110.503 72.1063 94.7238 54.5493 76.9554 45.8386C68.7819 41.7989 60.0982 39.4981 51.145 38.9997C39.935 38.3566 28.1647 40.6002 16.1614 45.6675C1.83819 51.7182 -12.0798 61.5232 -24.089 74.0233C-28.3253 78.4318 -32.3808 83.1418 -36.4873 88.4233C-48.2472 103.553 -58.1063 120.439 -67.6405 136.769C-69.3542 139.704 -71.127 142.739 -72.8705 145.696L-73.5972 145.404C-71.8552 142.449 -70.0833 139.415 -68.3701 136.481C-58.82 120.124 -48.9454 103.211 -37.1459 88.03C-33.0179 82.7214 -28.9404 77.9852 -24.679 73.5509C-18.8135 67.4456 -12.4286 61.9249 -5.69979 57.1404C1.31891 52.1505 8.5921 48.0509 15.9187 44.9556C28.0626 39.829 39.9749 37.5606 51.3267 38.2107C60.3885 38.7144 69.1731 41.0409 77.4363 45.1254C86.9424 49.7851 95.8045 56.8341 103.777 66.0733C110.866 74.2898 117.055 83.9771 122.17 94.8651C127.752 106.861 132.243 120.026 135.851 130.602L135.886 130.705C141.825 148.024 147.966 165.932 157.661 181.911C165.962 195.582 175.36 205.095 186.389 210.997C199.954 218.27 216.093 219.468 229.559 214.2C251.831 205.48 262.693 182.751 271.909 160.218C273.915 155.313 275.995 150.312 278.007 145.476C283.227 132.931 288.623 119.958 293.563 106.68C300.072 89.1889 305.686 71.133 310.437 55.5809C314.782 41.374 319.094 26.9574 323.264 13.0166C325.255 6.35948 327.314 -0.524819 329.351 -7.29875C332.356 -17.3107 335.622 -27.9406 339.576 -38.1629C343.988 -49.5681 348.76 -59.1574 354.164 -67.4807C358.029 -73.4209 362.342 -78.8707 366.983 -83.6765C373.253 -90.174 380.576 -96.0096 388.752 -101.021C396.299 -105.648 404.785 -109.701 413.975 -113.071C429.965 -118.934 448.111 -122.859 469.451 -125.074C472.519 -125.393 475.705 -125.682 478.921 -125.93C488.846 -126.694 499.037 -127.171 508.891 -127.632C539.024 -129.043 570.185 -130.503 598.591 -140.319L598.769 -139.583C585.963 -135.158 571.5 -132.04 554.555 -130.05C539.467 -128.279 523.875 -127.549 508.798 -126.843C498.95 -126.381 488.766 -125.905 478.855 -125.142C475.646 -124.895 472.469 -124.608 469.409 -124.289C422.899 -119.463 389.587 -106.025 367.568 -83.2031C362.971 -78.4429 358.698 -73.0438 354.867 -67.1557C343.33 -49.386 336.852 -29.4914 330.162 -7.20305C328.126 -0.430605 326.066 6.45366 324.075 13.1108C319.905 27.0531 315.592 41.4703 311.246 55.6801C306.491 71.2432 300.871 89.3143 294.356 106.827C289.41 120.12 284.01 133.101 278.788 145.654C276.776 150.49 274.697 155.489 272.692 160.391C268.554 170.507 263.565 182.139 256.7 192.168C252.48 198.341 247.919 203.367 242.934 207.321Z" fill="url(#paint15_linear_1634_4215)"/>
<path d="M240.841 216.254C237.133 219.195 233.163 221.526 228.893 223.276C221.878 226.152 213.961 227.252 205.998 226.459C198.523 225.715 191.17 223.347 184.732 219.612C178.825 216.184 173.332 211.538 168.408 205.802C164.151 200.842 160.169 194.887 156.572 188.102C147.451 170.896 142.165 151.661 137.053 133.059C133.534 120.254 129.895 107.013 125.035 94.5294C118.185 76.9367 97.6482 35.5048 55.0058 30.7584C28.9711 27.8592 -0.840628 40.102 -24.7385 63.5061C-46.2478 84.5705 -60.3865 110.719 -74.0583 136.007L-74.8449 135.731C-68.38 123.775 -61.0536 110.223 -52.9324 97.6226C-43.9782 83.7284 -34.9515 72.3977 -25.3374 62.9818C-14.1966 52.0717 -1.2292 43.2185 12.1615 37.3803C19.2806 34.2763 26.455 32.0578 33.4862 30.7854C40.9359 29.4375 48.2574 29.1484 55.2482 29.9273C63.7012 30.8679 71.8506 33.3496 79.4721 37.3017C86.5073 40.9495 93.1769 45.8942 99.2973 51.9949C110.18 62.8445 119.373 77.4173 125.884 94.1377C130.757 106.654 134.4 119.912 137.924 132.734C143.027 151.301 148.302 170.5 157.389 187.639C165.146 202.271 174.272 212.491 185.289 218.882C198.628 226.622 215.243 228.014 228.651 222.519C250.603 213.521 261.352 189.701 269.698 165.302L327.695 -4.26624C332.676 -18.8272 337.295 -31.9047 343.405 -44.4824C350.524 -59.1375 358.663 -70.8077 368.286 -80.1587C375.329 -87.0036 383.601 -93.011 392.871 -98.0125C401.309 -102.565 410.836 -106.424 421.187 -109.484C438.362 -114.559 458.278 -117.635 482.079 -118.888C489.46 -119.278 497.011 -119.541 504.313 -119.795C536.874 -120.932 570.544 -122.108 601.611 -134.627L601.85 -133.868C587.836 -128.22 572.081 -124.379 553.685 -122.124C537.317 -120.117 520.484 -119.529 504.205 -118.961C496.907 -118.706 489.359 -118.443 481.987 -118.055C451.211 -116.435 407.974 -111.298 376.601 -86.4098C373.936 -84.2958 371.361 -82.0426 368.881 -79.6333C347.141 -58.5069 337.261 -29.6197 328.543 -4.13274L270.545 165.435C266.869 176.185 262.22 188.6 255.615 199.178C251.195 206.259 246.305 211.92 240.841 216.254Z" fill="url(#paint16_linear_1634_4215)"/>
</g>
<defs>
<linearGradient id="paint0_linear_1634_4215" x1="-90.7787" y1="236.41" x2="571.132" y2="-197.645" gradientUnits="userSpaceOnUse">
<stop stop-color="#ED298D"/>
<stop offset="1" stop-color="#2C2C2D"/>
</linearGradient>
<linearGradient id="paint1_linear_1634_4215" x1="-85.2024" y1="237.074" x2="572.658" y2="-194.325" gradientUnits="userSpaceOnUse">
<stop stop-color="#ED298D"/>
<stop offset="1" stop-color="#2C2C2D"/>
</linearGradient>
<linearGradient id="paint2_linear_1634_4215" x1="-79.6399" y1="237.723" x2="574.166" y2="-191.019" gradientUnits="userSpaceOnUse">
<stop stop-color="#ED298D"/>
<stop offset="1" stop-color="#2C2C2D"/>
</linearGradient>
<linearGradient id="paint3_linear_1634_4215" x1="-74.0824" y1="238.349" x2="575.666" y2="-187.731" gradientUnits="userSpaceOnUse">
<stop stop-color="#ED298D"/>
<stop offset="1" stop-color="#2C2C2D"/>
</linearGradient>
<linearGradient id="paint4_linear_1634_4215" x1="-68.5287" y1="238.969" x2="577.158" y2="-184.447" gradientUnits="userSpaceOnUse">
<stop stop-color="#ED298D"/>
<stop offset="1" stop-color="#2C2C2D"/>
</linearGradient>
<linearGradient id="paint5_linear_1634_4215" x1="-62.972" y1="239.603" x2="578.654" y2="-181.151" gradientUnits="userSpaceOnUse">
<stop stop-color="#ED298D"/>
<stop offset="1" stop-color="#2C2C2D"/>
</linearGradient>
<linearGradient id="paint6_linear_1634_4215" x1="-57.3961" y1="240.282" x2="580.179" y2="-177.816" gradientUnits="userSpaceOnUse">
<stop stop-color="#ED298D"/>
<stop offset="1" stop-color="#2C2C2D"/>
</linearGradient>
<linearGradient id="paint7_linear_1634_4215" x1="-51.6485" y1="241.239" x2="581.877" y2="-174.202" gradientUnits="userSpaceOnUse">
<stop stop-color="#ED298D"/>
<stop offset="1" stop-color="#2C2C2D"/>
</linearGradient>
<linearGradient id="paint8_linear_1634_4215" x1="-45.193" y1="243.277" x2="584.281" y2="-169.509" gradientUnits="userSpaceOnUse">
<stop stop-color="#ED298D"/>
<stop offset="1" stop-color="#2C2C2D"/>
</linearGradient>
<linearGradient id="paint9_linear_1634_4215" x1="-41.3898" y1="241.276" x2="584.032" y2="-168.852" gradientUnits="userSpaceOnUse">
<stop stop-color="#ED298D"/>
<stop offset="1" stop-color="#2C2C2D"/>
</linearGradient>
<linearGradient id="paint10_linear_1634_4215" x1="-37.9091" y1="238.783" x2="583.46" y2="-168.687" gradientUnits="userSpaceOnUse">
<stop stop-color="#ED298D"/>
<stop offset="1" stop-color="#2C2C2D"/>
</linearGradient>
<linearGradient id="paint11_linear_1634_4215" x1="-34.5276" y1="236.15" x2="582.786" y2="-168.661" gradientUnits="userSpaceOnUse">
<stop stop-color="#ED298D"/>
<stop offset="1" stop-color="#2C2C2D"/>
</linearGradient>
<linearGradient id="paint12_linear_1634_4215" x1="-31.2348" y1="233.379" x2="582.022" y2="-168.772" gradientUnits="userSpaceOnUse">
<stop stop-color="#ED298D"/>
<stop offset="1" stop-color="#2C2C2D"/>
</linearGradient>
<linearGradient id="paint13_linear_1634_4215" x1="-28.0243" y1="230.487" x2="581.175" y2="-169.003" gradientUnits="userSpaceOnUse">
<stop stop-color="#ED298D"/>
<stop offset="1" stop-color="#2C2C2D"/>
</linearGradient>
<linearGradient id="paint14_linear_1634_4215" x1="-24.8846" y1="227.484" x2="580.254" y2="-169.343" gradientUnits="userSpaceOnUse">
<stop stop-color="#ED298D"/>
<stop offset="1" stop-color="#2C2C2D"/>
</linearGradient>
<linearGradient id="paint15_linear_1634_4215" x1="-21.8035" y1="224.392" x2="579.274" y2="-169.772" gradientUnits="userSpaceOnUse">
<stop stop-color="#ED298D"/>
<stop offset="1" stop-color="#2C2C2D"/>
</linearGradient>
<linearGradient id="paint16_linear_1634_4215" x1="-18.7821" y1="221.225" x2="578.233" y2="-170.274" gradientUnits="userSpaceOnUse">
<stop stop-color="#ED298D"/>
<stop offset="1" stop-color="#2C2C2D"/>
</linearGradient>
</defs>
</svg>
