<svg width="263" height="981" viewBox="0 0 263 981" fill="none" xmlns="http://www.w3.org/2000/svg">
<g opacity="0.12">
<path d="M220.745 431.838C221.468 442.002 220.556 452.95 217.998 464.99C214.837 479.878 209.668 494.163 204.555 507.382L110.323 750.979C91.7322 799.036 76.1669 849.916 88.0536 896.403C95.1673 924.222 110.792 942.792 123.61 955.862C127.117 959.438 130.749 962.949 134.262 966.344C145.391 977.1 156.9 988.222 166.276 1003.21C172.761 1013.57 177.796 1025.75 180.838 1038.43C182.466 1045.22 183.486 1052.03 183.867 1058.69C184.275 1065.8 183.954 1072.74 182.914 1079.32L182.819 1079.28C187.412 1050.19 177.25 1020.97 166.207 1003.32C156.84 988.351 145.336 977.233 134.212 966.483C130.698 963.088 127.066 959.577 123.557 956C114.88 947.151 108.276 939.023 102.778 930.419C95.8969 919.65 91.0498 908.545 87.9614 896.466C85.0391 885.039 83.6547 872.612 83.8456 859.533C84.016 847.886 85.447 835.275 88.0991 822.053C93.2108 796.565 102.16 771.777 110.238 750.893L204.471 507.297C214.778 480.653 225.252 449.75 219.02 420.154C214.339 397.921 200.822 381.069 178.845 370.062C164.822 363.041 150.035 358.258 135.733 353.634C122.151 349.242 108.106 344.7 94.8235 338.262C79.9317 331.043 67.5614 322.133 57.0048 311.021C48.4831 302.051 40.6916 290.923 33.8467 277.945C27.1579 265.262 21.4953 251.052 17.0155 235.712C12.5366 220.37 9.339 204.237 7.51366 187.756C5.64582 170.891 5.25139 153.984 6.34283 137.507C7.43428 121.029 10.0316 104.685 14.0616 88.9307C18 73.5355 23.2298 58.9872 29.6065 45.6894C35.9831 32.3915 43.3666 20.6393 51.5509 10.7557C59.9259 0.64307 68.9823 -7.314 78.4684 -12.894L78.5017 -12.7422C39.8491 9.98956 10.8908 70.3772 6.44135 137.521C5.58146 150.503 5.64748 163.591 6.56699 176.505C10.3991 230.377 29.0483 281.399 57.0582 310.882C80.5696 335.629 108.623 344.701 135.753 353.472C150.056 358.096 164.846 362.879 178.873 369.904C188.603 374.777 196.76 380.847 203.116 387.948C211.123 396.893 216.506 407.71 219.115 420.099C219.914 423.9 220.459 427.809 220.745 431.838Z" fill="url(#paint0_linear_1634_4250)"/>
<path d="M221.006 441.435C221.674 450.811 221.026 460.891 219.066 471.921C216.463 486.564 211.997 500.594 207.647 513.709C205.47 520.274 203.272 527.004 201.146 533.51C195.09 552.052 188.827 571.226 181.871 590.23C176.303 605.421 169.957 621.389 162.471 639.048C155.481 655.573 148.332 671.725 141.647 686.717C131.974 708.394 122.375 729.626 113.092 750.159C107.702 762.036 100.775 777.859 95.0083 794.939C83.2205 830.173 80.0879 859.983 85.4308 886.068C87.5819 896.703 91.1215 906.716 96.2515 916.675C101.254 926.437 107.653 935.835 116.39 946.252C120.033 950.592 123.863 954.883 127.568 959.033C133.751 965.96 140.144 973.123 146.135 981.006C150.161 986.308 153.62 991.433 156.709 996.673C163.049 1007.43 168.057 1019.8 171.19 1032.45C172.881 1039.28 174.002 1046.12 174.522 1052.78C175.079 1059.89 174.95 1066.84 174.14 1073.43L174.001 1073.38C176.996 1049 170.494 1020.38 156.608 996.833C153.524 991.6 150.07 986.482 146.047 981.186C140.062 973.308 133.67 966.147 127.489 959.223C123.783 955.072 119.952 950.779 116.307 946.437C107.561 936.008 101.153 926.599 96.1441 916.823C91.0011 906.839 87.4535 896.803 85.2964 886.139C83.7957 878.81 82.9503 871.081 82.7861 863.166C82.6328 855.789 83.066 848.021 84.0731 840.079C85.8525 826.053 89.3887 811.249 94.8846 794.821C100.655 777.73 107.586 761.898 112.979 750.016C122.262 729.483 131.86 708.251 141.533 686.575C148.217 671.583 155.366 655.434 162.355 638.911C169.839 621.257 176.183 605.292 181.75 590.106C188.704 571.108 194.967 551.936 201.022 533.398C203.147 526.89 205.345 520.161 207.523 513.595C216.777 485.694 225.277 456.097 218.885 427.935C213.89 405.935 200.892 389.384 179.146 377.338C165.423 369.73 150.971 364.2 136.997 358.853C130.577 356.396 123.938 353.856 117.47 351.152C99.2869 343.564 78.2539 333.058 60.1121 312.689C54.96 306.893 50.0787 300.237 45.6041 292.907C33.6876 273.4 24.4395 248.893 18.86 222.037C13.2531 195.048 11.4885 166.319 13.7567 138.958C14.1504 134.186 14.6768 129.356 15.3197 124.605C19.3144 95.1111 27.9938 66.6521 40.418 42.3001C52.7761 18.0812 68.1577 -0.760049 84.9006 -12.1827L84.956 -11.9678C50.8248 11.3194 23.5457 64.9477 15.4588 124.656C14.8168 129.403 14.2914 134.226 13.8976 138.992C12.6874 153.587 12.6491 168.449 13.6937 183.136C16.602 224.019 27.9019 263.601 45.7046 292.744C50.1732 300.066 55.0476 306.713 60.1928 312.5C78.3157 332.848 99.3349 343.345 117.505 350.929C123.973 353.633 130.61 356.173 137.03 358.628C151.008 363.975 165.462 369.506 179.192 377.118C188.872 382.481 196.65 388.614 202.969 395.869C210.856 404.923 216.255 415.686 219.018 427.855C220.009 432.225 220.672 436.743 221.006 441.435Z" fill="url(#paint1_linear_1634_4250)"/>
<path d="M221.332 451.317C221.937 459.828 221.534 468.95 220.128 478.869C218.045 493.558 213.992 508.242 210.736 520.039C209.036 526.197 207.338 532.549 205.697 538.69C200.57 557.875 195.268 577.714 188.405 597.543C183.067 612.928 176.373 629.335 168.508 646.309C161.005 662.574 153.4 677.59 146.3 691.393C135.98 711.424 125.749 730.704 115.855 749.35C110.06 760.187 102.612 774.617 96.3935 790.137C83.4942 822.328 79.0501 850.33 82.8054 875.747C84.3266 886.044 87.1497 895.918 91.4335 905.929C95.6674 915.823 101.469 925.873 109.169 936.651C113.061 942.092 117.063 947.274 121.301 952.759C126.47 959.451 131.814 966.371 136.933 973.794C140.827 979.445 144.165 984.794 147.138 990.149C153.339 1001.3 158.318 1013.87 161.538 1026.48C165.206 1040.86 166.493 1054.67 165.362 1067.54L165.18 1067.5C167.29 1043.46 160.495 1014.62 147.002 990.352C144.033 985.006 140.7 979.664 136.812 974.021C131.696 966.603 126.353 959.687 121.187 952.998C116.948 947.51 112.946 942.327 109.05 936.882C101.339 926.085 95.5267 916.018 91.2829 906.102C86.9851 896.058 84.153 886.152 82.6257 875.816C78.8581 850.313 83.3106 822.232 96.239 789.968C102.464 774.432 109.918 759.992 115.716 749.147C125.61 730.503 135.84 711.223 146.159 691.193C153.257 677.393 160.861 662.38 168.362 646.121C176.221 629.156 182.911 612.759 188.245 597.387C195.104 577.571 200.404 557.74 205.529 538.562C207.17 532.419 208.868 526.067 210.568 519.907C217.36 495.302 225.81 464.679 218.744 435.726C213.506 414.265 200.65 397.548 179.442 384.62C166.016 376.425 151.901 370.15 138.251 364.082C131.966 361.288 125.465 358.398 119.13 355.363C101.289 346.841 80.6943 335.306 63.2139 314.364C58.2111 308.349 53.5179 301.52 49.2641 294.066C43.562 284.089 38.5442 272.888 34.3491 260.772C30.223 248.853 26.9014 236.075 24.4786 222.795C19.5976 196.04 18.4505 167.554 21.1639 140.412C21.6309 135.707 22.2255 130.942 22.9308 126.252C27.2784 97.3721 36.0811 69.1371 48.3862 44.5982C60.4634 20.5151 75.3104 1.12687 91.3233 -11.4693L91.4035 -11.1948C58.6094 14.6116 31.8028 68.5916 23.1094 126.337C22.4061 131.018 21.8124 135.774 21.3454 140.473C15.7881 196.073 26.2744 253.417 49.3969 293.867C53.6417 301.307 58.326 308.123 63.3198 314.127C80.7765 335.042 101.353 346.566 119.178 355.08C125.513 358.115 132.011 361.003 138.297 363.797C151.95 369.868 166.07 376.143 179.504 384.344C200.764 397.303 213.655 414.076 218.914 435.622C220.137 440.633 220.942 445.848 221.332 451.317Z" fill="url(#paint2_linear_1634_4250)"/>
<path d="M221.755 461.594C223.299 483.295 218.514 505.041 214.18 524.737L213.823 526.362C212.559 532.114 211.316 538.074 210.114 543.837C205.978 563.667 201.701 584.171 194.938 604.854C189.755 620.647 182.893 637.039 174.543 653.575C166.503 669.588 158.104 684.046 150.948 696.076C139.478 715.318 128.166 733.399 118.613 748.549C111.97 759.084 104.299 771.693 97.7733 785.345C83.7691 814.642 78.0126 840.84 80.1775 865.437C81.0561 875.427 83.1618 885.161 86.6149 895.193C90.1099 905.348 95.1254 915.772 101.949 927.061C106.195 934.069 110.716 940.807 115.503 947.941C119.521 953.926 123.674 960.115 127.73 966.591C131.504 972.623 134.721 978.197 137.566 983.633C143.633 995.208 148.584 1007.96 151.882 1020.52C155.678 1034.97 157.259 1048.81 156.581 1061.66L156.354 1061.62C157.621 1037.62 150.711 1009.28 137.394 983.876C134.553 978.45 131.341 972.885 127.572 966.861C123.519 960.389 119.367 954.202 115.351 948.219C110.562 941.083 106.038 934.342 101.788 927.326C94.9496 916.012 89.9221 905.561 86.417 895.377C82.95 885.303 80.8352 875.527 79.9524 865.49C78.787 852.267 79.9669 838.244 83.456 823.82C86.462 811.389 91.087 798.728 97.5948 785.114C104.129 771.445 111.807 758.824 118.455 748.28C128.007 733.131 139.318 715.052 150.785 695.815C157.937 683.791 166.332 669.342 174.367 653.338C182.708 636.82 189.562 620.448 194.737 604.677C201.492 584.02 205.765 563.531 209.899 543.716C211.101 537.951 212.344 531.989 213.609 526.235L213.966 524.611C219.502 499.453 225.775 470.938 218.601 443.529C213.122 422.6 200.408 405.715 179.733 391.913C166.604 383.133 152.826 376.114 139.5 369.326C133.349 366.192 126.988 362.952 120.784 359.584C109.315 353.382 100.266 347.667 92.3066 341.599C82.2812 333.955 73.7777 325.598 66.311 316.049C61.4587 309.813 56.9534 302.811 52.9205 295.236C47.5019 285.085 42.7974 273.756 38.9366 261.565C35.1519 249.612 32.1767 236.827 30.0957 223.566C28.0259 210.384 26.8435 196.757 26.5792 183.063C26.3132 169.251 26.9832 155.394 28.5705 141.877C29.1117 137.237 29.7746 132.539 30.5413 127.913C35.2311 99.6752 44.1571 71.6661 56.3537 46.9127C68.1288 23.0157 82.4411 3.08038 97.7444 -10.7363L97.8545 -10.4085C65.8503 18.4879 40.142 71.5283 30.7604 128.012C29.9956 132.63 29.3336 137.318 28.7944 141.949C26.567 160.912 26.1779 180.125 27.5076 198.811C30.0464 234.506 38.8511 268.311 53.0914 294.988C57.1154 302.545 61.6097 309.531 66.4502 315.752C83.2296 337.211 103.368 349.771 120.855 359.227C127.057 362.592 133.417 365.832 139.567 368.965C152.897 375.756 166.681 382.777 179.817 391.563C189.122 397.774 196.594 404.37 202.659 411.726C210.306 420.999 215.739 431.65 218.809 443.379C220.39 449.417 221.321 455.505 221.755 461.594Z" fill="url(#paint3_linear_1634_4250)"/>
<path d="M222.301 472.36C222.71 478.106 222.74 484.154 222.397 490.571C221.701 503.619 219.612 516.306 217.593 528.575C217.366 529.951 217.14 531.321 216.919 532.679C216.048 538.023 215.249 543.327 214.404 548.943C211.323 569.421 208.137 590.594 201.478 612.164C196.454 628.371 189.424 644.749 180.583 660.843C172.021 676.537 163.15 689.83 155.601 700.761C143.763 717.857 132.154 733.448 121.373 747.749C114.302 757.13 106.133 768.362 99.156 780.556C84.0548 806.949 76.9888 831.344 77.5545 855.135C77.7858 864.852 79.1751 874.446 81.8032 884.465C84.5408 894.901 88.7709 905.699 94.736 917.475C99.408 926.673 104.662 935.619 110.226 945.09C112.943 949.717 115.753 954.501 118.534 959.388C122.262 965.951 125.27 971.582 127.999 977.114C133.942 989.136 138.863 1002.08 142.232 1014.55C146.16 1029.09 148.034 1042.95 147.805 1055.77L147.535 1055.75C148.111 1023.49 135.411 992.81 127.789 977.392C125.063 971.868 122.06 966.245 118.336 959.69C115.557 954.806 112.748 950.022 110.031 945.397C104.464 935.92 99.2059 926.967 94.5279 917.756C88.5459 905.948 84.3018 895.114 81.5541 884.637C78.913 874.567 77.5165 864.922 77.2839 855.148C76.9805 842.399 78.9561 829.124 83.1575 815.691C86.7389 804.238 92.0551 792.314 98.9584 780.248C105.947 768.035 114.124 756.79 121.202 747.401C131.981 733.101 143.587 717.515 155.421 700.424C162.963 689.501 171.828 676.22 180.38 660.542C189.205 644.475 196.222 628.13 201.236 611.959C207.881 590.434 211.064 569.284 214.141 548.831C214.987 543.214 215.785 537.907 216.657 532.559C216.879 531.199 217.104 529.831 217.331 528.453C221.277 504.483 225.748 477.317 218.467 451.324C210.852 424.141 192.884 408.554 180.031 399.194C167.2 389.83 153.757 382.068 140.758 374.56C134.741 371.085 128.518 367.493 122.446 363.792C111.204 356.969 102.369 350.802 94.6411 344.385C84.8513 336.254 76.5997 327.533 69.416 317.721C64.716 311.262 60.3988 304.086 56.5847 296.392C51.4497 286.068 47.0585 274.613 43.5319 262.344C40.0877 250.359 37.4599 237.566 35.7206 224.323C34.0007 211.224 33.1495 197.682 33.1909 184.073C33.233 170.425 34.1725 156.718 35.985 143.332C36.5994 138.759 37.3306 134.126 38.1586 129.563C40.7252 115.466 44.33 101.32 48.8728 87.513C53.2182 74.309 58.4179 61.4236 64.3271 49.217C75.769 25.5806 89.5457 5.09998 104.168 -10.0117L104.313 -9.63401C73.5195 22.1883 48.2688 75.5739 38.4173 129.692C37.5901 134.246 36.8609 138.868 36.2484 143.431C33.394 164.517 32.7731 185.945 34.2459 206.643C36.6019 239.756 44.3097 271.016 56.7928 296.112C60.596 303.784 64.9012 310.941 69.5874 317.38C85.6797 339.359 105.385 352.964 122.538 363.376C128.608 367.076 134.829 370.667 140.845 374.141C153.851 381.65 167.298 389.415 180.139 398.787C189.255 405.425 196.574 412.252 202.512 419.655C206.104 424.132 209.244 428.907 211.848 433.847C214.711 439.282 217.02 445.099 218.713 451.138C220.572 457.776 221.764 464.805 222.301 472.36Z" fill="url(#paint4_linear_1634_4250)"/>
<path d="M223.017 483.911C223.301 487.912 223.427 492.062 223.395 496.39C223.304 508.812 221.975 520.959 220.689 532.705C220.463 534.774 220.229 536.913 220.01 538.987C219.489 543.913 219.034 548.807 218.553 553.991C216.59 575.124 214.56 596.977 208.013 619.472C203.218 635.863 195.82 652.683 186.617 668.111C177.478 683.551 167.723 696.176 160.246 705.449C148.683 719.74 137.444 732.376 124.126 746.953C116.238 755.586 107.921 765.051 100.532 775.77C84.5706 798.923 75.9567 822.162 74.9283 844.841C74.4988 854.319 75.1726 863.773 76.9902 873.745C78.945 884.473 82.3906 895.643 87.5235 907.893C92.6483 920.083 98.9032 932.109 105.525 944.84C106.771 947.235 108.06 949.712 109.337 952.185C111.852 957.059 115.158 963.556 118.432 970.595C124.347 983.281 129.106 996.061 132.579 1008.58C136.642 1023.21 138.811 1037.11 139.028 1049.87L138.714 1049.88C138.433 1033.34 134.642 1006.21 118.182 970.907C114.911 963.878 111.609 957.387 109.097 952.518C107.819 950.045 106.532 947.569 105.286 945.174C98.6579 932.432 92.398 920.397 87.2643 908.184C82.1124 895.887 78.6537 884.671 76.6888 873.891C74.86 863.858 74.1819 854.342 74.6151 844.801C75.1718 832.532 77.9459 820.005 82.8607 807.566C87.0697 796.915 92.9443 786.087 100.323 775.384C107.726 764.646 116.053 755.168 123.95 746.525C137.263 731.953 148.499 719.322 160.055 705.039C167.523 695.777 177.266 683.169 186.39 667.753C195.57 652.364 202.948 635.593 207.729 619.25C214.256 596.825 216.282 575.009 218.241 553.914C218.723 548.728 219.177 543.831 219.699 538.899C219.919 536.824 220.153 534.685 220.379 532.615C222.881 509.748 225.717 483.832 218.325 459.128C210.398 432.633 192.839 416.393 180.321 406.482C167.787 396.535 154.679 388.03 142.002 379.806C136.12 375.99 130.038 372.043 124.1 368.01C112.928 360.453 104.56 354.028 96.9675 347.18C87.4122 338.56 79.4135 329.473 72.5129 319.402C67.9672 312.719 63.838 305.369 60.2408 297.557C55.3893 287.062 51.3114 275.479 48.1201 263.13C45.0153 251.116 42.734 238.316 41.3383 225.088C39.9654 212.074 39.4465 198.617 39.7964 185.089C40.1446 171.61 41.3547 158.053 43.3943 144.794C44.0809 140.287 44.8814 135.721 45.7718 131.219C48.517 117.387 52.2546 103.408 56.8796 89.6717C61.2557 76.6762 66.4428 63.8427 72.2964 51.5312C83.3535 28.2739 96.5936 7.24798 110.587 -9.27408L110.772 -8.85457C80.6201 26.7444 56.4332 79.1698 46.071 131.381C45.1824 135.87 44.3849 140.426 43.6992 144.922C35.1931 200.239 41.3133 255.76 60.4911 297.247C64.0763 305.033 68.1916 312.357 72.7214 319.017C88.1166 341.488 107.393 356.153 124.22 367.534C130.155 371.567 136.236 375.513 142.118 379.326C154.799 387.554 167.914 396.062 180.457 406.017C189.384 413.085 196.548 420.141 202.361 427.59C209.869 437.212 215.183 447.455 218.609 458.901C220.914 466.604 222.373 474.866 223.017 483.911Z" fill="url(#paint5_linear_1634_4250)"/>
<path d="M223.987 496.668C224.12 498.532 224.224 500.43 224.299 502.366C224.761 514.212 224.132 525.846 223.523 537.098C223.377 539.797 223.226 542.588 223.097 545.283C222.882 549.775 222.723 554.237 222.555 558.963C221.78 580.765 220.978 603.31 214.546 626.775C209.942 643.476 202.37 660.282 192.646 675.377C185.004 687.243 176.441 697.962 164.884 710.134C151.593 724.079 138.293 736.038 126.87 746.154C117.21 754.709 109.266 762.206 101.9 770.983C84.8852 791.257 74.9251 812.645 72.2958 834.553C71.1839 843.82 71.1432 853.135 72.1729 863.032C73.3181 874.045 75.9792 885.586 80.3077 898.316C85.3934 913.211 92.2961 928.263 100.136 944.983C102.948 950.99 105.937 957.413 108.861 964.075C114.683 977.318 119.414 990.281 122.922 1002.6C127.123 1017.35 129.587 1031.27 130.245 1043.96L129.89 1044.01C128.678 1020.61 121.505 993.834 108.573 964.417C105.652 957.759 102.664 951.341 99.855 945.339C92.0066 928.601 85.0949 913.53 79.9972 898.601C75.6478 885.811 72.9745 874.208 71.822 863.13C70.7851 853.162 70.8253 843.776 71.9467 834.438C74.5939 812.381 84.6005 790.872 101.69 770.51C109.073 761.713 117.028 754.206 126.701 745.639C138.118 735.528 151.412 723.573 164.692 709.64C176.23 697.489 184.776 686.79 192.402 674.951C202.091 659.907 209.637 643.164 214.222 626.532C220.627 603.168 221.426 580.677 222.2 558.928C222.368 554.2 222.527 549.735 222.743 545.237C222.872 542.538 223.023 539.745 223.17 537.045C224.351 515.201 225.691 490.442 218.188 466.922C209.952 441.107 192.798 424.216 180.612 413.759C168.375 403.229 155.602 393.985 143.25 385.045C137.503 380.886 131.56 376.584 125.755 372.215C114.8 364.006 106.639 357.143 99.2943 349.961C89.9745 340.85 82.2268 331.398 75.6102 321.068C71.2197 314.161 67.2796 306.637 63.8973 298.707C59.3284 288.042 55.5638 276.331 52.7087 263.9C49.9424 251.858 48.0076 239.051 46.9574 225.835C45.9305 212.909 45.7438 199.539 46.4023 186.09C47.0546 172.785 48.5353 159.377 50.803 146.24C51.5628 141.802 52.4316 137.3 53.3844 132.861C59.0746 106.439 68.1178 79.8512 80.2631 53.8331C90.845 31.164 103.55 9.59425 117.001 -8.54554L117.228 -8.09221C87.575 31.8939 64.4271 83.3414 53.7201 133.058C52.7693 137.484 51.9034 141.973 51.1455 146.401C41.6416 201.446 46.3948 256.837 64.1878 298.371C67.5561 306.27 71.4813 313.763 75.854 320.644C90.5042 343.517 108.565 358.691 125.9 371.681C131.702 376.05 137.643 380.35 143.39 384.509C155.748 393.453 168.526 402.701 180.774 413.24C189.631 420.842 196.442 427.921 202.207 435.518C209.591 445.248 214.921 455.432 218.501 466.654C221.392 475.712 223.198 485.579 223.987 496.668Z" fill="url(#paint6_linear_1634_4250)"/>
<path d="M225.382 511.638C226.11 521.872 226.127 531.952 226.143 541.732C226.149 545.132 226.154 548.343 226.188 551.578C226.23 555.608 226.317 559.608 226.408 563.842C226.647 574.892 226.894 586.319 226.293 598.051C225.613 611.338 223.909 623.124 221.084 634.08C218.782 642.957 215.564 651.81 211.519 660.395C207.816 668.257 203.496 675.745 198.68 682.649C190.737 694.036 181.473 704.26 169.525 714.826C155.789 726.92 142.278 736.542 129.617 745.362C121.38 751.098 111.872 757.914 103.268 766.205C85.4723 783.355 73.8521 803.437 69.6635 824.281C67.8426 833.345 67.0885 842.522 67.3578 852.336C67.6639 863.458 69.5946 875.71 73.0969 888.751C77.6924 905.778 84.6964 923.095 90.9416 937.788C91.6309 939.411 92.3241 941.041 93.0213 942.681C95.0741 947.504 97.1977 952.492 99.2941 957.563C112.224 988.757 119.477 1015.09 121.466 1038.06L121.07 1038.14C119.089 1015.28 111.858 989.04 98.9644 957.93C96.869 952.863 94.7464 947.876 92.6946 943.056C91.9974 941.418 91.3032 939.787 90.6149 938.163C84.3588 923.443 77.3418 906.093 72.7322 889.015C69.2098 875.898 67.2678 863.566 66.9593 852.363C66.6876 842.468 67.4482 833.215 69.2843 824.072C71.5544 812.772 75.9257 801.748 82.2769 791.308C87.7756 782.268 94.7699 773.632 103.065 765.639C111.689 757.328 121.211 750.502 129.46 744.758C142.113 735.944 155.615 726.329 169.335 714.248C181.256 703.707 190.497 693.508 198.417 682.154C205.507 671.989 215.133 655.354 220.717 633.822C226.996 609.47 226.495 586.285 226.009 563.864C225.918 559.627 225.832 555.624 225.79 551.588C225.756 548.348 225.751 545.134 225.744 541.732C225.707 519.816 225.668 497.155 218.051 474.726C209.606 449.861 193.762 432.975 180.902 421.039C168.962 409.929 156.522 399.945 144.493 390.29C138.882 385.786 133.078 381.129 127.408 376.423C110.309 362.297 92.5746 346.016 78.7067 322.737C74.5093 315.69 70.7563 307.994 67.554 299.861C63.2676 289.028 59.8173 277.189 57.2974 264.675C54.8686 252.608 53.2813 239.793 52.5767 226.587C51.8929 213.755 52.0384 200.468 53.0103 187.095C53.9629 173.968 55.7141 160.712 58.2148 147.691C59.0469 143.323 59.9839 138.887 61.0001 134.509C66.9443 108.972 76.1059 82.6048 88.2329 56.142C98.299 34.1761 110.137 12.6598 123.416 -7.80672L123.691 -7.32619C106.656 18.9278 75.9086 72.294 61.3735 134.746C60.3602 139.111 59.4261 143.536 58.5959 147.891C53.1402 176.299 51.4209 204.834 53.3188 231.505C55.0831 256.305 59.9709 279.493 67.8887 299.503C71.0769 307.601 74.8121 315.263 78.9916 322.278C92.8178 345.487 110.518 361.734 127.586 375.835C133.255 380.539 139.057 385.196 144.667 389.699C156.702 399.358 169.146 409.345 181.098 420.466C194.003 432.443 209.907 449.397 218.4 474.405C221.83 484.504 224.033 495.651 225.135 508.482C225.225 509.536 225.307 510.589 225.382 511.638Z" fill="url(#paint7_linear_1634_4250)"/>
<path d="M228.353 533.567C228.938 541.795 229.173 549.933 229.277 557.896C229.369 564.966 229.817 572.074 230.292 579.598C231.541 599.391 232.832 619.859 227.62 641.382C223.4 658.702 215.264 675.939 204.709 689.92C196.363 700.976 186.655 710.381 174.16 719.515C159.964 729.842 146.285 737.257 132.356 744.565C123.262 749.335 113.631 754.567 104.63 761.422C91.5205 771.407 74.355 788.636 67.0258 814.01C64.4675 822.864 63.0009 831.903 62.5393 841.643C62.0021 853.006 63.1268 865.638 65.8848 879.189C68.9216 894.019 73.9611 910.353 81.7453 930.594C83.4035 934.915 85.0721 939.168 86.8386 943.669C87.7832 946.077 88.7598 948.566 89.7265 951.047C98.5855 973.721 109.2 1003.43 112.685 1032.14L112.25 1032.28C108.78 1003.69 98.1916 974.058 89.3547 951.437C88.3879 948.956 87.4113 946.467 86.4667 944.061C84.6992 939.556 83.0306 935.302 81.3714 930.979C73.5673 910.688 68.5137 894.305 65.4647 879.416C62.6875 865.771 61.5544 853.041 62.097 841.581C62.562 831.751 64.0429 822.628 66.6244 813.693C74.0106 788.125 91.266 770.796 104.441 760.76C113.464 753.887 123.112 748.647 132.219 743.87C146.137 736.568 159.803 729.161 173.978 718.848C186.438 709.74 196.115 700.366 204.43 689.351C214.926 675.448 223.016 658.315 227.208 641.108C232.379 619.752 231.094 599.374 229.851 579.668C229.375 572.128 228.925 565.007 228.833 557.906C228.515 533.582 226.972 507.614 217.912 482.525C209.17 458.313 193.694 440.834 181.188 428.313C169.543 416.622 157.438 405.9 145.731 395.532C140.255 390.682 134.594 385.667 129.057 380.624C121.925 374.156 112.624 365.458 103.93 355.543C95.0635 345.429 87.8246 335.242 81.7997 324.4C77.7606 317.131 74.1965 309.259 71.2072 301.006C63.3036 279.299 58.9257 254.51 58.1945 227.328C57.8518 214.592 58.3305 201.391 59.6159 188.091C60.8668 175.15 62.8886 162.043 65.6242 149.136C66.5285 144.835 67.5339 140.465 68.6133 136.15C71.8625 123.187 75.9957 109.718 80.898 96.1166C85.2905 83.9314 90.4381 71.2582 96.1993 58.4475C105.37 38.0573 116.055 17.2397 129.827 -7.06645L130.151 -6.56837C110.685 27.7885 83.1688 79.9915 69.0224 136.431C67.9468 140.733 66.9444 145.09 66.0429 149.378C54.291 204.822 56.2598 258.54 71.5871 300.635C74.5614 308.847 78.1065 316.678 82.1258 323.912C95.2355 347.505 112.531 364.805 129.269 379.988C134.804 385.032 140.464 390.045 145.939 394.893C157.651 405.266 169.762 415.993 181.417 427.694C189.886 436.173 196.396 443.699 201.908 451.377C209.045 461.321 214.404 471.39 218.292 482.157C224.436 499.165 227.142 516.558 228.353 533.567Z" fill="url(#paint8_linear_1634_4250)"/>
<path d="M236.955 602.835C237.116 605.095 237.246 607.369 237.338 609.661C237.912 623.965 236.873 636.728 234.16 648.684C230.104 666.441 221.787 683.668 210.741 697.192C201.989 707.909 191.838 716.493 178.795 724.205C164.146 732.821 149.764 738.375 135.094 743.767C125.116 747.435 115.382 751.18 105.989 756.64C92.1924 764.661 73.7744 779.344 64.3844 803.744C61.0677 812.363 58.8876 821.265 57.719 830.958C56.3237 842.536 56.6452 855.55 58.6748 869.634C60.9924 885.597 65.5319 903.183 72.5531 923.402C74.8992 930.172 77.3873 936.977 80.1631 944.535C84.8188 957.185 89.7143 970.803 93.9635 984.682C98.71 1000.18 101.961 1013.77 103.905 1026.23L103.435 1026.42C99.1552 998.988 88.9636 969.981 79.748 944.944C76.9702 937.381 74.4801 930.569 72.131 923.793C65.0868 903.508 60.5301 885.85 58.2013 869.813C56.1554 855.615 55.8322 842.488 57.2417 830.797C58.4216 821.006 60.6238 812.016 63.9724 803.313C67.9489 792.98 73.9146 783.471 81.7025 775.052C88.5295 767.672 96.6454 761.223 105.825 755.887C115.241 750.413 124.992 746.663 134.984 742.988C149.639 737.601 164.004 732.054 178.627 723.454C191.624 715.77 201.735 707.221 210.448 696.552C221.421 683.117 229.68 666.017 233.703 648.4C239.72 621.894 236.355 597.222 233.1 573.364C232.693 570.378 232.272 567.291 231.886 564.304C231.353 560.177 230.877 556.063 230.371 551.71C228.039 531.599 225.628 510.803 217.778 490.333C208.794 466.902 194.386 449.513 181.478 435.593C170.127 423.322 158.356 411.866 146.973 400.786C141.633 395.59 136.111 390.214 130.709 384.831C123.276 377.454 114.559 368.536 106.256 358.326C97.6236 347.709 90.6366 337.158 84.8968 326.068C81.0169 318.571 77.6409 310.526 74.8645 302.156C67.5424 280.206 63.8262 255.281 63.8164 228.074C63.8119 215.438 64.6229 202.323 66.2266 189.092C67.7719 176.34 70.0633 163.386 73.0387 150.585C74.0143 146.355 75.0889 142.053 76.2307 137.796C82.2304 115.501 90.639 91.974 101.938 65.8668C111.782 43.1209 122.508 21.4475 131.97 2.32376C133.417 -0.59914 134.842 -3.47993 136.24 -6.31515L136.618 -5.8109C135.219 -2.97567 133.794 -0.0950061 132.347 2.82795C113.533 40.8499 90.1177 88.1676 76.6745 138.121C75.5356 142.364 74.4648 146.655 73.4921 150.872C60.6388 206.175 61.277 259.766 75.2896 301.776C78.051 310.099 81.407 318.097 85.2651 325.551C98.2781 350.692 115.674 368.98 130.957 384.147C136.358 389.529 141.878 394.902 147.217 400.099C158.605 411.184 170.382 422.645 181.742 434.925C190.014 443.845 196.375 451.593 201.76 459.31C208.772 469.358 214.146 479.368 218.187 489.908C226.086 510.507 228.506 531.38 230.847 551.563C231.351 555.913 231.828 560.023 232.36 564.141C232.745 567.123 233.165 570.209 233.573 573.193C234.885 582.794 236.232 592.663 236.955 602.835Z" fill="url(#paint9_linear_1634_4250)"/>
<path d="M242.954 617.959C243.936 631.761 243.194 644.225 240.697 655.984C238.688 665.384 235.454 674.523 231.085 683.153C227.09 691.043 222.139 698.414 216.769 704.468C207.673 714.808 197.078 722.57 183.426 728.896C168.297 735.865 153.824 739.392 137.829 742.97C127.338 745.316 117.113 747.762 107.345 751.859C92.8683 757.931 73.2047 770.081 61.7379 793.482C57.648 801.829 54.7544 810.594 52.8937 820.277C50.6312 832.05 50.1497 845.444 51.4617 860.087C52.991 876.969 56.9935 895.854 63.3598 916.216C65.8565 924.219 68.5404 932.076 70.5985 938.027C71.1388 939.587 71.684 941.154 72.2302 942.73C81.0602 968.154 90.1912 994.445 95.1225 1020.32L94.6179 1020.57C89.7039 994.791 80.5869 968.542 71.7709 943.158C71.2237 941.582 70.6795 940.015 70.1382 938.455C68.0772 932.496 65.3902 924.629 62.8885 916.612C56.4961 896.164 52.4754 877.189 50.9377 860.213C49.6141 845.437 50.1018 831.913 52.3883 820.015C54.2691 810.228 57.1916 801.37 61.3244 792.937C66.1521 783.085 72.9124 774.336 81.4187 766.932C88.9149 760.407 97.5931 755.053 107.211 751.018C117.005 746.91 127.247 744.461 137.753 742.112C153.73 738.539 168.183 735.016 183.278 728.062C196.873 721.762 207.419 714.038 216.466 703.753C227.735 691.047 236.385 673.531 240.196 655.696C246.078 628 240.899 601.373 236.329 577.881C235.868 575.507 235.39 573.053 234.939 570.674C234.086 566.176 233.301 561.688 232.469 556.937C229.095 537.658 225.608 517.722 217.643 498.141C208.37 475.341 194.302 457.406 181.764 442.87C170.71 430.022 159.272 417.831 148.211 406.042C143.007 400.495 137.625 394.76 132.358 389.035C117.349 372.786 100.303 353.307 87.9909 327.732C84.2711 320.005 81.0841 311.786 78.5188 303.302C71.7731 281.114 68.7167 256.053 69.4372 228.815C70.0891 204.126 73.7951 178.293 80.452 152.03C81.4998 147.869 82.6427 143.631 83.8479 139.438C95.1729 100.133 112.292 62.2386 127.396 28.8054C132.818 16.8053 137.937 5.47166 142.651 -5.56204L143.085 -5.05981C138.368 5.98361 133.246 17.3221 127.823 29.3255C112.733 62.7263 95.6303 100.585 84.3274 139.812C83.1251 143.994 81.9861 148.217 80.9421 152.367C66.9513 207.568 66.2599 261.034 78.994 302.917C81.5433 311.347 84.7104 319.515 88.4072 327.194C100.671 352.667 117.674 372.097 132.65 388.308C137.916 394.033 143.296 399.766 148.499 405.311C159.564 417.104 171.007 429.302 182.07 442.158C194.648 456.741 208.764 474.74 218.085 497.658C226.096 517.352 229.596 537.355 232.981 556.698C233.811 561.444 234.595 565.929 235.447 570.417C235.897 572.794 236.375 575.247 236.837 577.617C239.19 589.715 241.624 602.224 242.748 615.303C242.821 616.193 242.891 617.08 242.954 617.959Z" fill="url(#paint10_linear_1634_4250)"/>
<path d="M249.05 630.522C249.88 642.19 249.278 652.984 247.234 663.288C243.556 681.724 234.649 699.386 222.795 711.747C217.637 717.165 212.051 721.651 205.716 725.457C200.378 728.665 194.601 731.326 188.052 733.59C172.461 738.945 157.318 740.645 140.559 742.173C129.135 743.216 118.852 744.303 108.696 747.077C87.2791 752.928 69.66 765.764 59.0864 783.221C54.217 791.26 50.612 799.889 48.0644 809.602C44.9307 821.549 43.646 835.325 44.2466 850.546C44.9676 868.458 48.305 888.136 54.1654 909.033C56.0667 915.826 58.2486 922.972 61.0328 931.521C62.9076 937.269 64.8927 943.201 66.8108 948.939C74.0145 970.479 81.4635 992.751 86.3387 1014.4L85.8021 1014.72C80.942 993.139 73.504 970.897 66.3093 949.388C64.3892 943.648 62.4051 937.713 60.5283 931.962C57.739 923.397 55.5522 916.235 53.6458 909.423C47.7553 888.419 44.4015 868.629 43.676 850.601C43.0696 835.229 44.3702 821.308 47.5396 809.225C50.1161 799.403 53.76 790.679 58.681 782.556C64.3609 773.179 71.916 765.189 81.1367 758.808C89.3013 753.156 98.5417 748.897 108.601 746.149C118.785 743.367 129.084 742.278 140.525 741.234C157.261 739.707 172.381 738.01 187.933 732.668C202.053 727.786 213.032 720.884 222.486 710.951C234.232 698.704 243.053 681.222 246.691 662.99C252.438 634.012 245.458 606.489 239.3 582.207C238.86 580.474 238.425 578.753 237.996 577.046C236.783 572.21 235.645 567.385 234.442 562.276C230.09 543.798 225.588 524.689 217.511 505.949C207.978 483.833 194.835 466.057 182.051 450.142C171.29 436.716 160.183 423.791 149.442 411.29C144.377 405.395 139.139 399.3 134.008 393.234C119.359 375.977 102.753 355.389 91.0867 329.392C87.506 321.35 84.508 312.955 82.1758 304.442C75.9988 282.02 73.6051 256.822 75.0607 229.552C76.3576 205.247 80.6664 179.65 87.8671 153.472C88.9853 149.383 90.1965 145.212 91.4669 141.076C101.15 109.61 114.026 79.5396 126.479 50.4577C134.726 31.1969 142.517 13.0045 149.063 -4.80568L149.553 -4.31664C142.997 13.5211 135.201 31.7264 126.948 51.0019C114.507 80.0561 101.642 110.098 91.9782 141.503C90.7117 145.627 89.5043 149.784 88.3901 153.862C77.6618 192.864 67.9652 250.581 82.6973 304.059C85.0135 312.513 87.9914 320.849 91.5483 328.838C103.164 354.72 119.727 375.255 134.34 392.47C139.47 398.535 144.707 404.63 149.772 410.523C160.516 423.027 171.627 435.957 182.397 449.393C187.773 456.087 194.801 465.067 201.467 475.177C208.231 485.433 213.631 495.322 217.979 505.406C226.097 524.241 230.611 543.405 234.977 561.939C236.179 567.042 237.315 571.864 238.526 576.69C238.954 578.396 239.39 580.116 239.83 581.848C242.993 594.323 246.264 607.222 248.06 620.813C248.493 624.12 248.825 627.353 249.05 630.522Z" fill="url(#paint11_linear_1634_4250)"/>
<path d="M255.239 641.829C255.904 651.175 255.585 660.773 253.773 670.586C251.964 680.325 248.717 689.657 244.122 698.324C239.901 706.283 234.61 713.441 228.821 719.023C219.025 728.531 207.202 734.831 192.679 738.28C175.314 742.37 158.3 741.84 143.289 741.372C130.908 740.987 120.597 740.81 110.048 742.292C87.6779 745.433 68.6373 756.325 56.4339 772.959C50.787 780.656 46.4695 789.149 43.2341 798.924C39.2271 811.03 37.1403 825.189 37.0316 841.006C36.9157 859.603 39.6612 880.644 44.9731 901.853C46.7632 909.013 48.8884 916.591 51.4692 925.015C54.5632 935.1 57.9846 945.464 61.2919 955.486C67.0564 972.951 73.0181 991.01 77.5551 1008.48L76.9892 1008.87C72.4634 991.446 66.5096 973.408 60.7512 955.964C57.4409 945.936 54.0175 935.565 50.9194 925.467C48.3316 917.016 46.2004 909.418 44.4042 902.233C41.8037 891.851 39.8048 881.504 38.4623 871.477C37.0449 860.892 36.3568 850.636 36.4162 840.99C36.527 825.006 38.6385 810.689 42.6929 798.437C45.9661 788.547 50.3313 779.958 56.0398 772.18C62.5718 763.277 70.9206 756.046 80.8548 750.686C89.6839 745.924 99.4876 742.76 109.992 741.285C120.571 739.799 130.897 739.976 143.298 740.361C158.286 740.828 175.273 741.356 192.588 737.279C207.031 733.85 218.78 727.593 228.507 718.152C240.73 706.366 249.724 688.921 253.184 670.288C258.792 639.923 249.854 611.449 241.967 586.328C241.661 585.355 241.357 584.386 241.055 583.42C239.442 578.269 237.913 573.139 236.295 567.706C231.02 550.003 225.566 531.695 217.379 513.76C207.564 492.257 194.737 473.971 182.336 457.415C171.87 443.415 161.097 429.76 150.678 416.554C145.749 410.305 140.651 403.846 135.654 397.434C120.654 378.246 105.095 357.314 94.1797 331.052C90.767 322.783 87.957 314.214 85.8299 305.585C80.2157 282.932 78.4838 257.598 80.6824 230.289C82.6066 206.386 87.5192 181.027 95.2814 154.916C96.4698 150.898 97.7493 146.793 99.0841 142.718C107.369 117.457 117.64 92.7725 127.574 68.9019C138.07 43.6791 147.983 19.8539 155.472 -4.03861L156.019 -3.57095C148.512 20.3767 138.588 44.2262 128.082 69.4766C118.157 93.3261 107.895 117.988 99.6262 143.203C98.2963 147.266 97.0197 151.359 95.8351 155.366C84.2474 194.339 73.2046 251.971 86.3997 305.212C88.5117 313.776 91.2997 322.28 94.6884 330.49C105.553 356.627 121.069 377.501 136.031 396.641C141.028 403.051 146.123 409.511 151.053 415.758C161.474 428.967 172.251 442.627 182.724 456.636C195.155 473.234 208.016 491.569 217.872 513.16C226.093 531.173 231.561 549.524 236.849 567.27C238.466 572.697 239.994 577.825 241.604 582.966C241.905 583.93 242.21 584.899 242.516 585.872C247.92 603.09 253.819 621.881 255.239 641.829Z" fill="url(#paint12_linear_1634_4250)"/>
<path d="M261.487 652.22C262.121 661.139 261.728 669.638 260.313 677.883C258.605 687.793 255.351 697.222 250.642 705.907C246.307 713.899 240.846 720.952 234.847 726.297C224.637 735.446 212.356 740.898 197.305 742.963C179.434 745.389 161.682 742.827 146.019 740.564C135.324 739.019 123.202 737.27 111.397 737.499C88.0727 737.952 67.6097 746.898 53.7793 762.688C47.3605 770.016 42.3306 778.374 38.4017 788.241C33.5224 800.493 30.6335 815.035 29.8144 831.463C28.8529 850.942 30.9159 872.798 35.7806 894.668C37.4567 902.216 39.4601 910.012 41.9054 918.506C46.1444 933.207 51.1169 948.104 55.9262 962.511C60.33 975.703 64.8841 989.345 68.7692 1002.55L68.1772 1003.02C64.3001 989.836 59.7501 976.206 55.3502 963.027C50.5359 948.605 45.5584 933.695 41.3114 918.963C38.857 910.44 36.8466 902.612 35.1634 895.034C30.2674 873.018 28.1907 851.004 29.1593 831.368C29.9871 814.759 32.9115 800.049 37.851 787.644C41.8265 777.659 46.914 769.205 53.4023 761.796C60.7865 753.366 69.9289 746.892 80.5756 742.557C90.0634 738.694 100.43 736.627 111.387 736.414C123.224 736.184 135.363 737.936 146.073 739.483C161.709 741.741 179.433 744.3 197.246 741.881C212.205 739.83 224.401 734.419 234.531 725.343C247.046 714.19 256.447 696.333 259.68 677.579C265.149 645.705 254.063 616.23 244.283 590.226L244.119 589.79C242.069 584.341 240.018 578.679 238.033 573.204C231.892 556.257 225.54 538.732 217.249 521.566C207.154 500.668 194.64 481.874 182.622 464.68C172.448 450.104 162.006 435.718 151.908 421.806C147.116 415.206 142.162 408.38 137.302 401.625C122.625 381.273 107.446 359.188 97.2744 332.704C94.0307 324.208 91.4108 315.466 89.4858 306.717C84.4275 283.833 83.3583 258.364 86.3078 231.017C88.8407 207.532 94.3551 182.412 102.699 156.352C103.957 152.408 105.305 148.369 106.706 144.352C113.73 124.217 121.955 104.253 129.91 84.9469C142.335 54.7895 154.072 26.3038 161.885 -3.27636L162.489 -2.84137C154.653 26.8295 142.9 55.3558 130.456 85.5553C122.508 104.845 114.289 124.792 107.278 144.89C105.882 148.898 104.538 152.924 103.283 156.856C85.1383 213.523 80.7042 263.822 90.1049 306.352C92.0138 315.027 94.6136 323.701 97.8313 332.129C107.952 358.481 123.089 380.503 137.726 400.799C142.586 407.554 147.539 414.379 152.329 420.979C162.43 434.895 172.875 449.283 183.053 463.866C195.096 481.095 207.636 499.929 217.764 520.896C226.082 538.119 232.446 555.676 238.598 572.654C240.582 578.126 242.632 583.784 244.679 589.226L244.843 589.662C249.826 602.911 254.978 616.612 258.316 631.35C259.954 638.589 261.01 645.524 261.487 652.22Z" fill="url(#paint13_linear_1634_4250)"/>
<path d="M267.783 662.076C268.349 670.036 268.034 677.697 266.846 685.178C265.238 695.262 261.978 704.788 257.154 713.493C252.707 721.52 247.075 728.464 240.866 733.575C230.24 742.357 217.501 746.962 201.922 747.649C183.823 748.431 166.029 744.032 148.821 739.778L148.742 739.758C135.924 736.529 124.369 733.769 112.74 732.708C88.4537 730.49 66.5692 737.491 51.1166 752.42C44.0003 759.296 38.0938 767.754 33.5612 777.561C27.816 789.891 24.125 804.819 22.5901 821.927C20.7739 842.249 22.1544 864.921 26.5819 887.492C28.1291 895.386 30.0106 903.405 32.3355 912.004C37.6594 931.675 44.4068 951.181 50.9322 970.045C53.9577 978.792 57.0863 987.837 59.9763 996.633L59.3591 997.177C56.4732 988.392 53.3466 979.352 50.322 970.612C43.7877 951.724 37.0313 932.193 31.6943 912.469C29.3594 903.831 27.4688 895.777 25.9135 887.842C21.4525 865.103 20.0632 842.251 21.8952 821.754C23.4476 804.449 27.1839 789.345 33.0011 776.86C37.5882 766.937 43.5621 758.379 50.7577 751.427C58.996 743.467 68.9312 737.753 80.2885 734.442C90.429 731.485 101.359 730.515 112.774 731.558C124.434 732.624 136.008 735.387 148.842 738.62L148.921 738.639C166.099 742.886 183.861 747.278 201.899 746.498C217.373 745.815 230.015 741.249 240.548 732.545C253.536 721.851 263.112 704.034 266.166 684.881C271.482 651.415 257.433 619.484 247.176 596.169C244.652 590.434 242.108 584.504 239.647 578.77C232.692 562.564 225.5 545.806 217.111 529.381C206.224 508.067 193.743 488.561 182.898 471.949C173.018 456.799 162.907 441.686 153.129 427.07C148.477 420.114 143.665 412.922 138.941 405.82C123.999 383.391 109.803 361.049 100.36 334.357C97.2884 325.637 94.8575 316.72 93.1336 307.852C90.7958 295.871 89.5456 283.132 89.4172 269.988C89.2981 257.789 90.1419 244.923 91.925 231.745C95.0451 208.695 101.163 183.812 110.109 157.789C111.434 153.924 112.85 149.953 114.319 145.985C120.169 130.193 126.716 114.383 133.048 99.093C146.605 66.359 160.623 32.5096 168.288 -2.50456L168.948 -2.10875C165.494 13.6671 160.468 30.5452 153.583 49.4911C147.446 66.3786 140.421 83.3406 133.628 99.7448C127.301 115.024 120.758 130.822 114.918 146.588C113.454 150.543 112.042 154.504 110.72 158.358C91.2402 215.023 85.5485 265.202 93.8001 307.504C95.5087 316.292 97.9185 325.133 100.965 333.78C110.358 360.328 124.51 382.602 139.411 404.968C144.134 412.07 148.945 419.261 153.598 426.216C163.378 440.834 173.491 455.952 183.373 471.106C194.233 487.74 206.733 507.277 217.646 528.639C226.054 545.101 233.255 561.88 240.219 578.106C242.678 583.836 245.221 589.763 247.742 595.493C253.859 609.394 259.67 623.08 263.553 637.649C265.82 646.151 267.228 654.257 267.783 662.076Z" fill="url(#paint14_linear_1634_4250)"/>
<path d="M274.123 671.512C274.634 678.681 274.384 685.64 273.384 692.466C271.898 702.578 268.54 712.47 263.671 721.07C259.109 729.13 253.306 735.968 246.888 740.843C235.846 749.251 222.648 753.006 206.544 752.324C187.792 751.521 169.379 745.144 151.573 738.975L151.467 738.939C140.636 735.162 127.157 730.462 114.085 727.903C88.7149 723.069 65.4079 728.124 48.4579 742.138C40.6332 748.559 33.9936 756.88 28.7227 766.869C22.1072 779.361 17.6141 794.673 15.3679 812.38C12.6909 833.512 13.3888 857 17.3863 880.306C18.7955 888.527 20.5562 896.765 22.7695 905.492C29.1125 930.488 37.9607 954.605 46.5181 977.928C48.0564 982.12 49.6467 986.456 51.1863 990.699L50.547 991.32C49.0084 987.081 47.4181 982.747 45.8807 978.556C37.3094 955.195 28.4462 931.039 22.0821 905.959C19.8577 897.186 18.0869 888.903 16.6696 880.634C14.7171 869.25 13.5374 857.706 13.1629 846.317C12.7729 834.439 13.2689 822.935 14.638 812.125C16.9106 794.211 21.4598 778.716 28.1581 766.065C33.4923 755.954 40.2082 747.536 48.1191 741.045C57.1869 733.547 67.9138 728.592 79.9994 726.315C90.7466 724.292 102.242 724.417 114.165 726.688C127.272 729.253 140.769 733.96 151.614 737.741L151.719 737.777C169.494 743.934 187.872 750.3 206.556 751.1C222.543 751.777 235.632 748.057 246.569 739.73C260.033 729.5 269.785 711.721 272.656 692.17C277.397 659.828 264.182 630.155 250.238 602.533C247.203 596.52 244.127 590.35 241.154 584.381C233.438 568.901 225.46 552.894 216.978 537.185C205.805 516.491 193.672 496.407 183.176 479.206C173.591 463.487 163.812 447.649 154.355 432.333C149.839 425.019 145.169 417.456 140.58 410.002C133.794 398.99 126.63 387.212 120.182 374.943C112.987 361.255 107.514 348.517 103.448 335.998C100.55 327.055 98.3071 317.962 96.7834 308.974C94.7204 296.828 93.7844 283.96 94.003 270.726C94.2047 258.509 95.3969 245.636 97.5453 232.462C101.283 209.544 107.818 185.585 117.522 159.217C118.916 155.425 120.4 151.52 121.935 147.61C126.671 135.548 131.793 123.392 136.745 111.639C151.89 75.6968 167.55 38.5288 174.694 -1.73799L175.409 -1.3893C172.188 16.763 166.971 35.8501 159.46 56.9622C152.772 75.7599 144.936 94.3569 137.358 112.341C132.409 124.088 127.291 136.233 122.56 148.28C121.03 152.18 119.549 156.074 118.159 159.855C97.0091 217.323 90.2507 265.995 97.4983 308.653C99.0077 317.555 101.229 326.564 104.102 335.429C112.784 362.154 125.994 384.621 141.1 409.135C145.688 416.587 150.358 424.151 154.874 431.465C164.332 446.782 174.111 462.622 183.698 478.344C194.201 495.558 206.344 515.659 217.53 536.378C226.023 552.105 234.006 568.123 241.726 583.612C244.7 589.578 247.775 595.747 250.808 601.757C257.067 614.158 264.14 628.684 268.848 644.177C271.749 653.706 273.502 662.767 274.123 671.512Z" fill="url(#paint15_linear_1634_4250)"/>
<path d="M280.498 680.656C280.961 687.16 280.768 693.51 279.924 699.769C278.54 710.053 275.173 720.045 270.192 728.665C265.516 736.758 259.541 743.488 252.913 748.13C246.831 752.389 239.949 755.252 232.46 756.634C225.984 757.83 218.821 757.959 211.169 757.018C191.766 754.631 172.736 746.277 154.332 738.198C141.663 732.636 128.562 726.886 115.437 723.119C96.9389 717.811 50.9884 710.41 23.89 756.198C7.34448 784.153 1.4779 827.872 8.19662 873.144C14.2434 913.891 28.5575 949.931 42.4013 984.783L41.7427 985.486C35.1982 969.007 27.7791 950.33 21.5903 931.449C14.7656 910.63 10.1347 891.656 7.43144 873.443C4.29964 852.338 3.88654 830.667 6.2367 810.774C7.48604 800.198 9.50952 790.224 12.2506 781.128C15.155 771.491 18.8798 762.798 23.3229 755.292C28.6944 746.216 35.1965 738.65 42.6483 732.801C49.5267 727.402 57.2969 723.402 65.7409 720.908C80.7568 716.475 97.9866 716.798 115.567 721.842C128.727 725.618 141.845 731.376 154.53 736.945C172.9 745.008 191.894 753.347 211.223 755.724C227.724 757.754 241.259 754.881 252.601 746.937C266.334 737.32 276.509 719.135 279.157 699.48C283.491 667.299 269.297 636.936 253.314 608.916L142.233 414.199C132.694 397.478 124.207 382.292 116.947 365.755C108.488 346.489 103.091 328.288 100.447 310.113C98.5113 296.81 97.9455 282.714 98.7655 268.221C99.512 255.029 101.432 241.098 104.47 226.814C109.512 203.114 117.72 177.746 129.565 149.253C133.238 140.417 137.109 131.478 140.853 122.834C157.543 84.2882 174.802 44.4293 181.116 -0.950772L181.883 -0.655788C179.035 19.8141 173.726 40.9414 165.651 63.933C158.468 84.3881 149.839 104.316 141.495 123.587C137.754 132.226 133.885 141.161 130.216 149.987C114.899 186.83 95.7843 240.743 99.6997 295.784C100.032 300.46 100.53 305.135 101.211 309.819C107.185 350.88 126.109 384.051 142.805 413.318L253.885 608.037C260.927 620.38 268.842 635.102 274.153 650.706C277.709 661.15 279.817 671.071 280.498 680.656Z" fill="url(#paint16_linear_1634_4250)"/>
</g>
<defs>
<linearGradient id="paint0_linear_1634_4250" x1="117.721" y1="1079.68" x2="111.633" y2="-13.0823" gradientUnits="userSpaceOnUse">
<stop stop-color="#ED298D"/>
<stop offset="1" stop-color="#2C2C2D"/>
</linearGradient>
<linearGradient id="paint1_linear_1634_4250" x1="121.306" y1="1073.73" x2="115.255" y2="-12.3534" gradientUnits="userSpaceOnUse">
<stop stop-color="#ED298D"/>
<stop offset="1" stop-color="#2C2C2D"/>
</linearGradient>
<linearGradient id="paint2_linear_1634_4250" x1="124.862" y1="1067.78" x2="118.848" y2="-11.612" gradientUnits="userSpaceOnUse">
<stop stop-color="#ED298D"/>
<stop offset="1" stop-color="#2C2C2D"/>
</linearGradient>
<linearGradient id="paint3_linear_1634_4250" x1="128.398" y1="1061.81" x2="122.422" y2="-10.8733" gradientUnits="userSpaceOnUse">
<stop stop-color="#ED298D"/>
<stop offset="1" stop-color="#2C2C2D"/>
</linearGradient>
<linearGradient id="paint4_linear_1634_4250" x1="131.935" y1="1055.85" x2="125.996" y2="-10.1287" gradientUnits="userSpaceOnUse">
<stop stop-color="#ED298D"/>
<stop offset="1" stop-color="#2C2C2D"/>
</linearGradient>
<linearGradient id="paint5_linear_1634_4250" x1="135.476" y1="1049.9" x2="129.574" y2="-9.38228" gradientUnits="userSpaceOnUse">
<stop stop-color="#ED298D"/>
<stop offset="1" stop-color="#2C2C2D"/>
</linearGradient>
<linearGradient id="paint6_linear_1634_4250" x1="139.066" y1="1043.95" x2="133.202" y2="-8.6385" gradientUnits="userSpaceOnUse">
<stop stop-color="#ED298D"/>
<stop offset="1" stop-color="#2C2C2D"/>
</linearGradient>
<linearGradient id="paint7_linear_1634_4250" x1="142.987" y1="1038.02" x2="137.161" y2="-7.88358" gradientUnits="userSpaceOnUse">
<stop stop-color="#ED298D"/>
<stop offset="1" stop-color="#2C2C2D"/>
</linearGradient>
<linearGradient id="paint8_linear_1634_4250" x1="148.198" y1="1032.08" x2="142.408" y2="-7.13493" gradientUnits="userSpaceOnUse">
<stop stop-color="#ED298D"/>
<stop offset="1" stop-color="#2C2C2D"/>
</linearGradient>
<linearGradient id="paint9_linear_1634_4250" x1="148.579" y1="1026.17" x2="142.827" y2="-6.35433" gradientUnits="userSpaceOnUse">
<stop stop-color="#ED298D"/>
<stop offset="1" stop-color="#2C2C2D"/>
</linearGradient>
<linearGradient id="paint10_linear_1634_4250" x1="148.37" y1="1020.27" x2="142.655" y2="-5.56552" gradientUnits="userSpaceOnUse">
<stop stop-color="#ED298D"/>
<stop offset="1" stop-color="#2C2C2D"/>
</linearGradient>
<linearGradient id="paint11_linear_1634_4250" x1="147.988" y1="1014.37" x2="142.31" y2="-4.76718" gradientUnits="userSpaceOnUse">
<stop stop-color="#ED298D"/>
<stop offset="1" stop-color="#2C2C2D"/>
</linearGradient>
<linearGradient id="paint12_linear_1634_4250" x1="147.445" y1="1008.48" x2="141.804" y2="-3.96585" gradientUnits="userSpaceOnUse">
<stop stop-color="#ED298D"/>
<stop offset="1" stop-color="#2C2C2D"/>
</linearGradient>
<linearGradient id="paint13_linear_1634_4250" x1="146.756" y1="1002.59" x2="141.153" y2="-3.15862" gradientUnits="userSpaceOnUse">
<stop stop-color="#ED298D"/>
<stop offset="1" stop-color="#2C2C2D"/>
</linearGradient>
<linearGradient id="paint14_linear_1634_4250" x1="145.931" y1="996.692" x2="140.365" y2="-2.34857" gradientUnits="userSpaceOnUse">
<stop stop-color="#ED298D"/>
<stop offset="1" stop-color="#2C2C2D"/>
</linearGradient>
<linearGradient id="paint15_linear_1634_4250" x1="145.001" y1="990.798" x2="139.472" y2="-1.53782" gradientUnits="userSpaceOnUse">
<stop stop-color="#ED298D"/>
<stop offset="1" stop-color="#2C2C2D"/>
</linearGradient>
<linearGradient id="paint16_linear_1634_4250" x1="143.978" y1="984.918" x2="138.487" y2="-0.710856" gradientUnits="userSpaceOnUse">
<stop stop-color="#ED298D"/>
<stop offset="1" stop-color="#2C2C2D"/>
</linearGradient>
</defs>
</svg>
