<svg width="24" height="24" viewBox="0 0 24 24" fill="none" xmlns="http://www.w3.org/2000/svg">
<path fill-rule="evenodd" clip-rule="evenodd" d="M2.1236 6.34887C1.83424 6.24211 1.53355 6.15812 1.22367 6.09904C1.20092 6.09471 1.17812 6.09051 1.15527 6.08643C0.948243 6.04957 0.948243 5.75319 1.15527 5.71633C1.17812 5.71225 1.20092 5.70805 1.22367 5.70373C1.53355 5.64464 1.83424 5.56065 2.1236 5.45389C2.29676 5.39 2.46587 5.31797 2.63046 5.23822C3.77025 4.68604 4.69331 3.7648 5.2466 2.62725C5.32649 2.46299 5.39868 2.29421 5.46267 2.12139C5.56964 1.8326 5.6538 1.5325 5.713 1.22323C5.71733 1.20053 5.72154 1.17777 5.72563 1.15497C5.76256 0.948345 6.05953 0.948345 6.09646 1.15497C6.10055 1.17777 6.10476 1.20053 6.10909 1.22323C6.16829 1.5325 6.25245 1.8326 6.35941 2.12139C6.42344 2.29421 6.4956 2.46299 6.57552 2.62725C7.12878 3.7648 8.05184 4.68604 9.19165 5.23822C9.35623 5.31797 9.52533 5.39 9.69849 5.45389C9.98785 5.56065 10.2885 5.64464 10.5984 5.70373C10.6212 5.70805 10.644 5.71225 10.6668 5.71633C10.8739 5.75319 10.8739 6.04957 10.6668 6.08643C10.644 6.09051 10.6212 6.09471 10.5984 6.09904C10.2885 6.15812 9.98785 6.24211 9.69849 6.34887C9.52533 6.41276 9.35623 6.48479 9.19165 6.56454C8.05184 7.11672 7.12878 8.03796 6.57552 9.17553C6.4956 9.33979 6.42344 9.50855 6.35941 9.68137C6.25245 9.97017 6.16829 10.2703 6.10909 10.5795C6.10476 10.6022 6.10055 10.625 6.09646 10.6478C6.05953 10.8544 5.76256 10.8544 5.72563 10.6478C5.72154 10.625 5.71733 10.6022 5.713 10.5795C5.6538 10.2703 5.56964 9.97017 5.46267 9.68137C5.39868 9.50855 5.32649 9.33979 5.2466 9.17553C4.69331 8.03796 3.77025 7.11672 2.63046 6.56454C2.46587 6.48479 2.29677 6.41276 2.1236 6.34887ZM3.92693 5.90138C4.71722 6.41815 5.39325 7.09285 5.91104 7.88159C6.42883 7.09285 7.10487 6.41815 7.89519 5.90138C7.10487 5.38461 6.42883 4.70991 5.91104 3.92117C5.39325 4.70991 4.71722 5.38461 3.92693 5.90138ZM9.04149 13.691C8.83911 13.6365 8.63393 13.5888 8.42615 13.5479C8.39367 13.5416 8.36116 13.5354 8.32858 13.5293L8.3187 13.5275L8.30534 13.525C8.28478 13.5213 8.26221 13.5173 8.21707 13.5092L8.2013 13.5064C7.87021 13.4439 7.87021 12.9707 8.2013 12.9082L8.21707 12.9054C8.26221 12.8973 8.28478 12.8933 8.30534 12.8895L8.3187 12.8871L8.32858 12.8853C8.36116 12.8792 8.39367 12.873 8.42612 12.8667C8.6339 12.8258 8.83911 12.778 9.04149 12.7236C9.21434 12.6771 9.38515 12.6257 9.55376 12.5697C12.2817 11.6621 14.4283 9.51976 15.3376 6.79721C15.3938 6.62893 15.4453 6.45846 15.4919 6.28592C15.5464 6.08397 15.5942 5.87916 15.6352 5.67179C15.6416 5.6394 15.6478 5.60695 15.6538 5.57444L15.6557 5.56458L15.6581 5.55124C15.6618 5.53097 15.6658 5.50872 15.6737 5.46467L15.674 5.46315L15.6768 5.44741C15.7394 5.11697 16.2135 5.11697 16.2762 5.44741L16.279 5.46315C16.2871 5.5082 16.2911 5.53073 16.2949 5.55124L16.2973 5.56458L16.2991 5.57444C16.3052 5.60695 16.3114 5.6394 16.3178 5.67179C16.3587 5.87919 16.4066 6.08397 16.4611 6.28592C16.5077 6.45846 16.5592 6.62893 16.6154 6.79721C17.5247 9.51976 19.6713 11.6621 22.3992 12.5697C22.5678 12.6257 22.7386 12.6771 22.9115 12.7236C23.1139 12.778 23.3191 12.8258 23.5269 12.8667C23.5593 12.873 23.5918 12.8792 23.6244 12.8853L23.6343 12.8871L23.6476 12.8895C23.6682 12.8933 23.6908 12.8973 23.7359 12.9054L23.7517 12.9082C24.0828 12.9707 24.0828 13.4439 23.7517 13.5064L23.7359 13.5092L23.6881 13.5177L23.6476 13.525L23.6343 13.5275L23.6244 13.5293C23.5918 13.5354 23.5593 13.5416 23.5269 13.5479C23.3191 13.5888 23.1139 13.6365 22.9115 13.691C22.7386 13.7375 22.5678 13.7888 22.3992 13.8449C19.6713 14.7525 17.5247 16.8948 16.6154 19.6174C16.5592 19.7857 16.5077 19.9561 16.4611 20.1287C16.4066 20.3306 16.3587 20.5354 16.3178 20.7428C16.3114 20.7752 16.3052 20.8076 16.2991 20.8401L16.2973 20.85L16.2949 20.8633L16.2894 20.8934L16.2793 20.9497L16.2762 20.9672C16.2135 21.2976 15.7394 21.2976 15.6768 20.9672L15.674 20.9514C15.6659 20.9065 15.6619 20.8838 15.6581 20.8633L15.6557 20.85L15.6538 20.8401C15.6478 20.8076 15.6416 20.7752 15.6352 20.7428C15.5942 20.5354 15.5464 20.3306 15.4919 20.1287C15.4453 19.9561 15.3938 19.7857 15.3376 19.6174C14.4283 16.8948 12.2817 14.7525 9.55376 13.8449C9.38515 13.7888 9.21434 13.7375 9.04149 13.691ZM11.2084 13.2073C13.2825 14.2183 14.9634 15.8959 15.9765 17.966C16.9895 15.8959 18.6704 14.2183 20.7446 13.2073C18.6704 12.1962 16.9895 10.5187 15.9765 8.44856C14.9634 10.5187 13.2825 12.1962 11.2084 13.2073ZM4.47568 20.0292C4.82367 20.0956 5.1533 20.2117 5.45697 20.3699C5.59206 20.4402 5.722 20.5189 5.84611 20.6053C6.19196 20.846 6.49267 21.1461 6.73382 21.4913C6.82035 21.6152 6.89923 21.7448 6.96972 21.8796C7.12826 22.1827 7.24456 22.5117 7.31103 22.859C7.31377 22.8734 7.31645 22.8877 7.31902 22.9021C7.34235 23.0326 7.5299 23.0326 7.55324 22.9021C7.5558 22.8877 7.55845 22.8734 7.5612 22.859C7.62769 22.5117 7.74399 22.1827 7.90251 21.8796C7.97303 21.7448 8.0519 21.6152 8.13844 21.4913C8.37955 21.1461 8.68029 20.846 9.02615 20.6053C9.15026 20.5189 9.28019 20.4402 9.41525 20.3699C9.71896 20.2117 10.0486 20.0956 10.3966 20.0292C10.4109 20.0265 10.4253 20.0238 10.4398 20.0212C10.5705 19.998 10.5705 19.8108 10.4398 19.7875C10.4253 19.7849 10.4109 19.7823 10.3966 19.7795C10.0486 19.7132 9.71896 19.5971 9.41525 19.4389C9.28019 19.3685 9.15026 19.2898 9.02615 19.2034C8.68029 18.9628 8.37955 18.6627 8.13844 18.3175C8.0519 18.1936 7.97303 18.0639 7.90251 17.9291C7.74399 17.6261 7.62769 17.2971 7.5612 16.9497C7.55845 16.9354 7.5558 16.921 7.55324 16.9066C7.5299 16.7761 7.34235 16.7761 7.31902 16.9066C7.31645 16.921 7.31377 16.9354 7.31103 16.9497C7.24456 17.2971 7.12826 17.6261 6.96972 17.9291C6.89923 18.0639 6.82035 18.1936 6.73382 18.3175C6.49267 18.6627 6.19196 18.9628 5.84611 19.2034C5.722 19.2898 5.59206 19.3685 5.45697 19.4389C5.1533 19.5971 4.82367 19.7132 4.47568 19.7795C4.46131 19.7823 4.44692 19.7849 4.43246 19.7875C4.30173 19.8108 4.30173 19.998 4.43246 20.0212C4.44692 20.0238 4.46131 20.0265 4.47568 20.0292ZM7.43611 20.4107C7.27991 20.2296 7.1103 20.0603 6.92875 19.9044C7.1103 19.7485 7.27991 19.5792 7.43611 19.398C7.59234 19.5792 7.76196 19.7485 7.94347 19.9044C7.76196 20.0603 7.59234 20.2296 7.43611 20.4107Z" fill="url(#paint0_linear_2491_12954)"/>
<defs>
<linearGradient id="paint0_linear_2491_12954" x1="2.62872" y1="7.42383" x2="23.5688" y2="9.37263" gradientUnits="userSpaceOnUse">
<stop stop-color="#B47E54"/>
<stop offset="0.563901" stop-color="#A816BF" stop-opacity="0.75"/>
<stop offset="1" stop-color="#0C0081" stop-opacity="0.78"/>
</linearGradient>
</defs>
</svg>
